<ttFont>
    <TTGlyph name=".notdef" xMin="251" yMin="-555" xMax="1107" yMax="2146">
      <contour>
        <pt x="1107" y="-555" on="1"/>
        <pt x="251" y="-555" on="1"/>
        <pt x="251" y="2146" on="1"/>
        <pt x="1107" y="2146" on="1"/>
      </contour>
      <contour>
        <pt x="454" y="1965" on="1"/>
        <pt x="454" y="1876" on="1"/>
        <pt x="629" y="1876" on="1"/>
        <pt x="629" y="1776" on="1"/>
        <pt x="451" y="1776" on="1"/>
        <pt x="451" y="1687" on="1"/>
        <pt x="899" y="1687" on="1"/>
        <pt x="899" y="1776" on="1"/>
        <pt x="721" y="1776" on="1"/>
        <pt x="721" y="1876" on="1"/>
        <pt x="899" y="1876" on="1"/>
        <pt x="899" y="1965" on="1"/>
      </contour>
      <contour>
        <pt x="451" y="1617" on="1"/>
        <pt x="451" y="1336" on="1"/>
        <pt x="899" y="1336" on="1"/>
        <pt x="899" y="1428" on="1"/>
        <pt x="721" y="1428" on="1"/>
        <pt x="721" y="1617" on="1"/>
      </contour>
      <contour>
        <pt x="629" y="1428" on="1"/>
        <pt x="540" y="1428" on="1"/>
        <pt x="540" y="1525" on="1"/>
        <pt x="629" y="1525" on="1"/>
      </contour>
      <contour>
        <pt x="451" y="1263" on="1"/>
        <pt x="451" y="1174" on="1"/>
        <pt x="629" y="1174" on="1"/>
        <pt x="629" y="1074" on="1"/>
        <pt x="451" y="1074" on="1"/>
        <pt x="451" y="985" on="1"/>
        <pt x="721" y="985" on="1"/>
        <pt x="721" y="1174" on="1"/>
        <pt x="899" y="1174" on="1"/>
        <pt x="899" y="1263" on="1"/>
      </contour>
      <contour>
        <pt x="810" y="1101" on="1"/>
        <pt x="810" y="922" on="1"/>
        <pt x="451" y="922" on="1"/>
        <pt x="451" y="831" on="1"/>
        <pt x="899" y="831" on="1"/>
        <pt x="899" y="1101" on="1"/>
      </contour>
      <contour>
        <pt x="629" y="771" on="1"/>
        <pt x="629" y="620" on="1"/>
        <pt x="721" y="620" on="1"/>
        <pt x="721" y="682" on="1"/>
        <pt x="810" y="682" on="1"/>
        <pt x="810" y="555" on="1"/>
        <pt x="540" y="555" on="1"/>
        <pt x="540" y="771" on="1"/>
        <pt x="451" y="771" on="1"/>
        <pt x="451" y="466" on="1"/>
        <pt x="899" y="466" on="1"/>
        <pt x="899" y="771" on="1"/>
      </contour>
      <contour>
        <pt x="451" y="304" on="1"/>
        <pt x="451" y="-1" on="1"/>
        <pt x="899" y="-1" on="1"/>
        <pt x="899" y="304" on="1"/>
      </contour>
      <contour>
        <pt x="810" y="88" on="1"/>
        <pt x="540" y="88" on="1"/>
        <pt x="540" y="215" on="1"/>
        <pt x="810" y="215" on="1"/>
      </contour>
      <contour>
        <pt x="451" y="-63" on="1"/>
        <pt x="451" y="-153" on="1"/>
        <pt x="640" y="-153" on="1"/>
        <pt x="451" y="-279" on="1"/>
        <pt x="451" y="-369" on="1"/>
        <pt x="899" y="-369" on="1"/>
        <pt x="899" y="-279" on="1"/>
        <pt x="624" y="-279" on="1"/>
        <pt x="813" y="-153" on="1"/>
        <pt x="899" y="-153" on="1"/>
        <pt x="899" y="-63" on="1"/>
      </contour>
    </TTGlyph>
    <TTGlyph name=".ttfautohint" xMin="0" yMin="0" xMax="0" yMax="0">
      <contour>
        <pt x="0" y="0" on="1"/>
      </contour>
    </TTGlyph>
    <TTGlyph name="A" xMin="31" yMin="0" xMax="1249" yMax="1456">
      <contour>
        <pt x="971" y="408" on="1"/>
        <pt x="309" y="408" on="1"/>
        <pt x="159" y="0" on="1"/>
        <pt x="31" y="0" on="1"/>
        <pt x="581" y="1456" on="1"/>
        <pt x="698" y="1456" on="1"/>
        <pt x="1249" y="0" on="1"/>
        <pt x="1121" y="0" on="1"/>
      </contour>
      <contour>
        <pt x="932" y="513" on="1"/>
        <pt x="640" y="1307" on="1"/>
        <pt x="348" y="513" on="1"/>
      </contour>
    </TTGlyph>
    <TTGlyph name="A.smcp" xMin="24" yMin="0" xMax="1083" yMax="1165">
      <contour>
        <pt x="837" y="311" on="1"/>
        <pt x="272" y="311" on="1"/>
        <pt x="148" y="0" on="1"/>
        <pt x="24" y="0" on="1"/>
        <pt x="498" y="1165" on="1"/>
        <pt x="612" y="1165" on="1"/>
        <pt x="1083" y="0" on="1"/>
        <pt x="960" y="0" on="1"/>
      </contour>
      <contour>
        <pt x="796" y="413" on="1"/>
        <pt x="555" y="1022" on="1"/>
        <pt x="313" y="413" on="1"/>
      </contour>
    </TTGlyph>
    <TTGlyph name="AE" xMin="18" yMin="0" xMax="1824" yMax="1456">
      <contour>
        <pt x="1824" y="102" on="1"/>
        <pt x="1824" y="0" on="1"/>
        <pt x="1006" y="0" on="1"/>
        <pt x="990" y="390" on="1"/>
        <pt x="394" y="390" on="1"/>
        <pt x="164" y="0" on="1"/>
        <pt x="18" y="0" on="1"/>
        <pt x="899" y="1456" on="1"/>
        <pt x="1762" y="1456" on="1"/>
        <pt x="1762" y="1354" on="1"/>
        <pt x="1069" y="1354" on="1"/>
        <pt x="1092" y="809" on="1"/>
        <pt x="1681" y="809" on="1"/>
        <pt x="1681" y="708" on="1"/>
        <pt x="1096" y="708" on="1"/>
        <pt x="1122" y="102" on="1"/>
      </contour>
      <contour>
        <pt x="985" y="502" on="1"/>
        <pt x="950" y="1331" on="1"/>
        <pt x="461" y="502" on="1"/>
      </contour>
    </TTGlyph>
    <TTGlyph name="AE.smcp" xMin="15" yMin="0" xMax="1503" yMax="1165">
      <contour>
        <pt x="1503" y="101" on="1"/>
        <pt x="1503" y="0" on="1"/>
        <pt x="772" y="0" on="1"/>
        <pt x="766" y="324" on="1"/>
        <pt x="333" y="324" on="1"/>
        <pt x="147" y="0" on="1"/>
        <pt x="15" y="0" on="1"/>
        <pt x="702" y="1165" on="1"/>
        <pt x="1483" y="1165" on="1"/>
        <pt x="1483" y="1064" on="1"/>
        <pt x="873" y="1064" on="1"/>
        <pt x="880" y="656" on="1"/>
        <pt x="1407" y="656" on="1"/>
        <pt x="1407" y="555" on="1"/>
        <pt x="881" y="555" on="1"/>
        <pt x="889" y="101" on="1"/>
      </contour>
      <contour>
        <pt x="765" y="426" on="1"/>
        <pt x="754" y="1057" on="1"/>
        <pt x="392" y="426" on="1"/>
      </contour>
    </TTGlyph>
    <TTGlyph name="Aacute" xMin="31" yMin="0" xMax="1249" yMax="1851">
      <component glyphName=".ttfautohint" x="31" y="0" flags="0x0"/>
      <component glyphName="A" x="0" y="0" flags="0x0"/>
      <component glyphName="acutecomb" x="1189" y="315" flags="0x4"/>
    </TTGlyph>
    <TTGlyph name="Aacute.smcp" xMin="24" yMin="0" xMax="1083" yMax="1564">
      <component glyphName=".ttfautohint" x="24" y="0" flags="0x0"/>
      <component glyphName="A.smcp" x="0" y="0" flags="0x0"/>
      <component glyphName="acutecomb" x="1103" y="28" flags="0x4"/>
    </TTGlyph>
    <TTGlyph name="Acircumflex" xMin="31" yMin="0" xMax="1249" yMax="1841">
      <component glyphName=".ttfautohint" x="31" y="0" flags="0x0"/>
      <component glyphName="A" x="0" y="0" flags="0x0"/>
      <component glyphName="circumflex" x="205" y="315" flags="0x4"/>
    </TTGlyph>
    <TTGlyph name="Acircumflex.smcp" xMin="24" yMin="0" xMax="1083" yMax="1554">
      <component glyphName=".ttfautohint" x="24" y="0" flags="0x0"/>
      <component glyphName="A.smcp" x="0" y="0" flags="0x0"/>
      <component glyphName="circumflex" x="119" y="28" flags="0x4"/>
    </TTGlyph>
    <TTGlyph name="Adieresis" xMin="31" yMin="0" xMax="1249" yMax="1792">
      <component glyphName=".ttfautohint" x="31" y="0" flags="0x0"/>
      <component glyphName="A" x="0" y="0" flags="0x0"/>
      <component glyphName="dieresis" x="206" y="315" flags="0x4"/>
    </TTGlyph>
    <TTGlyph name="Adieresis.smcp" xMin="24" yMin="0" xMax="1083" yMax="1505">
      <component glyphName=".ttfautohint" x="24" y="0" flags="0x0"/>
      <component glyphName="A.smcp" x="0" y="0" flags="0x0"/>
      <component glyphName="dieresis" x="120" y="28" flags="0x4"/>
    </TTGlyph>
    <TTGlyph name="Agrave" xMin="31" yMin="0" xMax="1249" yMax="1851">
      <component glyphName=".ttfautohint" x="31" y="0" flags="0x0"/>
      <component glyphName="A" x="0" y="0" flags="0x0"/>
      <component glyphName="gravecomb" x="1179" y="315" flags="0x4"/>
    </TTGlyph>
    <TTGlyph name="Agrave.smcp" xMin="24" yMin="0" xMax="1083" yMax="1564">
      <component glyphName=".ttfautohint" x="24" y="0" flags="0x0"/>
      <component glyphName="A.smcp" x="0" y="0" flags="0x0"/>
      <component glyphName="gravecomb" x="1093" y="28" flags="0x4"/>
    </TTGlyph>
    <TTGlyph name="Aring" xMin="31" yMin="0" xMax="1249" yMax="1907">
      <component glyphName=".ttfautohint" x="31" y="0" flags="0x0"/>
      <component glyphName="A" x="0" y="0" flags="0x0"/>
      <component glyphName="ring" x="332" y="321" flags="0x4"/>
    </TTGlyph>
    <TTGlyph name="Aring.smcp" xMin="24" yMin="0" xMax="1083" yMax="1620">
      <component glyphName=".ttfautohint" x="24" y="0" flags="0x0"/>
      <component glyphName="A.smcp" x="0" y="0" flags="0x0"/>
      <component glyphName="ring" x="246" y="34" flags="0x4"/>
    </TTGlyph>
    <TTGlyph name="Atilde" xMin="31" yMin="0" xMax="1249" yMax="1817">
      <component glyphName=".ttfautohint" x="31" y="0" flags="0x0"/>
      <component glyphName="A" x="0" y="0" flags="0x0"/>
      <component glyphName="tilde" x="204" y="325" flags="0x4"/>
    </TTGlyph>
    <TTGlyph name="Atilde.smcp" xMin="24" yMin="0" xMax="1083" yMax="1530">
      <component glyphName=".ttfautohint" x="24" y="0" flags="0x0"/>
      <component glyphName="A.smcp" x="0" y="0" flags="0x0"/>
      <component glyphName="tilde" x="118" y="38" flags="0x4"/>
    </TTGlyph>
    <TTGlyph name="B" xMin="185" yMin="0" xMax="1143" yMax="1456">
      <contour>
        <pt x="945" y="741" on="0"/>
        <pt x="1073" y="640" on="0"/>
        <pt x="1143" y="494" on="0"/>
        <pt x="1143" y="410" on="1"/>
        <pt x="1143" y="280" on="0"/>
        <pt x="1027" y="95" on="0"/>
        <pt x="817" y="0" on="0"/>
        <pt x="677" y="0" on="1"/>
        <pt x="185" y="0" on="1"/>
        <pt x="185" y="1456" on="1"/>
        <pt x="615" y="1456" on="1"/>
        <pt x="843" y="1456" on="0"/>
        <pt x="1090" y="1269" on="0"/>
        <pt x="1090" y="1076" on="1"/>
        <pt x="1090" y="964" on="0"/>
        <pt x="969" y="797" on="0"/>
        <pt x="860" y="760" on="1"/>
      </contour>
      <contour>
        <pt x="308" y="1351" on="1"/>
        <pt x="308" y="804" on="1"/>
        <pt x="627" y="804" on="1"/>
        <pt x="790" y="804" on="0"/>
        <pt x="966" y="944" on="0"/>
        <pt x="966" y="1078" on="1"/>
        <pt x="966" y="1217" on="0"/>
        <pt x="791" y="1351" on="0"/>
        <pt x="615" y="1351" on="1"/>
      </contour>
      <contour>
        <pt x="783" y="104" on="0"/>
        <pt x="937" y="177" on="0"/>
        <pt x="1019" y="314" on="0"/>
        <pt x="1019" y="408" on="1"/>
        <pt x="1019" y="493" on="0"/>
        <pt x="946" y="625" on="0"/>
        <pt x="796" y="701" on="0"/>
        <pt x="686" y="701" on="1"/>
        <pt x="308" y="701" on="1"/>
        <pt x="308" y="104" on="1"/>
        <pt x="677" y="104" on="1"/>
      </contour>
    </TTGlyph>
    <TTGlyph name="B.smcp" xMin="154" yMin="0" xMax="988" yMax="1165">
      <contour>
        <pt x="823" y="591" on="0"/>
        <pt x="930" y="510" on="0"/>
        <pt x="988" y="394" on="0"/>
        <pt x="988" y="328" on="1"/>
        <pt x="988" y="222" on="0"/>
        <pt x="888" y="75" on="0"/>
        <pt x="706" y="0" on="0"/>
        <pt x="583" y="0" on="1"/>
        <pt x="154" y="0" on="1"/>
        <pt x="154" y="1165" on="1"/>
        <pt x="524" y="1165" on="1"/>
        <pt x="724" y="1165" on="0"/>
        <pt x="944" y="1011" on="0"/>
        <pt x="944" y="856" on="1"/>
        <pt x="944" y="767" on="0"/>
        <pt x="843" y="635" on="0"/>
        <pt x="751" y="606" on="1"/>
      </contour>
      <contour>
        <pt x="274" y="1062" on="1"/>
        <pt x="274" y="648" on="1"/>
        <pt x="539" y="648" on="1"/>
        <pt x="677" y="648" on="0"/>
        <pt x="824" y="752" on="0"/>
        <pt x="824" y="854" on="1"/>
        <pt x="824" y="1062" on="0"/>
        <pt x="524" y="1062" on="1"/>
      </contour>
      <contour>
        <pt x="718" y="102" on="0"/>
        <pt x="869" y="221" on="0"/>
        <pt x="869" y="327" on="1"/>
        <pt x="869" y="392" on="0"/>
        <pt x="808" y="493" on="0"/>
        <pt x="683" y="551" on="0"/>
        <pt x="591" y="551" on="1"/>
        <pt x="274" y="551" on="1"/>
        <pt x="274" y="102" on="1"/>
        <pt x="583" y="102" on="1"/>
      </contour>
    </TTGlyph>
    <TTGlyph name="C" xMin="132" yMin="-20" xMax="1215" yMax="1476">
      <contour>
        <pt x="1192" y="229" on="0"/>
        <pt x="917" y="-20" on="0"/>
        <pt x="680" y="-20" on="1"/>
        <pt x="516" y="-20" on="0"/>
        <pt x="268" y="144" on="0"/>
        <pt x="132" y="442" on="0"/>
        <pt x="132" y="637" on="1"/>
        <pt x="132" y="819" on="1"/>
        <pt x="132" y="1015" on="0"/>
        <pt x="268" y="1312" on="0"/>
        <pt x="520" y="1476" on="0"/>
        <pt x="688" y="1476" on="1"/>
        <pt x="842" y="1476" on="0"/>
        <pt x="1068" y="1364" on="0"/>
        <pt x="1200" y="1151" on="0"/>
        <pt x="1215" y="1001" on="1"/>
        <pt x="1092" y="1001" on="1"/>
        <pt x="1045" y="1371" on="0"/>
        <pt x="688" y="1371" on="1"/>
        <pt x="555" y="1371" on="0"/>
        <pt x="359" y="1234" on="0"/>
        <pt x="255" y="986" on="0"/>
        <pt x="255" y="821" on="1"/>
        <pt x="255" y="637" on="1"/>
        <pt x="255" y="476" on="0"/>
        <pt x="355" y="225" on="0"/>
        <pt x="547" y="84" on="0"/>
        <pt x="680" y="84" on="1"/>
        <pt x="870" y="84" on="0"/>
        <pt x="1068" y="267" on="0"/>
        <pt x="1092" y="454" on="1"/>
        <pt x="1215" y="454" on="1"/>
      </contour>
    </TTGlyph>
    <TTGlyph name="C.smcp" xMin="109" yMin="-16" xMax="1049" yMax="1181">
      <contour>
        <pt x="1030" y="186" on="0"/>
        <pt x="791" y="-16" on="0"/>
        <pt x="585" y="-16" on="1"/>
        <pt x="442" y="-16" on="0"/>
        <pt x="226" y="116" on="0"/>
        <pt x="109" y="356" on="0"/>
        <pt x="109" y="514" on="1"/>
        <pt x="109" y="650" on="1"/>
        <pt x="109" y="808" on="0"/>
        <pt x="227" y="1049" on="0"/>
        <pt x="446" y="1181" on="0"/>
        <pt x="591" y="1181" on="1"/>
        <pt x="793" y="1181" on="0"/>
        <pt x="1030" y="977" on="0"/>
        <pt x="1049" y="795" on="1"/>
        <pt x="930" y="795" on="1"/>
        <pt x="912" y="934" on="0"/>
        <pt x="746" y="1079" on="0"/>
        <pt x="591" y="1079" on="1"/>
        <pt x="479" y="1079" on="0"/>
        <pt x="316" y="975" on="0"/>
        <pt x="229" y="782" on="0"/>
        <pt x="229" y="651" on="1"/>
        <pt x="229" y="514" on="1"/>
        <pt x="229" y="386" on="0"/>
        <pt x="313" y="192" on="0"/>
        <pt x="473" y="85" on="0"/>
        <pt x="585" y="85" on="1"/>
        <pt x="744" y="85" on="0"/>
        <pt x="911" y="224" on="0"/>
        <pt x="930" y="367" on="1"/>
        <pt x="1049" y="367" on="1"/>
      </contour>
    </TTGlyph>
    <TTGlyph name="C.ss06" xMin="128" yMin="-21" xMax="1273" yMax="1477">
      <contour>
        <pt x="1255" y="308" on="0"/>
        <pt x="1120" y="95" on="0"/>
        <pt x="890" y="-21" on="0"/>
        <pt x="735" y="-21" on="1"/>
        <pt x="559" y="-21" on="0"/>
        <pt x="283" y="164" on="0"/>
        <pt x="128" y="492" on="0"/>
        <pt x="128" y="698" on="1"/>
        <pt x="128" y="757" on="1"/>
        <pt x="128" y="964" on="0"/>
        <pt x="280" y="1292" on="0"/>
        <pt x="554" y="1477" on="0"/>
        <pt x="731" y="1477" on="1"/>
        <pt x="885" y="1477" on="0"/>
        <pt x="1116" y="1362" on="0"/>
        <pt x="1255" y="1148" on="0"/>
        <pt x="1273" y="1001" on="1"/>
        <pt x="1149" y="1001" on="1"/>
        <pt x="1122" y="1178" on="0"/>
        <pt x="913" y="1372" on="0"/>
        <pt x="731" y="1372" on="1"/>
        <pt x="589" y="1372" on="0"/>
        <pt x="371" y="1214" on="0"/>
        <pt x="252" y="935" on="0"/>
        <pt x="252" y="759" on="1"/>
        <pt x="252" y="698" on="1"/>
        <pt x="252" y="522" on="0"/>
        <pt x="375" y="242" on="0"/>
        <pt x="595" y="83" on="0"/>
        <pt x="735" y="83" on="1"/>
        <pt x="920" y="83" on="0"/>
        <pt x="1121" y="271" on="0"/>
        <pt x="1149" y="454" on="1"/>
        <pt x="1272" y="454" on="1"/>
      </contour>
    </TTGlyph>
    <TTGlyph name="Ccedilla" xMin="132" yMin="-445" xMax="1215" yMax="1476">
      <component glyphName=".ttfautohint" x="132" y="0" flags="0x0"/>
      <component glyphName="C" x="0" y="0" flags="0x0"/>
      <component glyphName="cedilla" x="483" y="-10" flags="0x4"/>
    </TTGlyph>
    <TTGlyph name="Ccedilla.smcp" xMin="109" yMin="-441" xMax="1049" yMax="1181">
      <component glyphName=".ttfautohint" x="109" y="0" flags="0x0"/>
      <component glyphName="C.smcp" x="0" y="0" flags="0x0"/>
      <component glyphName="cedilla" x="388" y="-6" flags="0x4"/>
    </TTGlyph>
    <TTGlyph name="D" xMin="185" yMin="0" xMax="1213" yMax="1456">
      <contour>
        <pt x="772" y="1456" on="0"/>
        <pt x="1055" y="1292" on="0"/>
        <pt x="1213" y="991" on="0"/>
        <pt x="1213" y="795" on="1"/>
        <pt x="1213" y="661" on="1"/>
        <pt x="1213" y="464" on="0"/>
        <pt x="1055" y="164" on="0"/>
        <pt x="769" y="0" on="0"/>
        <pt x="583" y="0" on="1"/>
        <pt x="185" y="0" on="1"/>
        <pt x="185" y="1456" on="1"/>
        <pt x="592" y="1456" on="1"/>
      </contour>
      <contour>
        <pt x="1091" y="797" on="1"/>
        <pt x="1091" y="963" on="0"/>
        <pt x="967" y="1214" on="0"/>
        <pt x="741" y="1351" on="0"/>
        <pt x="592" y="1351" on="1"/>
        <pt x="308" y="1351" on="1"/>
        <pt x="308" y="104" on="1"/>
        <pt x="583" y="104" on="1"/>
        <pt x="737" y="104" on="0"/>
        <pt x="967" y="244" on="0"/>
        <pt x="1091" y="496" on="0"/>
        <pt x="1091" y="661" on="1"/>
      </contour>
    </TTGlyph>
    <TTGlyph name="D.smcp" xMin="154" yMin="0" xMax="1046" yMax="1165">
      <contour>
        <pt x="664" y="1165" on="0"/>
        <pt x="909" y="1032" on="0"/>
        <pt x="1046" y="789" on="0"/>
        <pt x="1046" y="631" on="1"/>
        <pt x="1046" y="533" on="1"/>
        <pt x="1046" y="375" on="0"/>
        <pt x="909" y="133" on="0"/>
        <pt x="662" y="0" on="0"/>
        <pt x="502" y="0" on="1"/>
        <pt x="154" y="0" on="1"/>
        <pt x="154" y="1165" on="1"/>
        <pt x="508" y="1165" on="1"/>
      </contour>
      <contour>
        <pt x="927" y="633" on="1"/>
        <pt x="927" y="764" on="0"/>
        <pt x="824" y="958" on="0"/>
        <pt x="635" y="1062" on="0"/>
        <pt x="508" y="1062" on="1"/>
        <pt x="274" y="1062" on="1"/>
        <pt x="274" y="102" on="1"/>
        <pt x="502" y="102" on="1"/>
        <pt x="632" y="102" on="0"/>
        <pt x="824" y="209" on="0"/>
        <pt x="927" y="404" on="0"/>
        <pt x="927" y="533" on="1"/>
      </contour>
    </TTGlyph>
    <TTGlyph name="D.ss06" xMin="189" yMin="0" xMax="1271" yMax="1456">
      <contour>
        <pt x="788" y="1456" on="0"/>
        <pt x="1095" y="1280" on="0"/>
        <pt x="1271" y="961" on="0"/>
        <pt x="1271" y="753" on="1"/>
        <pt x="1271" y="703" on="1"/>
        <pt x="1271" y="495" on="0"/>
        <pt x="1095" y="175" on="0"/>
        <pt x="785" y="0" on="0"/>
        <pt x="589" y="0" on="1"/>
        <pt x="189" y="0" on="1"/>
        <pt x="189" y="1456" on="1"/>
        <pt x="597" y="1456" on="1"/>
      </contour>
      <contour>
        <pt x="1146" y="756" on="1"/>
        <pt x="1146" y="933" on="0"/>
        <pt x="1006" y="1203" on="0"/>
        <pt x="757" y="1351" on="0"/>
        <pt x="597" y="1351" on="1"/>
        <pt x="313" y="1351" on="1"/>
        <pt x="313" y="104" on="1"/>
        <pt x="588" y="104" on="1"/>
        <pt x="752" y="104" on="0"/>
        <pt x="1006" y="255" on="0"/>
        <pt x="1146" y="527" on="0"/>
        <pt x="1146" y="703" on="1"/>
      </contour>
    </TTGlyph>
    <TTGlyph name="E" xMin="185" yMin="0" xMax="1090" yMax="1456">
      <contour>
        <pt x="1090" y="104" on="1"/>
        <pt x="1090" y="0" on="1"/>
        <pt x="185" y="0" on="1"/>
        <pt x="185" y="1456" on="1"/>
        <pt x="1085" y="1456" on="1"/>
        <pt x="1085" y="1351" on="1"/>
        <pt x="308" y="1351" on="1"/>
        <pt x="308" y="803" on="1"/>
        <pt x="988" y="803" on="1"/>
        <pt x="988" y="698" on="1"/>
        <pt x="308" y="698" on="1"/>
        <pt x="308" y="104" on="1"/>
      </contour>
    </TTGlyph>
    <TTGlyph name="E.smcp" xMin="154" yMin="0" xMax="939" yMax="1165">
      <contour>
        <pt x="939" y="102" on="1"/>
        <pt x="939" y="0" on="1"/>
        <pt x="154" y="0" on="1"/>
        <pt x="154" y="1165" on="1"/>
        <pt x="935" y="1165" on="1"/>
        <pt x="935" y="1062" on="1"/>
        <pt x="274" y="1062" on="1"/>
        <pt x="274" y="655" on="1"/>
        <pt x="851" y="655" on="1"/>
        <pt x="851" y="553" on="1"/>
        <pt x="274" y="553" on="1"/>
        <pt x="274" y="102" on="1"/>
      </contour>
    </TTGlyph>
    <TTGlyph name="Eacute" xMin="185" yMin="0" xMax="1090" yMax="1856">
      <component glyphName=".ttfautohint" x="185" y="0" flags="0x0"/>
      <component glyphName="E" x="0" y="0" flags="0x0"/>
      <component glyphName="acutecomb" x="1166" y="320" flags="0x4"/>
    </TTGlyph>
    <TTGlyph name="Eacute.smcp" xMin="154" yMin="0" xMax="939" yMax="1564">
      <component glyphName=".ttfautohint" x="154" y="0" flags="0x0"/>
      <component glyphName="E.smcp" x="0" y="0" flags="0x0"/>
      <component glyphName="acutecomb" x="1081" y="28" flags="0x4"/>
    </TTGlyph>
    <TTGlyph name="Ecircumflex" xMin="185" yMin="0" xMax="1090" yMax="1846">
      <component glyphName=".ttfautohint" x="185" y="0" flags="0x0"/>
      <component glyphName="E" x="0" y="0" flags="0x0"/>
      <component glyphName="circumflex" x="182" y="320" flags="0x4"/>
    </TTGlyph>
    <TTGlyph name="Ecircumflex.smcp" xMin="154" yMin="0" xMax="939" yMax="1554">
      <component glyphName=".ttfautohint" x="154" y="0" flags="0x0"/>
      <component glyphName="E.smcp" x="0" y="0" flags="0x0"/>
      <component glyphName="circumflex" x="97" y="28" flags="0x4"/>
    </TTGlyph>
    <TTGlyph name="Edieresis" xMin="185" yMin="0" xMax="1090" yMax="1797">
      <component glyphName=".ttfautohint" x="185" y="0" flags="0x0"/>
      <component glyphName="E" x="0" y="0" flags="0x0"/>
      <component glyphName="dieresis" x="183" y="320" flags="0x4"/>
    </TTGlyph>
    <TTGlyph name="Edieresis.smcp" xMin="154" yMin="0" xMax="939" yMax="1505">
      <component glyphName=".ttfautohint" x="154" y="0" flags="0x0"/>
      <component glyphName="E.smcp" x="0" y="0" flags="0x0"/>
      <component glyphName="dieresis" x="98" y="28" flags="0x4"/>
    </TTGlyph>
    <TTGlyph name="Egrave" xMin="185" yMin="0" xMax="1090" yMax="1856">
      <component glyphName=".ttfautohint" x="185" y="0" flags="0x0"/>
      <component glyphName="E" x="0" y="0" flags="0x0"/>
      <component glyphName="gravecomb" x="1156" y="320" flags="0x4"/>
    </TTGlyph>
    <TTGlyph name="Egrave.smcp" xMin="154" yMin="0" xMax="939" yMax="1564">
      <component glyphName=".ttfautohint" x="154" y="0" flags="0x0"/>
      <component glyphName="E.smcp" x="0" y="0" flags="0x0"/>
      <component glyphName="gravecomb" x="1071" y="28" flags="0x4"/>
    </TTGlyph>
    <TTGlyph name="Eth" xMin="34" yMin="0" xMax="1213" yMax="1456">
      <component glyphName=".ttfautohint" x="34" y="0" flags="0x0"/>
      <component glyphName="D" x="0" y="0" flags="0x0"/>
      <component glyphName="crossbar" x="-92" y="3" flags="0x4"/>
    </TTGlyph>
    <TTGlyph name="Eth.smcp" xMin="-45" yMin="0" xMax="1046" yMax="1165">
      <component glyphName=".ttfautohint" x="0" y="0" flags="0x0"/>
      <component glyphName="D.smcp" x="0" y="0" flags="0x0"/>
      <component glyphName="crossbar" x="-171" y="-147" flags="0x4"/>
    </TTGlyph>
    <TTGlyph name="Euro" xMin="84" yMin="-21" xMax="1042" yMax="1476">
      <contour>
        <pt x="928" y="83" on="0"/>
        <pt x="1032" y="117" on="1"/>
        <pt x="1042" y="10" on="1"/>
        <pt x="932" y="-21" on="0"/>
        <pt x="812" y="-21" on="1"/>
        <pt x="652" y="-21" on="0"/>
        <pt x="410" y="108" on="0"/>
        <pt x="275" y="363" on="0"/>
        <pt x="275" y="547" on="1"/>
        <pt x="275" y="563" on="1"/>
        <pt x="84" y="563" on="1"/>
        <pt x="84" y="652" on="1"/>
        <pt x="275" y="652" on="1"/>
        <pt x="275" y="817" on="1"/>
        <pt x="84" y="817" on="1"/>
        <pt x="84" y="906" on="1"/>
        <pt x="275" y="906" on="1"/>
        <pt x="275" y="908" on="1"/>
        <pt x="275" y="1092" on="0"/>
        <pt x="409" y="1347" on="0"/>
        <pt x="651" y="1476" on="0"/>
        <pt x="811" y="1476" on="1"/>
        <pt x="915" y="1476" on="0"/>
        <pt x="1042" y="1445" on="1"/>
        <pt x="1032" y="1337" on="1"/>
        <pt x="922" y="1372" on="0"/>
        <pt x="812" y="1372" on="1"/>
        <pt x="617" y="1372" on="0"/>
        <pt x="399" y="1139" on="0"/>
        <pt x="399" y="910" on="1"/>
        <pt x="399" y="906" on="1"/>
        <pt x="818" y="906" on="1"/>
        <pt x="818" y="817" on="1"/>
        <pt x="399" y="817" on="1"/>
        <pt x="399" y="652" on="1"/>
        <pt x="818" y="652" on="1"/>
        <pt x="818" y="563" on="1"/>
        <pt x="399" y="563" on="1"/>
        <pt x="399" y="547" on="1"/>
        <pt x="399" y="396" on="0"/>
        <pt x="500" y="188" on="0"/>
        <pt x="686" y="83" on="0"/>
        <pt x="813" y="83" on="1"/>
      </contour>
    </TTGlyph>
    <TTGlyph name="Euro.smcp" xMin="54" yMin="-19" xMax="893" yMax="1181">
      <contour>
        <pt x="729" y="83" on="0"/>
        <pt x="825" y="98" on="0"/>
        <pt x="879" y="114" on="1"/>
        <pt x="893" y="12" on="1"/>
        <pt x="783" y="-19" on="0"/>
        <pt x="673" y="-19" on="1"/>
        <pt x="474" y="-19" on="0"/>
        <pt x="242" y="211" on="0"/>
        <pt x="224" y="424" on="1"/>
        <pt x="54" y="424" on="1"/>
        <pt x="54" y="511" on="1"/>
        <pt x="221" y="511" on="1"/>
        <pt x="221" y="644" on="1"/>
        <pt x="54" y="644" on="1"/>
        <pt x="54" y="731" on="1"/>
        <pt x="224" y="731" on="1"/>
        <pt x="240" y="946" on="0"/>
        <pt x="471" y="1181" on="0"/>
        <pt x="671" y="1181" on="1"/>
        <pt x="727" y="1181" on="0"/>
        <pt x="826" y="1166" on="0"/>
        <pt x="893" y="1150" on="1"/>
        <pt x="882" y="1048" on="1"/>
        <pt x="783" y="1079" on="0"/>
        <pt x="671" y="1079" on="1"/>
        <pt x="371" y="1079" on="0"/>
        <pt x="344" y="731" on="1"/>
        <pt x="774" y="731" on="1"/>
        <pt x="774" y="644" on="1"/>
        <pt x="341" y="644" on="1"/>
        <pt x="341" y="511" on="1"/>
        <pt x="774" y="511" on="1"/>
        <pt x="774" y="424" on="1"/>
        <pt x="344" y="424" on="1"/>
        <pt x="359" y="259" on="0"/>
        <pt x="523" y="83" on="0"/>
        <pt x="673" y="83" on="1"/>
      </contour>
    </TTGlyph>
    <TTGlyph name="F" xMin="185" yMin="0" xMax="1087" yMax="1456">
      <contour>
        <pt x="308" y="1351" on="1"/>
        <pt x="308" y="786" on="1"/>
        <pt x="986" y="786" on="1"/>
        <pt x="986" y="680" on="1"/>
        <pt x="308" y="680" on="1"/>
        <pt x="308" y="0" on="1"/>
        <pt x="185" y="0" on="1"/>
        <pt x="185" y="1456" on="1"/>
        <pt x="1087" y="1456" on="1"/>
        <pt x="1087" y="1351" on="1"/>
      </contour>
    </TTGlyph>
    <TTGlyph name="F.smcp" xMin="154" yMin="0" xMax="934" yMax="1165">
      <contour>
        <pt x="274" y="1062" on="1"/>
        <pt x="274" y="636" on="1"/>
        <pt x="850" y="636" on="1"/>
        <pt x="850" y="533" on="1"/>
        <pt x="274" y="533" on="1"/>
        <pt x="274" y="0" on="1"/>
        <pt x="154" y="0" on="1"/>
        <pt x="154" y="1165" on="1"/>
        <pt x="934" y="1165" on="1"/>
        <pt x="934" y="1062" on="1"/>
      </contour>
    </TTGlyph>
    <TTGlyph name="G" xMin="145" yMin="-20" xMax="1235" yMax="1476">
      <contour>
        <pt x="1204" y="130" on="0"/>
        <pt x="1079" y="42" on="0"/>
        <pt x="870" y="-20" on="0"/>
        <pt x="729" y="-20" on="1"/>
        <pt x="558" y="-20" on="0"/>
        <pt x="293" y="143" on="0"/>
        <pt x="145" y="445" on="0"/>
        <pt x="145" y="645" on="1"/>
        <pt x="145" y="822" on="1"/>
        <pt x="145" y="1021" on="0"/>
        <pt x="282" y="1316" on="0"/>
        <pt x="537" y="1476" on="0"/>
        <pt x="710" y="1476" on="1"/>
        <pt x="867" y="1476" on="0"/>
        <pt x="1091" y="1366" on="0"/>
        <pt x="1218" y="1172" on="0"/>
        <pt x="1234" y="1046" on="1"/>
        <pt x="1111" y="1046" on="1"/>
        <pt x="1087" y="1191" on="0"/>
        <pt x="894" y="1371" on="0"/>
        <pt x="710" y="1371" on="1"/>
        <pt x="570" y="1371" on="0"/>
        <pt x="372" y="1235" on="0"/>
        <pt x="269" y="989" on="0"/>
        <pt x="269" y="824" on="1"/>
        <pt x="269" y="645" on="1"/>
        <pt x="269" y="477" on="0"/>
        <pt x="383" y="223" on="0"/>
        <pt x="592" y="84" on="0"/>
        <pt x="730" y="84" on="1"/>
        <pt x="833" y="84" on="0"/>
        <pt x="990" y="124" on="0"/>
        <pt x="1089" y="181" on="0"/>
        <pt x="1113" y="211" on="1"/>
        <pt x="1113" y="587" on="1"/>
        <pt x="722" y="587" on="1"/>
        <pt x="722" y="692" on="1"/>
        <pt x="1235" y="692" on="1"/>
        <pt x="1235" y="174" on="1"/>
      </contour>
    </TTGlyph>
    <TTGlyph name="G.smcp" xMin="121" yMin="-16" xMax="1066" yMax="1181">
      <contour>
        <pt x="1039" y="104" on="0"/>
        <pt x="930" y="33" on="0"/>
        <pt x="749" y="-16" on="0"/>
        <pt x="627" y="-16" on="1"/>
        <pt x="478" y="-16" on="0"/>
        <pt x="249" y="115" on="0"/>
        <pt x="121" y="358" on="0"/>
        <pt x="121" y="521" on="1"/>
        <pt x="121" y="652" on="1"/>
        <pt x="121" y="813" on="0"/>
        <pt x="240" y="1052" on="0"/>
        <pt x="461" y="1181" on="0"/>
        <pt x="610" y="1181" on="1"/>
        <pt x="747" y="1181" on="0"/>
        <pt x="942" y="1091" on="0"/>
        <pt x="1051" y="933" on="0"/>
        <pt x="1065" y="830" on="1"/>
        <pt x="946" y="830" on="1"/>
        <pt x="927" y="942" on="0"/>
        <pt x="765" y="1079" on="0"/>
        <pt x="611" y="1079" on="1"/>
        <pt x="494" y="1079" on="0"/>
        <pt x="327" y="974" on="0"/>
        <pt x="240" y="783" on="0"/>
        <pt x="240" y="654" on="1"/>
        <pt x="240" y="521" on="1"/>
        <pt x="240" y="389" on="0"/>
        <pt x="336" y="192" on="0"/>
        <pt x="512" y="85" on="0"/>
        <pt x="629" y="85" on="1"/>
        <pt x="753" y="85" on="0"/>
        <pt x="914" y="144" on="0"/>
        <pt x="947" y="180" on="1"/>
        <pt x="947" y="464" on="1"/>
        <pt x="618" y="464" on="1"/>
        <pt x="618" y="562" on="1"/>
        <pt x="1066" y="562" on="1"/>
        <pt x="1066" y="139" on="1"/>
      </contour>
    </TTGlyph>
    <TTGlyph name="G.ss06" xMin="128" yMin="-21" xMax="1280" yMax="1476">
      <contour>
        <pt x="1250" y="130" on="0"/>
        <pt x="1121" y="42" on="0"/>
        <pt x="912" y="-21" on="0"/>
        <pt x="777" y="-21" on="1"/>
        <pt x="591" y="-21" on="0"/>
        <pt x="295" y="166" on="0"/>
        <pt x="128" y="502" on="0"/>
        <pt x="128" y="717" on="1"/>
        <pt x="128" y="750" on="1"/>
        <pt x="128" y="962" on="0"/>
        <pt x="282" y="1292" on="0"/>
        <pt x="556" y="1476" on="0"/>
        <pt x="730" y="1476" on="1"/>
        <pt x="895" y="1476" on="0"/>
        <pt x="1130" y="1366" on="0"/>
        <pt x="1261" y="1172" on="0"/>
        <pt x="1278" y="1046" on="1"/>
        <pt x="1155" y="1046" on="1"/>
        <pt x="1129" y="1192" on="0"/>
        <pt x="927" y="1372" on="0"/>
        <pt x="730" y="1372" on="1"/>
        <pt x="589" y="1372" on="0"/>
        <pt x="372" y="1212" on="0"/>
        <pt x="252" y="929" on="0"/>
        <pt x="252" y="752" on="1"/>
        <pt x="252" y="717" on="1"/>
        <pt x="252" y="534" on="0"/>
        <pt x="385" y="246" on="0"/>
        <pt x="624" y="83" on="0"/>
        <pt x="777" y="83" on="1"/>
        <pt x="875" y="83" on="0"/>
        <pt x="1032" y="123" on="0"/>
        <pt x="1134" y="182" on="0"/>
        <pt x="1157" y="211" on="1"/>
        <pt x="1157" y="587" on="1"/>
        <pt x="766" y="587" on="1"/>
        <pt x="766" y="691" on="1"/>
        <pt x="1280" y="691" on="1"/>
        <pt x="1280" y="173" on="1"/>
      </contour>
    </TTGlyph>
    <TTGlyph name="H" xMin="185" yMin="0" xMax="1263" yMax="1456">
      <contour>
        <pt x="1263" y="1456" on="1"/>
        <pt x="1263" y="0" on="1"/>
        <pt x="1140" y="0" on="1"/>
        <pt x="1140" y="698" on="1"/>
        <pt x="308" y="698" on="1"/>
        <pt x="308" y="0" on="1"/>
        <pt x="185" y="0" on="1"/>
        <pt x="185" y="1456" on="1"/>
        <pt x="308" y="1456" on="1"/>
        <pt x="308" y="803" on="1"/>
        <pt x="1140" y="803" on="1"/>
        <pt x="1140" y="1456" on="1"/>
      </contour>
    </TTGlyph>
    <TTGlyph name="H.smcp" xMin="154" yMin="0" xMax="1090" yMax="1165">
      <contour>
        <pt x="1090" y="1165" on="1"/>
        <pt x="1090" y="0" on="1"/>
        <pt x="970" y="0" on="1"/>
        <pt x="970" y="525" on="1"/>
        <pt x="274" y="525" on="1"/>
        <pt x="274" y="0" on="1"/>
        <pt x="154" y="0" on="1"/>
        <pt x="154" y="1165" on="1"/>
        <pt x="274" y="1165" on="1"/>
        <pt x="274" y="627" on="1"/>
        <pt x="970" y="627" on="1"/>
        <pt x="970" y="1165" on="1"/>
      </contour>
    </TTGlyph>
    <TTGlyph name="I" xMin="212" yMin="0" xMax="335" yMax="1456">
      <contour>
        <pt x="212" y="0" on="1"/>
        <pt x="212" y="1456" on="1"/>
        <pt x="335" y="1456" on="1"/>
        <pt x="335" y="0" on="1"/>
      </contour>
    </TTGlyph>
    <TTGlyph name="I.smcp" xMin="177" yMin="0" xMax="297" yMax="1165">
      <contour>
        <pt x="177" y="0" on="1"/>
        <pt x="177" y="1165" on="1"/>
        <pt x="297" y="1165" on="1"/>
        <pt x="297" y="0" on="1"/>
      </contour>
    </TTGlyph>
    <TTGlyph name="Iacute" xMin="204" yMin="0" xMax="540" yMax="1856">
      <component glyphName=".ttfautohint" x="204" y="0" flags="0x0"/>
      <component glyphName="I" x="0" y="0" flags="0x0"/>
      <component glyphName="acutecomb" x="820" y="320" flags="0x4"/>
    </TTGlyph>
    <TTGlyph name="Iacute.smcp" xMin="168" yMin="0" xMax="504" yMax="1564">
      <component glyphName=".ttfautohint" x="168" y="0" flags="0x0"/>
      <component glyphName="I.smcp" x="0" y="0" flags="0x0"/>
      <component glyphName="acutecomb" x="784" y="28" flags="0x4"/>
    </TTGlyph>
    <TTGlyph name="Icircumflex" xMin="-3" yMin="0" xMax="551" yMax="1846">
      <component glyphName=".ttfautohint" x="0" y="0" flags="0x0"/>
      <component glyphName="I" x="0" y="0" flags="0x0"/>
      <component glyphName="circumflex" x="-164" y="320" flags="0x4"/>
    </TTGlyph>
    <TTGlyph name="Icircumflex.smcp" xMin="-39" yMin="0" xMax="515" yMax="1554">
      <component glyphName=".ttfautohint" x="0" y="0" flags="0x0"/>
      <component glyphName="I.smcp" x="0" y="0" flags="0x0"/>
      <component glyphName="circumflex" x="-200" y="28" flags="0x4"/>
    </TTGlyph>
    <TTGlyph name="Idieresis" xMin="-26" yMin="0" xMax="576" yMax="1797">
      <component glyphName=".ttfautohint" x="0" y="0" flags="0x0"/>
      <component glyphName="I" x="0" y="0" flags="0x0"/>
      <component glyphName="dieresis" x="-164" y="320" flags="0x4"/>
    </TTGlyph>
    <TTGlyph name="Idieresis.smcp" xMin="-62" yMin="0" xMax="540" yMax="1505">
      <component glyphName=".ttfautohint" x="0" y="0" flags="0x0"/>
      <component glyphName="I.smcp" x="0" y="0" flags="0x0"/>
      <component glyphName="dieresis" x="-200" y="28" flags="0x4"/>
    </TTGlyph>
    <TTGlyph name="Igrave" xMin="9" yMin="0" xMax="345" yMax="1856">
      <component glyphName=".ttfautohint" x="9" y="0" flags="0x0"/>
      <component glyphName="I" x="0" y="0" flags="0x0"/>
      <component glyphName="gravecomb" x="810" y="320" flags="0x4"/>
    </TTGlyph>
    <TTGlyph name="Igrave.smcp" xMin="-27" yMin="0" xMax="309" yMax="1564">
      <component glyphName=".ttfautohint" x="0" y="0" flags="0x0"/>
      <component glyphName="I.smcp" x="0" y="0" flags="0x0"/>
      <component glyphName="gravecomb" x="774" y="28" flags="0x4"/>
    </TTGlyph>
    <TTGlyph name="J" xMin="72" yMin="-20" xMax="951" yMax="1456">
      <contour>
        <pt x="951" y="1456" on="1"/>
        <pt x="951" y="434" on="1"/>
        <pt x="951" y="291" on="0"/>
        <pt x="838" y="86" on="0"/>
        <pt x="639" y="-20" on="0"/>
        <pt x="511" y="-20" on="1"/>
        <pt x="378" y="-20" on="0"/>
        <pt x="181" y="73" on="0"/>
        <pt x="72" y="262" on="0"/>
        <pt x="72" y="402" on="1"/>
        <pt x="195" y="402" on="1"/>
        <pt x="195" y="246" on="0"/>
        <pt x="360" y="84" on="0"/>
        <pt x="511" y="84" on="1"/>
        <pt x="601" y="84" on="0"/>
        <pt x="745" y="165" on="0"/>
        <pt x="828" y="322" on="0"/>
        <pt x="828" y="434" on="1"/>
        <pt x="828" y="1456" on="1"/>
      </contour>
    </TTGlyph>
    <TTGlyph name="J.smcp" xMin="59" yMin="-16" xMax="824" yMax="1165">
      <contour>
        <pt x="824" y="1165" on="1"/>
        <pt x="824" y="337" on="1"/>
        <pt x="824" y="229" on="0"/>
        <pt x="729" y="69" on="0"/>
        <pt x="560" y="-16" on="0"/>
        <pt x="453" y="-16" on="1"/>
        <pt x="336" y="-16" on="0"/>
        <pt x="158" y="60" on="0"/>
        <pt x="59" y="213" on="0"/>
        <pt x="59" y="326" on="1"/>
        <pt x="179" y="326" on="1"/>
        <pt x="179" y="207" on="0"/>
        <pt x="322" y="85" on="0"/>
        <pt x="453" y="85" on="1"/>
        <pt x="525" y="85" on="0"/>
        <pt x="639" y="146" on="0"/>
        <pt x="703" y="260" on="0"/>
        <pt x="703" y="337" on="1"/>
        <pt x="703" y="1165" on="1"/>
      </contour>
    </TTGlyph>
    <TTGlyph name="K" xMin="185" yMin="0" xMax="1256" yMax="1456">
      <contour>
        <pt x="513" y="723" on="1"/>
        <pt x="308" y="522" on="1"/>
        <pt x="308" y="0" on="1"/>
        <pt x="185" y="0" on="1"/>
        <pt x="185" y="1456" on="1"/>
        <pt x="308" y="1456" on="1"/>
        <pt x="308" y="673" on="1"/>
        <pt x="506" y="879" on="1"/>
        <pt x="1053" y="1456" on="1"/>
        <pt x="1208" y="1456" on="1"/>
        <pt x="598" y="808" on="1"/>
        <pt x="1256" y="0" on="1"/>
        <pt x="1106" y="0" on="1"/>
      </contour>
    </TTGlyph>
    <TTGlyph name="K.alt" xMin="189" yMin="0" xMax="1268" yMax="1456">
      <contour>
        <pt x="512" y="684" on="1"/>
        <pt x="313" y="684" on="1"/>
        <pt x="313" y="0" on="1"/>
        <pt x="189" y="0" on="1"/>
        <pt x="189" y="1456" on="1"/>
        <pt x="313" y="1456" on="1"/>
        <pt x="313" y="789" on="1"/>
        <pt x="506" y="789" on="1"/>
        <pt x="1070" y="1456" on="1"/>
        <pt x="1225" y="1456" on="1"/>
        <pt x="626" y="741" on="1"/>
        <pt x="1268" y="0" on="1"/>
        <pt x="1115" y="0" on="1"/>
      </contour>
    </TTGlyph>
    <TTGlyph name="K.alt2" xMin="189" yMin="0" xMax="1211" yMax="1456">
      <contour>
        <pt x="1052" y="0" on="1"/>
        <pt x="313" y="710" on="1"/>
        <pt x="313" y="0" on="1"/>
        <pt x="189" y="0" on="1"/>
        <pt x="189" y="1456" on="1"/>
        <pt x="313" y="1456" on="1"/>
        <pt x="313" y="778" on="1"/>
        <pt x="324" y="778" on="1"/>
        <pt x="1007" y="1456" on="1"/>
        <pt x="1168" y="1456" on="1"/>
        <pt x="452" y="740" on="1"/>
        <pt x="1211" y="0" on="1"/>
      </contour>
    </TTGlyph>
    <TTGlyph name="K.smcp" xMin="154" yMin="0" xMax="1086" yMax="1165">
      <contour>
        <pt x="446" y="565" on="1"/>
        <pt x="274" y="406" on="1"/>
        <pt x="274" y="0" on="1"/>
        <pt x="154" y="0" on="1"/>
        <pt x="154" y="1165" on="1"/>
        <pt x="274" y="1165" on="1"/>
        <pt x="274" y="552" on="1"/>
        <pt x="439" y="719" on="1"/>
        <pt x="892" y="1165" on="1"/>
        <pt x="1044" y="1165" on="1"/>
        <pt x="531" y="646" on="1"/>
        <pt x="1086" y="0" on="1"/>
        <pt x="937" y="0" on="1"/>
      </contour>
    </TTGlyph>
    <TTGlyph name="L" xMin="185" yMin="0" xMax="1027" yMax="1456">
      <contour>
        <pt x="1027" y="104" on="1"/>
        <pt x="1027" y="0" on="1"/>
        <pt x="185" y="0" on="1"/>
        <pt x="185" y="1456" on="1"/>
        <pt x="309" y="1456" on="1"/>
        <pt x="309" y="104" on="1"/>
      </contour>
    </TTGlyph>
    <TTGlyph name="L.smcp" xMin="154" yMin="0" xMax="886" yMax="1165">
      <contour>
        <pt x="886" y="102" on="1"/>
        <pt x="886" y="0" on="1"/>
        <pt x="154" y="0" on="1"/>
        <pt x="154" y="1165" on="1"/>
        <pt x="274" y="1165" on="1"/>
        <pt x="274" y="102" on="1"/>
      </contour>
    </TTGlyph>
    <TTGlyph name="M" xMin="185" yMin="0" xMax="1587" yMax="1456">
      <contour>
        <pt x="1587" y="0" on="1"/>
        <pt x="1464" y="0" on="1"/>
        <pt x="1464" y="637" on="1"/>
        <pt x="1475" y="1286" on="1"/>
        <pt x="932" y="0" on="1"/>
        <pt x="837" y="0" on="1"/>
        <pt x="297" y="1281" on="1"/>
        <pt x="308" y="637" on="1"/>
        <pt x="308" y="0" on="1"/>
        <pt x="185" y="0" on="1"/>
        <pt x="185" y="1456" on="1"/>
        <pt x="347" y="1456" on="1"/>
        <pt x="885" y="172" on="1"/>
        <pt x="1423" y="1456" on="1"/>
        <pt x="1587" y="1456" on="1"/>
      </contour>
    </TTGlyph>
    <TTGlyph name="M.smcp" xMin="154" yMin="0" xMax="1370" yMax="1165">
      <contour>
        <pt x="1370" y="0" on="1"/>
        <pt x="1251" y="0" on="1"/>
        <pt x="1251" y="477" on="1"/>
        <pt x="1262" y="1018" on="1"/>
        <pt x="806" y="0" on="1"/>
        <pt x="717" y="0" on="1"/>
        <pt x="262" y="1015" on="1"/>
        <pt x="274" y="477" on="1"/>
        <pt x="274" y="0" on="1"/>
        <pt x="154" y="0" on="1"/>
        <pt x="154" y="1165" on="1"/>
        <pt x="312" y="1165" on="1"/>
        <pt x="762" y="166" on="1"/>
        <pt x="1211" y="1165" on="1"/>
        <pt x="1370" y="1165" on="1"/>
      </contour>
    </TTGlyph>
    <TTGlyph name="N" xMin="185" yMin="0" xMax="1269" yMax="1456">
      <contour>
        <pt x="1145" y="0" on="1"/>
        <pt x="309" y="1246" on="1"/>
        <pt x="309" y="0" on="1"/>
        <pt x="185" y="0" on="1"/>
        <pt x="185" y="1456" on="1"/>
        <pt x="309" y="1456" on="1"/>
        <pt x="1146" y="210" on="1"/>
        <pt x="1146" y="1456" on="1"/>
        <pt x="1269" y="1456" on="1"/>
        <pt x="1269" y="0" on="1"/>
      </contour>
    </TTGlyph>
    <TTGlyph name="N.smcp" xMin="154" yMin="0" xMax="1094" yMax="1165">
      <contour>
        <pt x="975" y="0" on="1"/>
        <pt x="274" y="978" on="1"/>
        <pt x="274" y="0" on="1"/>
        <pt x="154" y="0" on="1"/>
        <pt x="154" y="1165" on="1"/>
        <pt x="274" y="1165" on="1"/>
        <pt x="975" y="189" on="1"/>
        <pt x="975" y="1165" on="1"/>
        <pt x="1094" y="1165" on="1"/>
        <pt x="1094" y="0" on="1"/>
      </contour>
    </TTGlyph>
    <TTGlyph name="Ntilde" xMin="185" yMin="0" xMax="1269" yMax="1817">
      <component glyphName=".ttfautohint" x="185" y="0" flags="0x0"/>
      <component glyphName="N" x="0" y="0" flags="0x0"/>
      <component glyphName="tilde" x="288" y="325" flags="0x4"/>
    </TTGlyph>
    <TTGlyph name="Ntilde.smcp" xMin="154" yMin="0" xMax="1094" yMax="1530">
      <component glyphName=".ttfautohint" x="154" y="0" flags="0x0"/>
      <component glyphName="N.smcp" x="0" y="0" flags="0x0"/>
      <component glyphName="tilde" x="186" y="38" flags="0x4"/>
    </TTGlyph>
    <TTGlyph name="O" xMin="126" yMin="-20" xMax="1260" yMax="1476">
      <contour>
        <pt x="1260" y="448" on="0"/>
        <pt x="1121" y="145" on="0"/>
        <pt x="865" y="-20" on="0"/>
        <pt x="694" y="-20" on="1"/>
        <pt x="526" y="-20" on="0"/>
        <pt x="268" y="145" on="0"/>
        <pt x="126" y="449" on="0"/>
        <pt x="126" y="650" on="1"/>
        <pt x="126" y="806" on="1"/>
        <pt x="126" y="1007" on="0"/>
        <pt x="267" y="1311" on="0"/>
        <pt x="524" y="1476" on="0"/>
        <pt x="692" y="1476" on="1"/>
        <pt x="863" y="1476" on="0"/>
        <pt x="1120" y="1311" on="0"/>
        <pt x="1260" y="1008" on="0"/>
        <pt x="1260" y="806" on="1"/>
        <pt x="1260" y="650" on="1"/>
      </contour>
      <contour>
        <pt x="1138" y="980" on="0"/>
        <pt x="1032" y="1232" on="0"/>
        <pt x="831" y="1368" on="0"/>
        <pt x="692" y="1368" on="1"/>
        <pt x="556" y="1368" on="0"/>
        <pt x="356" y="1232" on="0"/>
        <pt x="249" y="979" on="0"/>
        <pt x="249" y="808" on="1"/>
        <pt x="249" y="650" on="1"/>
        <pt x="249" y="478" on="0"/>
        <pt x="357" y="225" on="0"/>
        <pt x="558" y="88" on="0"/>
        <pt x="694" y="88" on="1"/>
        <pt x="834" y="88" on="0"/>
        <pt x="1034" y="224" on="0"/>
        <pt x="1138" y="477" on="0"/>
        <pt x="1138" y="650" on="1"/>
        <pt x="1138" y="808" on="1"/>
      </contour>
    </TTGlyph>
    <TTGlyph name="O.smcp" xMin="105" yMin="-16" xMax="1088" yMax="1181">
      <contour>
        <pt x="1088" y="361" on="0"/>
        <pt x="967" y="116" on="0"/>
        <pt x="745" y="-16" on="0"/>
        <pt x="597" y="-16" on="1"/>
        <pt x="451" y="-16" on="0"/>
        <pt x="228" y="117" on="0"/>
        <pt x="105" y="362" on="0"/>
        <pt x="105" y="525" on="1"/>
        <pt x="105" y="639" on="1"/>
        <pt x="105" y="803" on="0"/>
        <pt x="227" y="1048" on="0"/>
        <pt x="450" y="1181" on="0"/>
        <pt x="596" y="1181" on="1"/>
        <pt x="744" y="1181" on="0"/>
        <pt x="967" y="1048" on="0"/>
        <pt x="1088" y="803" on="0"/>
        <pt x="1088" y="639" on="1"/>
        <pt x="1088" y="525" on="1"/>
      </contour>
      <contour>
        <pt x="970" y="775" on="0"/>
        <pt x="881" y="972" on="0"/>
        <pt x="713" y="1077" on="0"/>
        <pt x="596" y="1077" on="1"/>
        <pt x="481" y="1077" on="0"/>
        <pt x="313" y="971" on="0"/>
        <pt x="224" y="775" on="0"/>
        <pt x="224" y="641" on="1"/>
        <pt x="224" y="525" on="1"/>
        <pt x="224" y="391" on="0"/>
        <pt x="314" y="193" on="0"/>
        <pt x="482" y="87" on="0"/>
        <pt x="597" y="87" on="1"/>
        <pt x="714" y="87" on="0"/>
        <pt x="882" y="193" on="0"/>
        <pt x="970" y="390" on="0"/>
        <pt x="970" y="525" on="1"/>
        <pt x="970" y="641" on="1"/>
      </contour>
    </TTGlyph>
    <TTGlyph name="O.ss06" xMin="128" yMin="-21" xMax="1332" yMax="1477">
      <contour>
        <pt x="1332" y="495" on="0"/>
        <pt x="1176" y="165" on="0"/>
        <pt x="902" y="-21" on="0"/>
        <pt x="731" y="-21" on="1"/>
        <pt x="563" y="-21" on="0"/>
        <pt x="287" y="165" on="0"/>
        <pt x="128" y="496" on="0"/>
        <pt x="128" y="703" on="1"/>
        <pt x="128" y="753" on="1"/>
        <pt x="128" y="960" on="0"/>
        <pt x="286" y="1290" on="0"/>
        <pt x="561" y="1477" on="0"/>
        <pt x="729" y="1477" on="1"/>
        <pt x="900" y="1477" on="0"/>
        <pt x="1175" y="1291" on="0"/>
        <pt x="1332" y="960" on="0"/>
        <pt x="1332" y="753" on="1"/>
        <pt x="1332" y="703" on="1"/>
      </contour>
      <contour>
        <pt x="1209" y="931" on="0"/>
        <pt x="1087" y="1211" on="0"/>
        <pt x="868" y="1369" on="0"/>
        <pt x="729" y="1369" on="1"/>
        <pt x="593" y="1369" on="0"/>
        <pt x="375" y="1211" on="0"/>
        <pt x="251" y="930" on="0"/>
        <pt x="251" y="755" on="1"/>
        <pt x="251" y="703" on="1"/>
        <pt x="251" y="526" on="0"/>
        <pt x="376" y="245" on="0"/>
        <pt x="595" y="87" on="0"/>
        <pt x="731" y="87" on="1"/>
        <pt x="871" y="87" on="0"/>
        <pt x="1088" y="245" on="0"/>
        <pt x="1209" y="525" on="0"/>
        <pt x="1209" y="703" on="1"/>
        <pt x="1209" y="755" on="1"/>
      </contour>
    </TTGlyph>
    <TTGlyph name="OE" xMin="108" yMin="-21" xMax="1801" yMax="1476">
      <contour>
        <pt x="1801" y="104" on="1"/>
        <pt x="1801" y="0" on="1"/>
        <pt x="957" y="0" on="1"/>
        <pt x="861" y="-10" on="0"/>
        <pt x="719" y="-21" on="0"/>
        <pt x="646" y="-21" on="1"/>
        <pt x="489" y="-21" on="0"/>
        <pt x="244" y="130" on="0"/>
        <pt x="108" y="402" on="0"/>
        <pt x="108" y="576" on="1"/>
        <pt x="108" y="880" on="1"/>
        <pt x="108" y="1055" on="0"/>
        <pt x="243" y="1325" on="0"/>
        <pt x="487" y="1476" on="0"/>
        <pt x="644" y="1476" on="1"/>
        <pt x="784" y="1476" on="0"/>
        <pt x="957" y="1456" on="1"/>
        <pt x="1796" y="1456" on="1"/>
        <pt x="1796" y="1351" on="1"/>
        <pt x="1019" y="1351" on="1"/>
        <pt x="1019" y="803" on="1"/>
        <pt x="1699" y="803" on="1"/>
        <pt x="1699" y="698" on="1"/>
        <pt x="1019" y="698" on="1"/>
        <pt x="1019" y="104" on="1"/>
      </contour>
      <contour>
        <pt x="228" y="426" on="0"/>
        <pt x="331" y="202" on="0"/>
        <pt x="520" y="81" on="0"/>
        <pt x="646" y="81" on="1"/>
        <pt x="776" y="81" on="0"/>
        <pt x="896" y="95" on="1"/>
        <pt x="896" y="1361" on="1"/>
        <pt x="787" y="1375" on="0"/>
        <pt x="644" y="1375" on="1"/>
        <pt x="518" y="1375" on="0"/>
        <pt x="330" y="1256" on="0"/>
        <pt x="228" y="1034" on="0"/>
        <pt x="228" y="882" on="1"/>
        <pt x="228" y="576" on="1"/>
      </contour>
    </TTGlyph>
    <TTGlyph name="Oacute" xMin="126" yMin="-20" xMax="1260" yMax="1862">
      <component glyphName=".ttfautohint" x="126" y="0" flags="0x0"/>
      <component glyphName="O" x="0" y="0" flags="0x0"/>
      <component glyphName="acutecomb" x="1238" y="326" flags="0x4"/>
    </TTGlyph>
    <TTGlyph name="Oacute.smcp" xMin="105" yMin="-16" xMax="1088" yMax="1564">
      <component glyphName=".ttfautohint" x="105" y="0" flags="0x0"/>
      <component glyphName="O.smcp" x="0" y="0" flags="0x0"/>
      <component glyphName="acutecomb" x="1142" y="28" flags="0x4"/>
    </TTGlyph>
    <TTGlyph name="Ocircumflex" xMin="126" yMin="-20" xMax="1260" yMax="1852">
      <component glyphName=".ttfautohint" x="126" y="0" flags="0x0"/>
      <component glyphName="O" x="0" y="0" flags="0x0"/>
      <component glyphName="circumflex" x="254" y="326" flags="0x4"/>
    </TTGlyph>
    <TTGlyph name="Ocircumflex.smcp" xMin="105" yMin="-16" xMax="1088" yMax="1554">
      <component glyphName=".ttfautohint" x="105" y="0" flags="0x0"/>
      <component glyphName="O.smcp" x="0" y="0" flags="0x0"/>
      <component glyphName="circumflex" x="158" y="28" flags="0x4"/>
    </TTGlyph>
    <TTGlyph name="Odieresis" xMin="126" yMin="-20" xMax="1260" yMax="1803">
      <component glyphName=".ttfautohint" x="126" y="0" flags="0x0"/>
      <component glyphName="O" x="0" y="0" flags="0x0"/>
      <component glyphName="dieresis" x="255" y="326" flags="0x4"/>
    </TTGlyph>
    <TTGlyph name="Odieresis.smcp" xMin="105" yMin="-16" xMax="1088" yMax="1505">
      <component glyphName=".ttfautohint" x="105" y="0" flags="0x0"/>
      <component glyphName="O.smcp" x="0" y="0" flags="0x0"/>
      <component glyphName="dieresis" x="159" y="28" flags="0x4"/>
    </TTGlyph>
    <TTGlyph name="Ograve" xMin="126" yMin="-20" xMax="1260" yMax="1862">
      <component glyphName=".ttfautohint" x="126" y="0" flags="0x0"/>
      <component glyphName="O" x="0" y="0" flags="0x0"/>
      <component glyphName="gravecomb" x="1228" y="326" flags="0x4"/>
    </TTGlyph>
    <TTGlyph name="Ograve.smcp" xMin="105" yMin="-16" xMax="1088" yMax="1564">
      <component glyphName=".ttfautohint" x="105" y="0" flags="0x0"/>
      <component glyphName="O.smcp" x="0" y="0" flags="0x0"/>
      <component glyphName="gravecomb" x="1132" y="28" flags="0x4"/>
    </TTGlyph>
    <TTGlyph name="Oslash" xMin="126" yMin="-84" xMax="1275" yMax="1505">
      <contour>
        <pt x="1126" y="1268" on="1"/>
        <pt x="1191" y="1181" on="0"/>
        <pt x="1260" y="946" on="0"/>
        <pt x="1260" y="806" on="1"/>
        <pt x="1260" y="650" on="1"/>
        <pt x="1260" y="448" on="0"/>
        <pt x="1121" y="145" on="0"/>
        <pt x="865" y="-20" on="0"/>
        <pt x="694" y="-20" on="1"/>
        <pt x="511" y="-20" on="0"/>
        <pt x="376" y="77" on="1"/>
        <pt x="275" y="-84" on="1"/>
        <pt x="171" y="-84" on="1"/>
        <pt x="308" y="134" on="1"/>
        <pt x="221" y="223" on="0"/>
        <pt x="126" y="486" on="0"/>
        <pt x="126" y="650" on="1"/>
        <pt x="126" y="806" on="1"/>
        <pt x="126" y="1007" on="0"/>
        <pt x="267" y="1311" on="0"/>
        <pt x="524" y="1476" on="0"/>
        <pt x="692" y="1476" on="1"/>
        <pt x="803" y="1476" on="0"/>
        <pt x="992" y="1404" on="0"/>
        <pt x="1065" y="1336" on="1"/>
        <pt x="1171" y="1505" on="1"/>
        <pt x="1275" y="1505" on="1"/>
      </contour>
      <contour>
        <pt x="249" y="519" on="0"/>
        <pt x="312" y="308" on="0"/>
        <pt x="372" y="235" on="1"/>
        <pt x="1003" y="1238" on="1"/>
        <pt x="946" y="1302" on="0"/>
        <pt x="789" y="1368" on="0"/>
        <pt x="692" y="1368" on="1"/>
        <pt x="556" y="1368" on="0"/>
        <pt x="356" y="1232" on="0"/>
        <pt x="249" y="979" on="0"/>
        <pt x="249" y="808" on="1"/>
        <pt x="249" y="650" on="1"/>
      </contour>
      <contour>
        <pt x="1138" y="1019" on="0"/>
        <pt x="1058" y="1161" on="1"/>
        <pt x="436" y="172" on="1"/>
        <pt x="543" y="88" on="0"/>
        <pt x="694" y="88" on="1"/>
        <pt x="834" y="88" on="0"/>
        <pt x="1034" y="224" on="0"/>
        <pt x="1138" y="477" on="0"/>
        <pt x="1138" y="650" on="1"/>
        <pt x="1138" y="808" on="1"/>
      </contour>
    </TTGlyph>
    <TTGlyph name="Oslash.smcp" xMin="105" yMin="-66" xMax="1088" yMax="1211">
      <contour>
        <pt x="1022" y="957" on="0"/>
        <pt x="1088" y="759" on="0"/>
        <pt x="1088" y="639" on="1"/>
        <pt x="1088" y="525" on="1"/>
        <pt x="1088" y="361" on="0"/>
        <pt x="967" y="116" on="0"/>
        <pt x="745" y="-16" on="0"/>
        <pt x="597" y="-16" on="1"/>
        <pt x="435" y="-16" on="0"/>
        <pt x="317" y="65" on="1"/>
        <pt x="230" y="-66" on="1"/>
        <pt x="127" y="-66" on="1"/>
        <pt x="251" y="120" on="1"/>
        <pt x="180" y="191" on="0"/>
        <pt x="105" y="397" on="0"/>
        <pt x="105" y="525" on="1"/>
        <pt x="105" y="639" on="1"/>
        <pt x="105" y="803" on="0"/>
        <pt x="227" y="1048" on="0"/>
        <pt x="450" y="1181" on="0"/>
        <pt x="596" y="1181" on="1"/>
        <pt x="773" y="1181" on="0"/>
        <pt x="896" y="1087" on="1"/>
        <pt x="979" y="1211" on="1"/>
        <pt x="1082" y="1211" on="1"/>
        <pt x="960" y="1028" on="1"/>
      </contour>
      <contour>
        <pt x="224" y="332" on="0"/>
        <pt x="315" y="216" on="1"/>
        <pt x="836" y="996" on="1"/>
        <pt x="739" y="1077" on="0"/>
        <pt x="596" y="1077" on="1"/>
        <pt x="481" y="1077" on="0"/>
        <pt x="313" y="971" on="0"/>
        <pt x="224" y="775" on="0"/>
        <pt x="224" y="641" on="1"/>
        <pt x="224" y="525" on="1"/>
      </contour>
      <contour>
        <pt x="970" y="641" on="1"/>
        <pt x="970" y="819" on="0"/>
        <pt x="894" y="930" on="1"/>
        <pt x="377" y="155" on="1"/>
        <pt x="468" y="87" on="0"/>
        <pt x="597" y="87" on="1"/>
        <pt x="714" y="87" on="0"/>
        <pt x="882" y="193" on="0"/>
        <pt x="970" y="390" on="0"/>
        <pt x="970" y="525" on="1"/>
      </contour>
    </TTGlyph>
    <TTGlyph name="Otilde" xMin="126" yMin="-20" xMax="1260" yMax="1828">
      <component glyphName=".ttfautohint" x="126" y="0" flags="0x0"/>
      <component glyphName="O" x="0" y="0" flags="0x0"/>
      <component glyphName="tilde" x="253" y="336" flags="0x4"/>
    </TTGlyph>
    <TTGlyph name="Otilde.smcp" xMin="105" yMin="-16" xMax="1088" yMax="1530">
      <component glyphName=".ttfautohint" x="105" y="0" flags="0x0"/>
      <component glyphName="O.smcp" x="0" y="0" flags="0x0"/>
      <component glyphName="tilde" x="157" y="38" flags="0x4"/>
    </TTGlyph>
    <TTGlyph name="P" xMin="185" yMin="0" xMax="1171" yMax="1456">
      <contour>
        <pt x="838" y="1456" on="0"/>
        <pt x="1058" y="1347" on="0"/>
        <pt x="1171" y="1152" on="0"/>
        <pt x="1171" y="1022" on="1"/>
        <pt x="1171" y="887" on="0"/>
        <pt x="1059" y="695" on="0"/>
        <pt x="839" y="593" on="0"/>
        <pt x="681" y="593" on="1"/>
        <pt x="308" y="593" on="1"/>
        <pt x="308" y="0" on="1"/>
        <pt x="185" y="0" on="1"/>
        <pt x="185" y="1456" on="1"/>
        <pt x="681" y="1456" on="1"/>
      </contour>
      <contour>
        <pt x="866" y="698" on="0"/>
        <pt x="1048" y="875" on="0"/>
        <pt x="1048" y="1020" on="1"/>
        <pt x="1048" y="1113" on="0"/>
        <pt x="970" y="1262" on="0"/>
        <pt x="805" y="1351" on="0"/>
        <pt x="681" y="1351" on="1"/>
        <pt x="308" y="1351" on="1"/>
        <pt x="308" y="698" on="1"/>
        <pt x="681" y="698" on="1"/>
      </contour>
    </TTGlyph>
    <TTGlyph name="P.smcp" xMin="154" yMin="0" xMax="1012" yMax="1165">
      <contour>
        <pt x="721" y="1165" on="0"/>
        <pt x="913" y="1076" on="0"/>
        <pt x="1012" y="915" on="0"/>
        <pt x="1012" y="810" on="1"/>
        <pt x="1012" y="702" on="0"/>
        <pt x="914" y="546" on="0"/>
        <pt x="723" y="463" on="0"/>
        <pt x="586" y="463" on="1"/>
        <pt x="274" y="463" on="1"/>
        <pt x="274" y="0" on="1"/>
        <pt x="154" y="0" on="1"/>
        <pt x="154" y="1165" on="1"/>
        <pt x="586" y="1165" on="1"/>
      </contour>
      <contour>
        <pt x="741" y="566" on="0"/>
        <pt x="892" y="699" on="0"/>
        <pt x="892" y="809" on="1"/>
        <pt x="892" y="880" on="0"/>
        <pt x="827" y="994" on="0"/>
        <pt x="690" y="1062" on="0"/>
        <pt x="586" y="1062" on="1"/>
        <pt x="274" y="1062" on="1"/>
        <pt x="274" y="566" on="1"/>
        <pt x="586" y="566" on="1"/>
      </contour>
    </TTGlyph>
    <TTGlyph name="Q" xMin="121" yMin="-255" xMax="1256" yMax="1476">
      <contour>
        <pt x="1256" y="441" on="0"/>
        <pt x="1108" y="132" on="0"/>
        <pt x="974" y="53" on="1"/>
        <pt x="1239" y="-178" on="1"/>
        <pt x="1154" y="-255" on="1"/>
        <pt x="858" y="3" on="1"/>
        <pt x="778" y="-20" on="0"/>
        <pt x="690" y="-20" on="1"/>
        <pt x="521" y="-20" on="0"/>
        <pt x="263" y="145" on="0"/>
        <pt x="121" y="449" on="0"/>
        <pt x="121" y="650" on="1"/>
        <pt x="121" y="806" on="1"/>
        <pt x="121" y="1007" on="0"/>
        <pt x="262" y="1311" on="0"/>
        <pt x="519" y="1476" on="0"/>
        <pt x="688" y="1476" on="1"/>
        <pt x="859" y="1476" on="0"/>
        <pt x="1116" y="1311" on="0"/>
        <pt x="1256" y="1008" on="0"/>
        <pt x="1256" y="806" on="1"/>
        <pt x="1256" y="650" on="1"/>
      </contour>
      <contour>
        <pt x="829" y="88" on="0"/>
        <pt x="1029" y="224" on="0"/>
        <pt x="1133" y="477" on="0"/>
        <pt x="1133" y="650" on="1"/>
        <pt x="1133" y="808" on="1"/>
        <pt x="1133" y="980" on="0"/>
        <pt x="1028" y="1232" on="0"/>
        <pt x="827" y="1368" on="0"/>
        <pt x="688" y="1368" on="1"/>
        <pt x="552" y="1368" on="0"/>
        <pt x="352" y="1232" on="0"/>
        <pt x="245" y="979" on="0"/>
        <pt x="245" y="808" on="1"/>
        <pt x="245" y="650" on="1"/>
        <pt x="245" y="478" on="0"/>
        <pt x="353" y="225" on="0"/>
        <pt x="554" y="88" on="0"/>
        <pt x="690" y="88" on="1"/>
      </contour>
    </TTGlyph>
    <TTGlyph name="Q.smcp" xMin="101" yMin="-205" xMax="1085" yMax="1181">
      <contour>
        <pt x="1085" y="359" on="0"/>
        <pt x="962" y="112" on="0"/>
        <pt x="849" y="47" on="1"/>
        <pt x="1070" y="-132" on="1"/>
        <pt x="989" y="-205" on="1"/>
        <pt x="736" y="2" on="1"/>
        <pt x="670" y="-16" on="0"/>
        <pt x="594" y="-16" on="1"/>
        <pt x="448" y="-16" on="0"/>
        <pt x="224" y="117" on="0"/>
        <pt x="101" y="362" on="0"/>
        <pt x="101" y="525" on="1"/>
        <pt x="101" y="639" on="1"/>
        <pt x="101" y="802" on="0"/>
        <pt x="223" y="1048" on="0"/>
        <pt x="446" y="1181" on="0"/>
        <pt x="592" y="1181" on="1"/>
        <pt x="740" y="1181" on="0"/>
        <pt x="963" y="1048" on="0"/>
        <pt x="1085" y="803" on="0"/>
        <pt x="1085" y="639" on="1"/>
        <pt x="1085" y="525" on="1"/>
      </contour>
      <contour>
        <pt x="711" y="87" on="0"/>
        <pt x="879" y="193" on="0"/>
        <pt x="967" y="390" on="0"/>
        <pt x="967" y="525" on="1"/>
        <pt x="967" y="641" on="1"/>
        <pt x="967" y="775" on="0"/>
        <pt x="878" y="972" on="0"/>
        <pt x="709" y="1077" on="0"/>
        <pt x="592" y="1077" on="1"/>
        <pt x="477" y="1077" on="0"/>
        <pt x="310" y="971" on="0"/>
        <pt x="221" y="775" on="0"/>
        <pt x="221" y="641" on="1"/>
        <pt x="221" y="525" on="1"/>
        <pt x="221" y="391" on="0"/>
        <pt x="311" y="193" on="0"/>
        <pt x="479" y="87" on="0"/>
        <pt x="594" y="87" on="1"/>
      </contour>
    </TTGlyph>
    <TTGlyph name="Q.ss06" xMin="128" yMin="-248" xMax="1332" yMax="1477">
      <contour>
        <pt x="1332" y="558" on="0"/>
        <pt x="1254" y="305" on="0"/>
        <pt x="1110" y="114" on="0"/>
        <pt x="1013" y="56" on="1"/>
        <pt x="1289" y="-171" on="1"/>
        <pt x="1204" y="-248" on="1"/>
        <pt x="897" y="4" on="1"/>
        <pt x="819" y="-21" on="0"/>
        <pt x="731" y="-21" on="1"/>
        <pt x="563" y="-21" on="0"/>
        <pt x="287" y="165" on="0"/>
        <pt x="128" y="496" on="0"/>
        <pt x="128" y="703" on="1"/>
        <pt x="128" y="747" on="1"/>
        <pt x="128" y="954" on="0"/>
        <pt x="286" y="1288" on="0"/>
        <pt x="561" y="1477" on="0"/>
        <pt x="729" y="1477" on="1"/>
        <pt x="900" y="1477" on="0"/>
        <pt x="1175" y="1288" on="0"/>
        <pt x="1332" y="955" on="0"/>
        <pt x="1332" y="747" on="1"/>
        <pt x="1332" y="703" on="1"/>
      </contour>
      <contour>
        <pt x="871" y="87" on="0"/>
        <pt x="1088" y="244" on="0"/>
        <pt x="1209" y="525" on="0"/>
        <pt x="1209" y="703" on="1"/>
        <pt x="1209" y="749" on="1"/>
        <pt x="1209" y="926" on="0"/>
        <pt x="1087" y="1209" on="0"/>
        <pt x="868" y="1369" on="0"/>
        <pt x="729" y="1369" on="1"/>
        <pt x="593" y="1369" on="0"/>
        <pt x="375" y="1209" on="0"/>
        <pt x="251" y="926" on="0"/>
        <pt x="251" y="749" on="1"/>
        <pt x="251" y="703" on="1"/>
        <pt x="251" y="526" on="0"/>
        <pt x="376" y="245" on="0"/>
        <pt x="595" y="87" on="0"/>
        <pt x="731" y="87" on="1"/>
      </contour>
    </TTGlyph>
    <TTGlyph name="R" xMin="182" yMin="0" xMax="1212" yMax="1456">
      <contour>
        <pt x="1212" y="13" on="1"/>
        <pt x="1212" y="0" on="1"/>
        <pt x="1080" y="0" on="1"/>
        <pt x="729" y="607" on="1"/>
        <pt x="305" y="607" on="1"/>
        <pt x="305" y="0" on="1"/>
        <pt x="182" y="0" on="1"/>
        <pt x="182" y="1456" on="1"/>
        <pt x="655" y="1456" on="1"/>
        <pt x="807" y="1456" on="0"/>
        <pt x="1029" y="1357" on="0"/>
        <pt x="1149" y="1164" on="0"/>
        <pt x="1149" y="1027" on="1"/>
        <pt x="1149" y="932" on="0"/>
        <pt x="1073" y="771" on="0"/>
        <pt x="937" y="658" on="0"/>
        <pt x="848" y="632" on="1"/>
      </contour>
      <contour>
        <pt x="682" y="711" on="1"/>
        <pt x="792" y="711" on="0"/>
        <pt x="947" y="798" on="0"/>
        <pt x="1026" y="942" on="0"/>
        <pt x="1026" y="1027" on="1"/>
        <pt x="1026" y="1127" on="0"/>
        <pt x="940" y="1273" on="0"/>
        <pt x="774" y="1351" on="0"/>
        <pt x="655" y="1351" on="1"/>
        <pt x="305" y="1351" on="1"/>
        <pt x="305" y="711" on="1"/>
      </contour>
    </TTGlyph>
    <TTGlyph name="R.alt" xMin="186" yMin="-1" xMax="1227" yMax="1455">
      <contour>
        <pt x="1158" y="88" on="0"/>
        <pt x="1227" y="24" on="1"/>
        <pt x="1227" y="-1" on="1"/>
        <pt x="1101" y="-1" on="1"/>
        <pt x="1065" y="36" on="0"/>
        <pt x="1034" y="168" on="0"/>
        <pt x="1034" y="237" on="1"/>
        <pt x="1034" y="368" on="1"/>
        <pt x="1034" y="502" on="0"/>
        <pt x="865" y="656" on="0"/>
        <pt x="710" y="656" on="1"/>
        <pt x="310" y="656" on="1"/>
        <pt x="310" y="-1" on="1"/>
        <pt x="186" y="-1" on="1"/>
        <pt x="186" y="1455" on="1"/>
        <pt x="681" y="1455" on="1"/>
        <pt x="916" y="1455" on="0"/>
        <pt x="1166" y="1251" on="0"/>
        <pt x="1166" y="1053" on="1"/>
        <pt x="1166" y="937" on="0"/>
        <pt x="1029" y="754" on="0"/>
        <pt x="905" y="712" on="1"/>
        <pt x="1041" y="679" on="0"/>
        <pt x="1158" y="504" on="0"/>
        <pt x="1158" y="370" on="1"/>
        <pt x="1158" y="235" on="1"/>
      </contour>
      <contour>
        <pt x="862" y="761" on="0"/>
        <pt x="1043" y="920" on="0"/>
        <pt x="1043" y="1053" on="1"/>
        <pt x="1043" y="1197" on="0"/>
        <pt x="863" y="1351" on="0"/>
        <pt x="680" y="1351" on="1"/>
        <pt x="310" y="1351" on="1"/>
        <pt x="310" y="761" on="1"/>
        <pt x="666" y="761" on="1"/>
      </contour>
    </TTGlyph>
    <TTGlyph name="R.smcp" xMin="152" yMin="0" xMax="1046" yMax="1165">
      <contour>
        <pt x="1046" y="10" on="1"/>
        <pt x="1046" y="0" on="1"/>
        <pt x="919" y="0" on="1"/>
        <pt x="626" y="469" on="1"/>
        <pt x="272" y="469" on="1"/>
        <pt x="272" y="0" on="1"/>
        <pt x="152" y="0" on="1"/>
        <pt x="152" y="1165" on="1"/>
        <pt x="565" y="1165" on="1"/>
        <pt x="696" y="1165" on="0"/>
        <pt x="889" y="1082" on="0"/>
        <pt x="994" y="924" on="0"/>
        <pt x="994" y="814" on="1"/>
        <pt x="994" y="698" on="0"/>
        <pt x="855" y="530" on="0"/>
        <pt x="738" y="496" on="1"/>
      </contour>
      <contour>
        <pt x="587" y="570" on="1"/>
        <pt x="679" y="570" on="0"/>
        <pt x="808" y="635" on="0"/>
        <pt x="874" y="744" on="0"/>
        <pt x="874" y="810" on="1"/>
        <pt x="874" y="886" on="0"/>
        <pt x="802" y="1000" on="0"/>
        <pt x="663" y="1062" on="0"/>
        <pt x="565" y="1062" on="1"/>
        <pt x="272" y="1062" on="1"/>
        <pt x="272" y="570" on="1"/>
      </contour>
    </TTGlyph>
    <TTGlyph name="S" xMin="88" yMin="-20" xMax="1133" yMax="1476">
      <contour>
        <pt x="453" y="729" on="0"/>
        <pt x="247" y="834" on="0"/>
        <pt x="135" y="989" on="0"/>
        <pt x="135" y="1100" on="1"/>
        <pt x="135" y="1211" on="0"/>
        <pt x="259" y="1381" on="0"/>
        <pt x="482" y="1476" on="0"/>
        <pt x="624" y="1476" on="1"/>
        <pt x="773" y="1476" on="0"/>
        <pt x="1000" y="1361" on="0"/>
        <pt x="1123" y="1163" on="0"/>
        <pt x="1123" y="1041" on="1"/>
        <pt x="1000" y="1041" on="1"/>
        <pt x="1000" y="1136" on="0"/>
        <pt x="910" y="1286" on="0"/>
        <pt x="740" y="1371" on="0"/>
        <pt x="624" y="1371" on="1"/>
        <pt x="508" y="1371" on="0"/>
        <pt x="343" y="1299" on="0"/>
        <pt x="259" y="1178" on="0"/>
        <pt x="259" y="1103" on="1"/>
        <pt x="259" y="1031" on="0"/>
        <pt x="333" y="922" on="0"/>
        <pt x="503" y="832" on="0"/>
        <pt x="649" y="793" on="1"/>
        <pt x="812" y="749" on="0"/>
        <pt x="1022" y="637" on="0"/>
        <pt x="1133" y="475" on="0"/>
        <pt x="1133" y="360" on="1"/>
        <pt x="1133" y="244" on="0"/>
        <pt x="1005" y="72" on="0"/>
        <pt x="777" y="-20" on="0"/>
        <pt x="632" y="-20" on="1"/>
        <pt x="494" y="-20" on="0"/>
        <pt x="246" y="74" on="0"/>
        <pt x="88" y="270" on="0"/>
        <pt x="88" y="416" on="1"/>
        <pt x="212" y="416" on="1"/>
        <pt x="212" y="300" on="0"/>
        <pt x="333" y="151" on="0"/>
        <pt x="524" y="84" on="0"/>
        <pt x="632" y="84" on="1"/>
        <pt x="745" y="84" on="0"/>
        <pt x="916" y="152" on="0"/>
        <pt x="1009" y="277" on="0"/>
        <pt x="1009" y="358" on="1"/>
        <pt x="1009" y="440" on="0"/>
        <pt x="935" y="553" on="0"/>
        <pt x="764" y="642" on="0"/>
        <pt x="611" y="685" on="1"/>
      </contour>
    </TTGlyph>
    <TTGlyph name="S.smcp" xMin="75" yMin="-16" xMax="979" yMax="1181">
      <contour>
        <pt x="396" y="570" on="0"/>
        <pt x="214" y="656" on="0"/>
        <pt x="115" y="784" on="0"/>
        <pt x="115" y="876" on="1"/>
        <pt x="115" y="966" on="0"/>
        <pt x="223" y="1105" on="0"/>
        <pt x="416" y="1181" on="0"/>
        <pt x="539" y="1181" on="1"/>
        <pt x="668" y="1181" on="0"/>
        <pt x="864" y="1089" on="0"/>
        <pt x="971" y="930" on="0"/>
        <pt x="971" y="831" on="1"/>
        <pt x="852" y="831" on="1"/>
        <pt x="852" y="903" on="0"/>
        <pt x="778" y="1015" on="0"/>
        <pt x="636" y="1079" on="0"/>
        <pt x="538" y="1079" on="1"/>
        <pt x="442" y="1079" on="0"/>
        <pt x="304" y="1025" on="0"/>
        <pt x="234" y="934" on="0"/>
        <pt x="234" y="878" on="1"/>
        <pt x="234" y="823" on="0"/>
        <pt x="297" y="741" on="0"/>
        <pt x="442" y="673" on="0"/>
        <pt x="568" y="642" on="1"/>
        <pt x="772" y="591" on="0"/>
        <pt x="979" y="429" on="0"/>
        <pt x="979" y="291" on="1"/>
        <pt x="979" y="197" on="0"/>
        <pt x="868" y="58" on="0"/>
        <pt x="671" y="-16" on="0"/>
        <pt x="546" y="-16" on="1"/>
        <pt x="426" y="-16" on="0"/>
        <pt x="211" y="60" on="0"/>
        <pt x="75" y="220" on="0"/>
        <pt x="75" y="339" on="1"/>
        <pt x="194" y="339" on="1"/>
        <pt x="194" y="250" on="0"/>
        <pt x="295" y="135" on="0"/>
        <pt x="454" y="84" on="0"/>
        <pt x="546" y="84" on="1"/>
        <pt x="641" y="84" on="0"/>
        <pt x="782" y="136" on="0"/>
        <pt x="859" y="229" on="0"/>
        <pt x="859" y="290" on="1"/>
        <pt x="859" y="351" on="0"/>
        <pt x="798" y="438" on="0"/>
        <pt x="657" y="506" on="0"/>
        <pt x="533" y="536" on="1"/>
      </contour>
    </TTGlyph>
    <TTGlyph name="T" xMin="52" yMin="0" xMax="1172" yMax="1456">
      <contour>
        <pt x="1172" y="1351" on="1"/>
        <pt x="673" y="1351" on="1"/>
        <pt x="673" y="0" on="1"/>
        <pt x="551" y="0" on="1"/>
        <pt x="551" y="1351" on="1"/>
        <pt x="52" y="1351" on="1"/>
        <pt x="52" y="1456" on="1"/>
        <pt x="1172" y="1456" on="1"/>
      </contour>
    </TTGlyph>
    <TTGlyph name="T.smcp" xMin="43" yMin="0" xMax="1013" yMax="1165">
      <contour>
        <pt x="1013" y="1062" on="1"/>
        <pt x="588" y="1062" on="1"/>
        <pt x="588" y="0" on="1"/>
        <pt x="468" y="0" on="1"/>
        <pt x="468" y="1062" on="1"/>
        <pt x="43" y="1062" on="1"/>
        <pt x="43" y="1165" on="1"/>
        <pt x="1013" y="1165" on="1"/>
      </contour>
    </TTGlyph>
    <TTGlyph name="Thorn" xMin="183" yMin="0" xMax="1096" yMax="1456">
      <contour>
        <pt x="775" y="1153" on="0"/>
        <pt x="986" y="1046" on="0"/>
        <pt x="1096" y="858" on="0"/>
        <pt x="1096" y="738" on="1"/>
        <pt x="1096" y="618" on="0"/>
        <pt x="986" y="430" on="0"/>
        <pt x="775" y="324" on="0"/>
        <pt x="627" y="324" on="1"/>
        <pt x="303" y="324" on="1"/>
        <pt x="303" y="0" on="1"/>
        <pt x="183" y="0" on="1"/>
        <pt x="183" y="1456" on="1"/>
        <pt x="303" y="1456" on="1"/>
        <pt x="303" y="1153" on="1"/>
        <pt x="627" y="1153" on="1"/>
      </contour>
      <contour>
        <pt x="745" y="426" on="0"/>
        <pt x="902" y="515" on="0"/>
        <pt x="976" y="656" on="0"/>
        <pt x="976" y="736" on="1"/>
        <pt x="976" y="819" on="0"/>
        <pt x="902" y="962" on="0"/>
        <pt x="745" y="1051" on="0"/>
        <pt x="627" y="1051" on="1"/>
        <pt x="303" y="1051" on="1"/>
        <pt x="303" y="426" on="1"/>
        <pt x="627" y="426" on="1"/>
      </contour>
    </TTGlyph>
    <TTGlyph name="Thorn.smcp" xMin="154" yMin="0" xMax="912" yMax="1165">
      <contour>
        <pt x="621" y="950" on="0"/>
        <pt x="813" y="861" on="0"/>
        <pt x="912" y="701" on="0"/>
        <pt x="912" y="595" on="1"/>
        <pt x="912" y="487" on="0"/>
        <pt x="814" y="331" on="0"/>
        <pt x="623" y="248" on="0"/>
        <pt x="486" y="248" on="1"/>
        <pt x="274" y="248" on="1"/>
        <pt x="274" y="0" on="1"/>
        <pt x="154" y="0" on="1"/>
        <pt x="154" y="1165" on="1"/>
        <pt x="274" y="1165" on="1"/>
        <pt x="274" y="950" on="1"/>
        <pt x="486" y="950" on="1"/>
      </contour>
      <contour>
        <pt x="641" y="351" on="0"/>
        <pt x="792" y="484" on="0"/>
        <pt x="792" y="594" on="1"/>
        <pt x="792" y="665" on="0"/>
        <pt x="727" y="780" on="0"/>
        <pt x="590" y="847" on="0"/>
        <pt x="486" y="847" on="1"/>
        <pt x="274" y="847" on="1"/>
        <pt x="274" y="351" on="1"/>
        <pt x="486" y="351" on="1"/>
      </contour>
    </TTGlyph>
    <TTGlyph name="U" xMin="163" yMin="-20" xMax="1187" yMax="1456">
      <contour>
        <pt x="1187" y="470" on="1"/>
        <pt x="1187" y="311" on="0"/>
        <pt x="1052" y="91" on="0"/>
        <pt x="819" y="-20" on="0"/>
        <pt x="674" y="-20" on="1"/>
        <pt x="526" y="-20" on="0"/>
        <pt x="295" y="90" on="0"/>
        <pt x="163" y="311" on="0"/>
        <pt x="163" y="470" on="1"/>
        <pt x="163" y="1456" on="1"/>
        <pt x="285" y="1456" on="1"/>
        <pt x="285" y="470" on="1"/>
        <pt x="285" y="346" on="0"/>
        <pt x="384" y="172" on="0"/>
        <pt x="560" y="84" on="0"/>
        <pt x="674" y="84" on="1"/>
        <pt x="789" y="84" on="0"/>
        <pt x="965" y="172" on="0"/>
        <pt x="1064" y="346" on="0"/>
        <pt x="1064" y="470" on="1"/>
        <pt x="1064" y="1456" on="1"/>
        <pt x="1187" y="1456" on="1"/>
      </contour>
    </TTGlyph>
    <TTGlyph name="U.smcp" xMin="137" yMin="-16" xMax="1025" yMax="1165">
      <contour>
        <pt x="1025" y="380" on="1"/>
        <pt x="1025" y="253" on="0"/>
        <pt x="908" y="74" on="0"/>
        <pt x="707" y="-16" on="0"/>
        <pt x="581" y="-16" on="1"/>
        <pt x="452" y="-16" on="0"/>
        <pt x="251" y="74" on="0"/>
        <pt x="137" y="252" on="0"/>
        <pt x="137" y="380" on="1"/>
        <pt x="137" y="1165" on="1"/>
        <pt x="255" y="1165" on="1"/>
        <pt x="255" y="380" on="1"/>
        <pt x="255" y="284" on="0"/>
        <pt x="338" y="152" on="0"/>
        <pt x="485" y="85" on="0"/>
        <pt x="581" y="85" on="1"/>
        <pt x="677" y="85" on="0"/>
        <pt x="823" y="152" on="0"/>
        <pt x="905" y="284" on="0"/>
        <pt x="905" y="380" on="1"/>
        <pt x="905" y="1165" on="1"/>
        <pt x="1025" y="1165" on="1"/>
      </contour>
    </TTGlyph>
    <TTGlyph name="Uacute" xMin="163" yMin="-20" xMax="1187" yMax="1851">
      <component glyphName=".ttfautohint" x="163" y="0" flags="0x0"/>
      <component glyphName="U" x="0" y="0" flags="0x0"/>
      <component glyphName="acutecomb" x="1229" y="315" flags="0x4"/>
    </TTGlyph>
    <TTGlyph name="Uacute.smcp" xMin="137" yMin="-16" xMax="1025" yMax="1564">
      <component glyphName=".ttfautohint" x="137" y="0" flags="0x0"/>
      <component glyphName="U.smcp" x="0" y="0" flags="0x0"/>
      <component glyphName="acutecomb" x="1134" y="28" flags="0x4"/>
    </TTGlyph>
    <TTGlyph name="Ucircumflex" xMin="163" yMin="-20" xMax="1187" yMax="1841">
      <component glyphName=".ttfautohint" x="163" y="0" flags="0x0"/>
      <component glyphName="U" x="0" y="0" flags="0x0"/>
      <component glyphName="circumflex" x="245" y="315" flags="0x4"/>
    </TTGlyph>
    <TTGlyph name="Ucircumflex.smcp" xMin="137" yMin="-16" xMax="1025" yMax="1554">
      <component glyphName=".ttfautohint" x="137" y="0" flags="0x0"/>
      <component glyphName="U.smcp" x="0" y="0" flags="0x0"/>
      <component glyphName="circumflex" x="150" y="28" flags="0x4"/>
    </TTGlyph>
    <TTGlyph name="Udieresis" xMin="163" yMin="-20" xMax="1187" yMax="1792">
      <component glyphName=".ttfautohint" x="163" y="0" flags="0x0"/>
      <component glyphName="U" x="0" y="0" flags="0x0"/>
      <component glyphName="dieresis" x="246" y="315" flags="0x4"/>
    </TTGlyph>
    <TTGlyph name="Udieresis.smcp" xMin="137" yMin="-16" xMax="1025" yMax="1505">
      <component glyphName=".ttfautohint" x="137" y="0" flags="0x0"/>
      <component glyphName="U.smcp" x="0" y="0" flags="0x0"/>
      <component glyphName="dieresis" x="151" y="28" flags="0x4"/>
    </TTGlyph>
    <TTGlyph name="Ugrave" xMin="163" yMin="-20" xMax="1187" yMax="1851">
      <component glyphName=".ttfautohint" x="163" y="0" flags="0x0"/>
      <component glyphName="U" x="0" y="0" flags="0x0"/>
      <component glyphName="gravecomb" x="1219" y="315" flags="0x4"/>
    </TTGlyph>
    <TTGlyph name="Ugrave.smcp" xMin="137" yMin="-16" xMax="1025" yMax="1564">
      <component glyphName=".ttfautohint" x="137" y="0" flags="0x0"/>
      <component glyphName="U.smcp" x="0" y="0" flags="0x0"/>
      <component glyphName="gravecomb" x="1124" y="28" flags="0x4"/>
    </TTGlyph>
    <TTGlyph name="V" xMin="32" yMin="0" xMax="1233" yMax="1456">
      <contour>
        <pt x="1233" y="1456" on="1"/>
        <pt x="691" y="0" on="1"/>
        <pt x="573" y="0" on="1"/>
        <pt x="32" y="1456" on="1"/>
        <pt x="166" y="1456" on="1"/>
        <pt x="623" y="181" on="1"/>
        <pt x="632" y="150" on="1"/>
        <pt x="640" y="181" on="1"/>
        <pt x="1099" y="1456" on="1"/>
      </contour>
    </TTGlyph>
    <TTGlyph name="V.smcp" xMin="25" yMin="0" xMax="1068" yMax="1165">
      <contour>
        <pt x="1068" y="1165" on="1"/>
        <pt x="605" y="0" on="1"/>
        <pt x="487" y="0" on="1"/>
        <pt x="25" y="1165" on="1"/>
        <pt x="154" y="1165" on="1"/>
        <pt x="521" y="213" on="1"/>
        <pt x="546" y="124" on="1"/>
        <pt x="572" y="212" on="1"/>
        <pt x="939" y="1165" on="1"/>
      </contour>
    </TTGlyph>
    <TTGlyph name="W" xMin="61" yMin="0" xMax="1783" yMax="1456">
      <contour>
        <pt x="1783" y="1456" on="1"/>
        <pt x="1411" y="0" on="1"/>
        <pt x="1293" y="0" on="1"/>
        <pt x="962" y="1139" on="1"/>
        <pt x="926" y="1284" on="1"/>
        <pt x="889" y="1139" on="1"/>
        <pt x="552" y="0" on="1"/>
        <pt x="434" y="0" on="1"/>
        <pt x="61" y="1456" on="1"/>
        <pt x="187" y="1456" on="1"/>
        <pt x="453" y="393" on="1"/>
        <pt x="499" y="167" on="1"/>
        <pt x="554" y="384" on="1"/>
        <pt x="870" y="1456" on="1"/>
        <pt x="981" y="1456" on="1"/>
        <pt x="1292" y="384" on="1"/>
        <pt x="1347" y="166" on="1"/>
        <pt x="1394" y="394" on="1"/>
        <pt x="1657" y="1456" on="1"/>
      </contour>
    </TTGlyph>
    <TTGlyph name="W.smcp" xMin="51" yMin="0" xMax="1531" yMax="1165">
      <contour>
        <pt x="1531" y="1165" on="1"/>
        <pt x="1215" y="0" on="1"/>
        <pt x="1098" y="0" on="1"/>
        <pt x="815" y="935" on="1"/>
        <pt x="793" y="1021" on="1"/>
        <pt x="772" y="935" on="1"/>
        <pt x="483" y="0" on="1"/>
        <pt x="367" y="0" on="1"/>
        <pt x="51" y="1165" on="1"/>
        <pt x="172" y="1165" on="1"/>
        <pt x="399" y="288" on="1"/>
        <pt x="431" y="136" on="1"/>
        <pt x="467" y="278" on="1"/>
        <pt x="738" y="1165" on="1"/>
        <pt x="849" y="1165" on="1"/>
        <pt x="1116" y="277" on="1"/>
        <pt x="1152" y="136" on="1"/>
        <pt x="1184" y="289" on="1"/>
        <pt x="1410" y="1165" on="1"/>
      </contour>
    </TTGlyph>
    <TTGlyph name="X" xMin="56" yMin="0" xMax="1199" yMax="1456">
      <contour>
        <pt x="1037" y="1456" on="1"/>
        <pt x="1184" y="1456" on="1"/>
        <pt x="702" y="739" on="1"/>
        <pt x="1199" y="0" on="1"/>
        <pt x="1052" y="0" on="1"/>
        <pt x="628" y="636" on="1"/>
        <pt x="202" y="0" on="1"/>
        <pt x="56" y="0" on="1"/>
        <pt x="553" y="739" on="1"/>
        <pt x="71" y="1456" on="1"/>
        <pt x="218" y="1456" on="1"/>
        <pt x="628" y="840" on="1"/>
      </contour>
    </TTGlyph>
    <TTGlyph name="X.smcp" xMin="42" yMin="0" xMax="1041" yMax="1165">
      <contour>
        <pt x="882" y="1165" on="1"/>
        <pt x="1026" y="1165" on="1"/>
        <pt x="613" y="590" on="1"/>
        <pt x="1041" y="0" on="1"/>
        <pt x="898" y="0" on="1"/>
        <pt x="540" y="496" on="1"/>
        <pt x="185" y="0" on="1"/>
        <pt x="42" y="0" on="1"/>
        <pt x="469" y="590" on="1"/>
        <pt x="55" y="1165" on="1"/>
        <pt x="198" y="1165" on="1"/>
        <pt x="539" y="683" on="1"/>
      </contour>
    </TTGlyph>
    <TTGlyph name="Y" xMin="24" yMin="0" xMax="1199" yMax="1456">
      <contour>
        <pt x="1056" y="1456" on="1"/>
        <pt x="1199" y="1456" on="1"/>
        <pt x="673" y="549" on="1"/>
        <pt x="673" y="0" on="1"/>
        <pt x="550" y="0" on="1"/>
        <pt x="550" y="549" on="1"/>
        <pt x="24" y="1456" on="1"/>
        <pt x="170" y="1456" on="1"/>
        <pt x="611" y="662" on="1"/>
      </contour>
    </TTGlyph>
    <TTGlyph name="Y.smcp" xMin="22" yMin="0" xMax="1036" yMax="1165">
      <contour>
        <pt x="587" y="422" on="1"/>
        <pt x="587" y="0" on="1"/>
        <pt x="467" y="0" on="1"/>
        <pt x="467" y="429" on="1"/>
        <pt x="22" y="1165" on="1"/>
        <pt x="158" y="1165" on="1"/>
        <pt x="529" y="530" on="1"/>
        <pt x="900" y="1165" on="1"/>
        <pt x="1036" y="1165" on="1"/>
      </contour>
    </TTGlyph>
    <TTGlyph name="Yacute" xMin="24" yMin="0" xMax="1199" yMax="1845">
      <component glyphName=".ttfautohint" x="24" y="0" flags="0x0"/>
      <component glyphName="Y" x="0" y="0" flags="0x0"/>
      <component glyphName="acutecomb" x="1160" y="309" flags="0x4"/>
    </TTGlyph>
    <TTGlyph name="Yacute.smcp" xMin="22" yMin="0" xMax="1036" yMax="1564">
      <component glyphName=".ttfautohint" x="22" y="0" flags="0x0"/>
      <component glyphName="Y.smcp" x="0" y="0" flags="0x0"/>
      <component glyphName="acutecomb" x="1075" y="28" flags="0x4"/>
    </TTGlyph>
    <TTGlyph name="Z" xMin="90" yMin="0" xMax="1138" yMax="1456">
      <contour>
        <pt x="1138" y="104" on="1"/>
        <pt x="1138" y="0" on="1"/>
        <pt x="90" y="0" on="1"/>
        <pt x="90" y="93" on="1"/>
        <pt x="956" y="1352" on="1"/>
        <pt x="117" y="1352" on="1"/>
        <pt x="117" y="1456" on="1"/>
        <pt x="1106" y="1456" on="1"/>
        <pt x="1106" y="1368" on="1"/>
        <pt x="239" y="104" on="1"/>
      </contour>
    </TTGlyph>
    <TTGlyph name="Z.smcp" xMin="76" yMin="0" xMax="982" yMax="1165">
      <contour>
        <pt x="982" y="102" on="1"/>
        <pt x="982" y="0" on="1"/>
        <pt x="76" y="0" on="1"/>
        <pt x="76" y="84" on="1"/>
        <pt x="802" y="1063" on="1"/>
        <pt x="97" y="1063" on="1"/>
        <pt x="97" y="1165" on="1"/>
        <pt x="956" y="1165" on="1"/>
        <pt x="956" y="1085" on="1"/>
        <pt x="229" y="102" on="1"/>
      </contour>
    </TTGlyph>
    <TTGlyph name="a" xMin="101" yMin="-20" xMax="968" yMax="1102">
      <contour>
        <pt x="935" y="167" on="0"/>
        <pt x="952" y="49" on="0"/>
        <pt x="968" y="13" on="1"/>
        <pt x="968" y="0" on="1"/>
        <pt x="840" y="0" on="1"/>
        <pt x="821" y="53" on="0"/>
        <pt x="816" y="151" on="1"/>
        <pt x="757" y="75" on="0"/>
        <pt x="570" y="-20" on="0"/>
        <pt x="450" y="-20" on="1"/>
        <pt x="346" y="-20" on="0"/>
        <pt x="188" y="59" on="0"/>
        <pt x="101" y="199" on="0"/>
        <pt x="101" y="287" on="1"/>
        <pt x="101" y="392" on="0"/>
        <pt x="220" y="547" on="0"/>
        <pt x="443" y="630" on="0"/>
        <pt x="594" y="630" on="1"/>
        <pt x="815" y="630" on="1"/>
        <pt x="815" y="752" on="1"/>
        <pt x="815" y="869" on="0"/>
        <pt x="670" y="1002" on="0"/>
        <pt x="536" y="1002" on="1"/>
        <pt x="454" y="1002" on="0"/>
        <pt x="321" y="943" on="0"/>
        <pt x="246" y="843" on="0"/>
        <pt x="246" y="783" on="1"/>
        <pt x="126" y="784" on="1"/>
        <pt x="126" y="865" on="0"/>
        <pt x="232" y="1012" on="0"/>
        <pt x="422" y="1102" on="0"/>
        <pt x="541" y="1102" on="1"/>
        <pt x="658" y="1102" on="0"/>
        <pt x="836" y="1023" on="0"/>
        <pt x="935" y="865" on="0"/>
        <pt x="935" y="750" on="1"/>
        <pt x="935" y="227" on="1"/>
      </contour>
      <contour>
        <pt x="588" y="86" on="0"/>
        <pt x="774" y="205" on="0"/>
        <pt x="815" y="299" on="1"/>
        <pt x="815" y="538" on="1"/>
        <pt x="610" y="538" on="1"/>
        <pt x="488" y="538" on="0"/>
        <pt x="313" y="480" on="0"/>
        <pt x="220" y="372" on="0"/>
        <pt x="220" y="297" on="1"/>
        <pt x="220" y="238" on="0"/>
        <pt x="280" y="142" on="0"/>
        <pt x="390" y="86" on="0"/>
        <pt x="463" y="86" on="1"/>
      </contour>
    </TTGlyph>
    <TTGlyph name="aacute" xMin="101" yMin="-20" xMax="968" yMax="1535">
      <component glyphName=".ttfautohint" x="101" y="0" flags="0x0"/>
      <component glyphName="a" x="0" y="0" flags="0x0"/>
      <component glyphName="acutecomb" x="1126" y="-1" flags="0x4"/>
    </TTGlyph>
    <TTGlyph name="acircumflex" xMin="101" yMin="-20" xMax="968" yMax="1525">
      <component glyphName=".ttfautohint" x="101" y="0" flags="0x0"/>
      <component glyphName="a" x="0" y="0" flags="0x0"/>
      <component glyphName="circumflex" x="142" y="-1" flags="0x4"/>
    </TTGlyph>
    <TTGlyph name="acute" xMin="125" yMin="1257" xMax="461" yMax="1536">
      <contour>
        <pt x="461" y="1536" on="1"/>
        <pt x="229" y="1257" on="1"/>
        <pt x="125" y="1257" on="1"/>
        <pt x="316" y="1536" on="1"/>
      </contour>
    </TTGlyph>
    <TTGlyph name="acutecomb" xMin="-616" yMin="1257" xMax="-280" yMax="1536">
      <contour>
        <pt x="-280" y="1536" on="1"/>
        <pt x="-511" y="1257" on="1"/>
        <pt x="-616" y="1257" on="1"/>
        <pt x="-425" y="1536" on="1"/>
      </contour>
    </TTGlyph>
    <TTGlyph name="adieresis" xMin="101" yMin="-20" xMax="968" yMax="1476">
      <component glyphName=".ttfautohint" x="101" y="0" flags="0x0"/>
      <component glyphName="a" x="0" y="0" flags="0x0"/>
      <component glyphName="dieresis" x="143" y="-1" flags="0x4"/>
    </TTGlyph>
    <TTGlyph name="ae" xMin="86" yMin="-20" xMax="1659" yMax="1103">
      <contour>
        <pt x="902" y="538" on="1"/>
        <pt x="902" y="510" on="1"/>
        <pt x="902" y="387" on="0"/>
        <pt x="980" y="194" on="0"/>
        <pt x="1143" y="81" on="0"/>
        <pt x="1265" y="81" on="1"/>
        <pt x="1451" y="81" on="0"/>
        <pt x="1589" y="200" on="1"/>
        <pt x="1636" y="112" on="1"/>
        <pt x="1497" y="-20" on="0"/>
        <pt x="1265" y="-20" on="1"/>
        <pt x="1130" y="-20" on="0"/>
        <pt x="928" y="89" on="0"/>
        <pt x="868" y="188" on="1"/>
        <pt x="836" y="134" on="0"/>
        <pt x="720" y="40" on="0"/>
        <pt x="549" y="-20" on="0"/>
        <pt x="441" y="-20" on="1"/>
        <pt x="328" y="-20" on="0"/>
        <pt x="169" y="57" on="0"/>
        <pt x="86" y="199" on="0"/>
        <pt x="86" y="294" on="1"/>
        <pt x="86" y="398" on="0"/>
        <pt x="186" y="551" on="0"/>
        <pt x="383" y="633" on="0"/>
        <pt x="525" y="633" on="1"/>
        <pt x="781" y="633" on="1"/>
        <pt x="781" y="720" on="1"/>
        <pt x="781" y="854" on="0"/>
        <pt x="652" y="1000" on="0"/>
        <pt x="528" y="1000" on="1"/>
        <pt x="438" y="1000" on="0"/>
        <pt x="304" y="938" on="0"/>
        <pt x="233" y="832" on="0"/>
        <pt x="233" y="766" on="1"/>
        <pt x="114" y="778" on="1"/>
        <pt x="114" y="871" on="0"/>
        <pt x="217" y="1019" on="0"/>
        <pt x="405" y="1102" on="0"/>
        <pt x="528" y="1102" on="1"/>
        <pt x="654" y="1102" on="0"/>
        <pt x="832" y="994" on="0"/>
        <pt x="871" y="890" on="1"/>
        <pt x="932" y="990" on="0"/>
        <pt x="1122" y="1103" on="0"/>
        <pt x="1236" y="1102" on="1"/>
        <pt x="1369" y="1102" on="0"/>
        <pt x="1559" y="990" on="0"/>
        <pt x="1659" y="781" on="0"/>
        <pt x="1659" y="638" on="1"/>
        <pt x="1659" y="538" on="1"/>
      </contour>
      <contour>
        <pt x="1144" y="1000" on="0"/>
        <pt x="1002" y="906" on="0"/>
        <pt x="917" y="741" on="0"/>
        <pt x="906" y="636" on="1"/>
        <pt x="1539" y="636" on="1"/>
        <pt x="1539" y="668" on="1"/>
        <pt x="1539" y="763" on="0"/>
        <pt x="1473" y="913" on="0"/>
        <pt x="1337" y="1000" on="0"/>
        <pt x="1236" y="1000" on="1"/>
      </contour>
      <contour>
        <pt x="523" y="80" on="0"/>
        <pt x="652" y="126" on="0"/>
        <pt x="754" y="198" on="0"/>
        <pt x="781" y="235" on="1"/>
        <pt x="781" y="536" on="1"/>
        <pt x="527" y="536" on="1"/>
        <pt x="423" y="536" on="0"/>
        <pt x="278" y="469" on="0"/>
        <pt x="206" y="358" on="0"/>
        <pt x="206" y="290" on="1"/>
        <pt x="206" y="194" on="0"/>
        <pt x="336" y="80" on="0"/>
        <pt x="458" y="80" on="1"/>
      </contour>
    </TTGlyph>
    <TTGlyph name="agrave" xMin="101" yMin="-20" xMax="968" yMax="1535">
      <component glyphName=".ttfautohint" x="101" y="0" flags="0x0"/>
      <component glyphName="a" x="0" y="0" flags="0x0"/>
      <component glyphName="gravecomb" x="1116" y="-1" flags="0x4"/>
    </TTGlyph>
    <TTGlyph name="alpha" xMin="111" yMin="-21" xMax="1146" yMax="1102">
      <contour>
        <pt x="1146" y="3" on="1"/>
        <pt x="1124" y="-11" on="0"/>
        <pt x="1078" y="-21" on="0"/>
        <pt x="1049" y="-21" on="1"/>
        <pt x="970" y="-21" on="0"/>
        <pt x="878" y="73" on="0"/>
        <pt x="865" y="176" on="1"/>
        <pt x="811" y="82" on="0"/>
        <pt x="640" y="-21" on="0"/>
        <pt x="524" y="-21" on="1"/>
        <pt x="396" y="-21" on="0"/>
        <pt x="209" y="111" on="0"/>
        <pt x="111" y="352" on="0"/>
        <pt x="111" y="511" on="1"/>
        <pt x="111" y="532" on="1"/>
        <pt x="111" y="703" on="0"/>
        <pt x="209" y="960" on="0"/>
        <pt x="396" y="1102" on="0"/>
        <pt x="526" y="1102" on="1"/>
        <pt x="642" y="1102" on="0"/>
        <pt x="810" y="996" on="0"/>
        <pt x="862" y="897" on="1"/>
        <pt x="876" y="1082" on="1"/>
        <pt x="978" y="1082" on="1"/>
        <pt x="978" y="275" on="1"/>
        <pt x="978" y="171" on="0"/>
        <pt x="1032" y="87" on="0"/>
        <pt x="1080" y="87" on="1"/>
        <pt x="1099" y="87" on="0"/>
        <pt x="1129" y="95" on="1"/>
      </contour>
      <contour>
        <pt x="768" y="81" on="0"/>
        <pt x="859" y="325" on="1"/>
        <pt x="859" y="735" on="1"/>
        <pt x="817" y="852" on="0"/>
        <pt x="666" y="1000" on="0"/>
        <pt x="549" y="1000" on="1"/>
        <pt x="443" y="1000" on="0"/>
        <pt x="301" y="878" on="0"/>
        <pt x="232" y="667" on="0"/>
        <pt x="232" y="532" on="1"/>
        <pt x="232" y="511" on="1"/>
        <pt x="232" y="316" on="0"/>
        <pt x="390" y="81" on="0"/>
        <pt x="547" y="81" on="1"/>
      </contour>
    </TTGlyph>
    <TTGlyph name="alpha.alt" xMin="111" yMin="-21" xMax="1077" yMax="1102">
      <contour>
        <pt x="959" y="0" on="1"/>
        <pt x="910" y="311" on="1"/>
        <pt x="865" y="158" on="0"/>
        <pt x="669" y="-21" on="0"/>
        <pt x="524" y="-21" on="1"/>
        <pt x="396" y="-21" on="0"/>
        <pt x="209" y="111" on="0"/>
        <pt x="111" y="352" on="0"/>
        <pt x="111" y="511" on="1"/>
        <pt x="111" y="532" on="1"/>
        <pt x="111" y="703" on="0"/>
        <pt x="209" y="960" on="0"/>
        <pt x="396" y="1102" on="0"/>
        <pt x="526" y="1102" on="1"/>
        <pt x="668" y="1102" on="0"/>
        <pt x="860" y="925" on="0"/>
        <pt x="907" y="770" on="1"/>
        <pt x="952" y="1082" on="1"/>
        <pt x="1070" y="1082" on="1"/>
        <pt x="973" y="540" on="1"/>
        <pt x="1077" y="0" on="1"/>
      </contour>
      <contour>
        <pt x="868" y="574" on="1"/>
        <pt x="852" y="681" on="0"/>
        <pt x="777" y="873" on="0"/>
        <pt x="644" y="1000" on="0"/>
        <pt x="549" y="1000" on="1"/>
        <pt x="443" y="1000" on="0"/>
        <pt x="301" y="878" on="0"/>
        <pt x="232" y="667" on="0"/>
        <pt x="232" y="532" on="1"/>
        <pt x="232" y="511" on="1"/>
        <pt x="232" y="316" on="0"/>
        <pt x="390" y="81" on="0"/>
        <pt x="547" y="81" on="1"/>
        <pt x="675" y="81" on="0"/>
        <pt x="839" y="312" on="0"/>
        <pt x="868" y="495" on="1"/>
      </contour>
    </TTGlyph>
    <TTGlyph name="ampersand" xMin="108" yMin="-20" xMax="1232" yMax="1477">
      <contour>
        <pt x="1087" y="0" on="1"/>
        <pt x="961" y="146" on="1"/>
        <pt x="881" y="68" on="0"/>
        <pt x="673" y="-20" on="0"/>
        <pt x="561" y="-20" on="1"/>
        <pt x="423" y="-20" on="0"/>
        <pt x="218" y="78" on="0"/>
        <pt x="108" y="255" on="0"/>
        <pt x="108" y="371" on="1"/>
        <pt x="108" y="454" on="0"/>
        <pt x="179" y="595" on="0"/>
        <pt x="299" y="716" on="0"/>
        <pt x="390" y="785" on="1"/>
        <pt x="404" y="796" on="1"/>
        <pt x="321" y="898" on="0"/>
        <pt x="239" y="1060" on="0"/>
        <pt x="239" y="1145" on="1"/>
        <pt x="239" y="1246" on="0"/>
        <pt x="321" y="1396" on="0"/>
        <pt x="472" y="1477" on="0"/>
        <pt x="573" y="1477" on="1"/>
        <pt x="668" y="1477" on="0"/>
        <pt x="809" y="1400" on="0"/>
        <pt x="884" y="1269" on="0"/>
        <pt x="884" y="1191" on="1"/>
        <pt x="884" y="1102" on="0"/>
        <pt x="776" y="952" on="0"/>
        <pt x="690" y="886" on="1"/>
        <pt x="558" y="785" on="1"/>
        <pt x="959" y="318" on="1"/>
        <pt x="1050" y="466" on="0"/>
        <pt x="1050" y="652" on="1"/>
        <pt x="1161" y="652" on="1"/>
        <pt x="1161" y="403" on="0"/>
        <pt x="1032" y="233" on="1"/>
        <pt x="1232" y="0" on="1"/>
      </contour>
      <contour>
        <pt x="359" y="1027" on="0"/>
        <pt x="493" y="862" on="1"/>
        <pt x="625" y="961" on="1"/>
        <pt x="695" y="1013" on="0"/>
        <pt x="771" y="1122" on="0"/>
        <pt x="771" y="1191" on="1"/>
        <pt x="771" y="1240" on="0"/>
        <pt x="724" y="1324" on="0"/>
        <pt x="635" y="1375" on="0"/>
        <pt x="573" y="1375" on="1"/>
        <pt x="505" y="1375" on="0"/>
        <pt x="409" y="1314" on="0"/>
        <pt x="359" y="1211" on="0"/>
        <pt x="359" y="1149" on="1"/>
      </contour>
      <contour>
        <pt x="652" y="82" on="0"/>
        <pt x="822" y="158" on="0"/>
        <pt x="890" y="229" on="1"/>
        <pt x="484" y="701" on="1"/>
        <pt x="470" y="717" on="1"/>
        <pt x="423" y="681" on="1"/>
        <pt x="308" y="587" on="0"/>
        <pt x="228" y="436" on="0"/>
        <pt x="228" y="371" on="1"/>
        <pt x="228" y="292" on="0"/>
        <pt x="302" y="161" on="0"/>
        <pt x="452" y="82" on="0"/>
        <pt x="561" y="82" on="1"/>
      </contour>
    </TTGlyph>
    <TTGlyph name="ampersand.smcp" xMin="121" yMin="-18" xMax="1161" yMax="1181">
      <contour>
        <pt x="1019" y="0" on="1"/>
        <pt x="898" y="123" on="1"/>
        <pt x="821" y="56" on="0"/>
        <pt x="618" y="-18" on="0"/>
        <pt x="499" y="-18" on="1"/>
        <pt x="384" y="-18" on="0"/>
        <pt x="213" y="56" on="0"/>
        <pt x="121" y="189" on="0"/>
        <pt x="121" y="275" on="1"/>
        <pt x="121" y="369" on="0"/>
        <pt x="214" y="503" on="0"/>
        <pt x="311" y="573" on="1"/>
        <pt x="395" y="634" on="1"/>
        <pt x="333" y="697" on="0"/>
        <pt x="262" y="783" on="0"/>
        <pt x="221" y="876" on="0"/>
        <pt x="221" y="929" on="1"/>
        <pt x="221" y="1003" on="0"/>
        <pt x="292" y="1117" on="0"/>
        <pt x="423" y="1181" on="0"/>
        <pt x="509" y="1181" on="1"/>
        <pt x="596" y="1181" on="0"/>
        <pt x="725" y="1115" on="0"/>
        <pt x="793" y="1004" on="0"/>
        <pt x="793" y="937" on="1"/>
        <pt x="793" y="868" on="0"/>
        <pt x="707" y="740" on="0"/>
        <pt x="646" y="696" on="1"/>
        <pt x="549" y="625" on="1"/>
        <pt x="894" y="273" on="1"/>
        <pt x="982" y="397" on="0"/>
        <pt x="982" y="565" on="1"/>
        <pt x="1094" y="565" on="1"/>
        <pt x="1094" y="463" on="0"/>
        <pt x="1028" y="276" on="0"/>
        <pt x="967" y="198" on="1"/>
        <pt x="1161" y="0" on="1"/>
      </contour>
      <contour>
        <pt x="339" y="872" on="0"/>
        <pt x="407" y="770" on="0"/>
        <pt x="480" y="696" on="1"/>
        <pt x="572" y="763" on="1"/>
        <pt x="621" y="798" on="0"/>
        <pt x="675" y="885" on="0"/>
        <pt x="675" y="931" on="1"/>
        <pt x="675" y="971" on="0"/>
        <pt x="635" y="1038" on="0"/>
        <pt x="558" y="1078" on="0"/>
        <pt x="505" y="1078" on="1"/>
        <pt x="453" y="1078" on="0"/>
        <pt x="378" y="1035" on="0"/>
        <pt x="339" y="964" on="0"/>
        <pt x="339" y="923" on="1"/>
      </contour>
      <contour>
        <pt x="600" y="85" on="0"/>
        <pt x="762" y="143" on="0"/>
        <pt x="825" y="198" on="1"/>
        <pt x="465" y="564" on="1"/>
        <pt x="373" y="497" on="1"/>
        <pt x="293" y="438" on="0"/>
        <pt x="240" y="340" on="0"/>
        <pt x="240" y="287" on="1"/>
        <pt x="240" y="230" on="0"/>
        <pt x="299" y="139" on="0"/>
        <pt x="420" y="85" on="0"/>
        <pt x="507" y="85" on="1"/>
      </contour>
    </TTGlyph>
    <TTGlyph name="aring" xMin="101" yMin="-20" xMax="968" yMax="1591">
      <component glyphName=".ttfautohint" x="101" y="0" flags="0x0"/>
      <component glyphName="a" x="0" y="0" flags="0x0"/>
      <component glyphName="ring" x="269" y="5" flags="0x4"/>
    </TTGlyph>
    <TTGlyph name="asciicircum" xMin="78" yMin="729" xMax="765" yMax="1456">
      <contour>
        <pt x="649" y="729" on="1"/>
        <pt x="421" y="1298" on="1"/>
        <pt x="193" y="729" on="1"/>
        <pt x="78" y="729" on="1"/>
        <pt x="377" y="1456" on="1"/>
        <pt x="466" y="1456" on="1"/>
        <pt x="765" y="729" on="1"/>
      </contour>
    </TTGlyph>
    <TTGlyph name="asciitilde" xMin="146" yMin="423" xMax="1255" yMax="788">
      <contour>
        <pt x="1255" y="672" on="0"/>
        <pt x="1183" y="516" on="0"/>
        <pt x="1048" y="423" on="0"/>
        <pt x="958" y="423" on="1"/>
        <pt x="901" y="423" on="0"/>
        <pt x="806" y="455" on="0"/>
        <pt x="719" y="516" on="0"/>
        <pt x="660" y="568" on="1"/>
        <pt x="592" y="630" on="0"/>
        <pt x="498" y="681" on="0"/>
        <pt x="441" y="681" on="1"/>
        <pt x="352" y="681" on="0"/>
        <pt x="254" y="561" on="0"/>
        <pt x="254" y="450" on="1"/>
        <pt x="146" y="449" on="1"/>
        <pt x="146" y="544" on="0"/>
        <pt x="216" y="699" on="0"/>
        <pt x="350" y="788" on="0"/>
        <pt x="441" y="788" on="1"/>
        <pt x="524" y="788" on="0"/>
        <pt x="655" y="719" on="0"/>
        <pt x="740" y="643" on="1"/>
        <pt x="808" y="581" on="0"/>
        <pt x="903" y="530" on="0"/>
        <pt x="958" y="530" on="1"/>
        <pt x="1048" y="530" on="0"/>
        <pt x="1150" y="657" on="0"/>
        <pt x="1150" y="765" on="1"/>
        <pt x="1255" y="765" on="1"/>
      </contour>
    </TTGlyph>
    <TTGlyph name="asterisk" xMin="29" yMin="637" xMax="843" yMax="1456">
      <contour>
        <pt x="29" y="1108" on="1"/>
        <pt x="62" y="1209" on="1"/>
        <pt x="393" y="1087" on="1"/>
        <pt x="389" y="1456" on="1"/>
        <pt x="494" y="1456" on="1"/>
        <pt x="485" y="1084" on="1"/>
        <pt x="810" y="1211" on="1"/>
        <pt x="843" y="1109" on="1"/>
        <pt x="509" y="995" on="1"/>
        <pt x="733" y="700" on="1"/>
        <pt x="647" y="637" on="1"/>
        <pt x="433" y="943" on="1"/>
        <pt x="229" y="639" on="1"/>
        <pt x="144" y="700" on="1"/>
        <pt x="362" y="1001" on="1"/>
      </contour>
    </TTGlyph>
    <TTGlyph name="at" xMin="121" yMin="-453" xMax="1752" yMax="1421">
      <contour>
        <pt x="1236" y="1421" on="0"/>
        <pt x="1580" y="1218" on="0"/>
        <pt x="1752" y="841" on="0"/>
        <pt x="1752" y="580" on="1"/>
        <pt x="1752" y="536" on="0"/>
        <pt x="1751" y="513" on="1"/>
        <pt x="1746" y="378" on="0"/>
        <pt x="1661" y="135" on="0"/>
        <pt x="1489" y="-20" on="0"/>
        <pt x="1362" y="-20" on="1"/>
        <pt x="1266" y="-20" on="0"/>
        <pt x="1143" y="83" on="0"/>
        <pt x="1123" y="176" on="1"/>
        <pt x="1069" y="80" on="0"/>
        <pt x="915" y="-20" on="0"/>
        <pt x="824" y="-20" on="1"/>
        <pt x="740" y="-20" on="0"/>
        <pt x="621" y="70" on="0"/>
        <pt x="560" y="236" on="0"/>
        <pt x="560" y="348" on="1"/>
        <pt x="560" y="373" on="0"/>
        <pt x="564" y="427" on="1"/>
        <pt x="579" y="595" on="0"/>
        <pt x="703" y="850" on="0"/>
        <pt x="891" y="989" on="0"/>
        <pt x="999" y="989" on="1"/>
        <pt x="1062" y="989" on="0"/>
        <pt x="1156" y="961" on="0"/>
        <pt x="1223" y="918" on="0"/>
        <pt x="1268" y="881" on="1"/>
        <pt x="1218" y="311" on="1"/>
        <pt x="1216" y="279" on="0"/>
        <pt x="1216" y="266" on="1"/>
        <pt x="1216" y="151" on="0"/>
        <pt x="1312" y="66" on="0"/>
        <pt x="1374" y="66" on="1"/>
        <pt x="1460" y="66" on="0"/>
        <pt x="1584" y="182" on="0"/>
        <pt x="1653" y="384" on="0"/>
        <pt x="1658" y="513" on="1"/>
        <pt x="1660" y="567" on="0"/>
        <pt x="1660" y="593" on="1"/>
        <pt x="1660" y="945" on="0"/>
        <pt x="1324" y="1327" on="0"/>
        <pt x="981" y="1327" on="1"/>
        <pt x="768" y="1327" on="0"/>
        <pt x="432" y="1117" on="0"/>
        <pt x="234" y="732" on="0"/>
        <pt x="222" y="478" on="1"/>
        <pt x="220" y="434" on="0"/>
        <pt x="220" y="413" on="1"/>
        <pt x="220" y="181" on="0"/>
        <pt x="381" y="-170" on="0"/>
        <pt x="689" y="-364" on="0"/>
        <pt x="903" y="-364" on="1"/>
        <pt x="992" y="-364" on="0"/>
        <pt x="1172" y="-321" on="0"/>
        <pt x="1234" y="-285" on="1"/>
        <pt x="1264" y="-364" on="1"/>
        <pt x="1200" y="-406" on="0"/>
        <pt x="995" y="-453" on="0"/>
        <pt x="899" y="-453" on="1"/>
        <pt x="657" y="-453" on="0"/>
        <pt x="307" y="-243" on="0"/>
        <pt x="121" y="148" on="0"/>
        <pt x="121" y="416" on="1"/>
        <pt x="121" y="457" on="0"/>
        <pt x="122" y="478" on="1"/>
        <pt x="134" y="757" on="0"/>
        <pt x="355" y="1184" on="0"/>
        <pt x="737" y="1421" on="0"/>
        <pt x="985" y="1421" on="1"/>
      </contour>
      <contour>
        <pt x="928" y="78" on="0"/>
        <pt x="1072" y="194" on="0"/>
        <pt x="1119" y="332" on="1"/>
        <pt x="1164" y="848" on="1"/>
        <pt x="1097" y="898" on="0"/>
        <pt x="1005" y="898" on="1"/>
        <pt x="923" y="898" on="0"/>
        <pt x="782" y="793" on="0"/>
        <pt x="686" y="581" on="0"/>
        <pt x="671" y="427" on="1"/>
        <pt x="667" y="390" on="0"/>
        <pt x="667" y="347" on="1"/>
        <pt x="667" y="222" on="0"/>
        <pt x="759" y="78" on="0"/>
        <pt x="846" y="78" on="1"/>
      </contour>
    </TTGlyph>
    <TTGlyph name="atilde" xMin="101" yMin="-20" xMax="968" yMax="1501">
      <component glyphName=".ttfautohint" x="101" y="0" flags="0x0"/>
      <component glyphName="a" x="0" y="0" flags="0x0"/>
      <component glyphName="tilde" x="141" y="9" flags="0x4"/>
    </TTGlyph>
    <TTGlyph name="b" xMin="155" yMin="-20" xMax="1028" yMax="1536">
      <contour>
        <pt x="743" y="1102" on="0"/>
        <pt x="930" y="967" on="0"/>
        <pt x="1028" y="719" on="0"/>
        <pt x="1028" y="551" on="1"/>
        <pt x="1028" y="530" on="1"/>
        <pt x="1028" y="368" on="0"/>
        <pt x="930" y="119" on="0"/>
        <pt x="743" y="-20" on="0"/>
        <pt x="615" y="-20" on="1"/>
        <pt x="500" y="-20" on="0"/>
        <pt x="328" y="68" on="0"/>
        <pt x="273" y="149" on="1"/>
        <pt x="267" y="0" on="1"/>
        <pt x="155" y="0" on="1"/>
        <pt x="155" y="1536" on="1"/>
        <pt x="275" y="1536" on="1"/>
        <pt x="275" y="926" on="1"/>
        <pt x="390" y="1102" on="0"/>
        <pt x="613" y="1102" on="1"/>
      </contour>
      <contour>
        <pt x="907" y="551" on="1"/>
        <pt x="907" y="752" on="0"/>
        <pt x="750" y="998" on="0"/>
        <pt x="590" y="998" on="1"/>
        <pt x="466" y="998" on="0"/>
        <pt x="314" y="875" on="0"/>
        <pt x="275" y="777" on="1"/>
        <pt x="275" y="288" on="1"/>
        <pt x="315" y="195" on="0"/>
        <pt x="474" y="84" on="0"/>
        <pt x="592" y="84" on="1"/>
        <pt x="697" y="84" on="0"/>
        <pt x="839" y="199" on="0"/>
        <pt x="907" y="400" on="0"/>
        <pt x="907" y="530" on="1"/>
      </contour>
    </TTGlyph>
    <TTGlyph name="b.ss06" xMin="155" yMin="-21" xMax="1048" yMax="1536">
      <contour>
        <pt x="744" y="1102" on="0"/>
        <pt x="941" y="967" on="0"/>
        <pt x="1048" y="718" on="0"/>
        <pt x="1048" y="552" on="1"/>
        <pt x="1048" y="531" on="1"/>
        <pt x="1048" y="370" on="0"/>
        <pt x="940" y="119" on="0"/>
        <pt x="744" y="-21" on="0"/>
        <pt x="615" y="-21" on="1"/>
        <pt x="498" y="-21" on="0"/>
        <pt x="326" y="69" on="0"/>
        <pt x="270" y="153" on="1"/>
        <pt x="258" y="0" on="1"/>
        <pt x="155" y="0" on="1"/>
        <pt x="155" y="1536" on="1"/>
        <pt x="275" y="1536" on="1"/>
        <pt x="275" y="926" on="1"/>
        <pt x="390" y="1102" on="0"/>
        <pt x="613" y="1102" on="1"/>
      </contour>
      <contour>
        <pt x="927" y="552" on="1"/>
        <pt x="927" y="681" on="0"/>
        <pt x="849" y="883" on="0"/>
        <pt x="697" y="998" on="0"/>
        <pt x="590" y="998" on="1"/>
        <pt x="466" y="998" on="0"/>
        <pt x="314" y="875" on="0"/>
        <pt x="275" y="777" on="1"/>
        <pt x="275" y="288" on="1"/>
        <pt x="315" y="195" on="0"/>
        <pt x="474" y="84" on="0"/>
        <pt x="592" y="84" on="1"/>
        <pt x="698" y="84" on="0"/>
        <pt x="849" y="200" on="0"/>
        <pt x="927" y="403" on="0"/>
        <pt x="927" y="531" on="1"/>
      </contour>
    </TTGlyph>
    <TTGlyph name="backslash" xMin="49" yMin="-125" xMax="774" yMax="1456">
      <contour>
        <pt x="166" y="1456" on="1"/>
        <pt x="774" y="-125" on="1"/>
        <pt x="657" y="-125" on="1"/>
        <pt x="49" y="1456" on="1"/>
      </contour>
    </TTGlyph>
    <TTGlyph name="bar" xMin="178" yMin="-270" xMax="280" yMax="1456">
      <contour>
        <pt x="178" y="-270" on="1"/>
        <pt x="178" y="1456" on="1"/>
        <pt x="280" y="1456" on="1"/>
        <pt x="280" y="-270" on="1"/>
      </contour>
    </TTGlyph>
    <TTGlyph name="braceleft" xMin="69" yMin="-405" xMax="667" yMax="1597">
      <contour>
        <pt x="419" y="-85" on="0"/>
        <pt x="538" y="-282" on="0"/>
        <pt x="667" y="-325" on="1"/>
        <pt x="637" y="-405" on="1"/>
        <pt x="455" y="-351" on="0"/>
        <pt x="300" y="-112" on="0"/>
        <pt x="300" y="59" on="1"/>
        <pt x="300" y="285" on="1"/>
        <pt x="300" y="408" on="0"/>
        <pt x="187" y="543" on="0"/>
        <pt x="69" y="543" on="1"/>
        <pt x="69" y="648" on="1"/>
        <pt x="187" y="648" on="0"/>
        <pt x="300" y="783" on="0"/>
        <pt x="300" y="905" on="1"/>
        <pt x="300" y="1132" on="1"/>
        <pt x="300" y="1303" on="0"/>
        <pt x="455" y="1543" on="0"/>
        <pt x="637" y="1597" on="1"/>
        <pt x="664" y="1518" on="1"/>
        <pt x="536" y="1478" on="0"/>
        <pt x="419" y="1277" on="0"/>
        <pt x="419" y="1132" on="1"/>
        <pt x="419" y="905" on="1"/>
        <pt x="419" y="795" on="0"/>
        <pt x="330" y="633" on="0"/>
        <pt x="237" y="595" on="1"/>
        <pt x="329" y="557" on="0"/>
        <pt x="419" y="395" on="0"/>
        <pt x="419" y="285" on="1"/>
        <pt x="419" y="59" on="1"/>
      </contour>
    </TTGlyph>
    <TTGlyph name="braceright" xMin="10" yMin="-405" xMax="607" yMax="1597">
      <contour>
        <pt x="376" y="783" on="0"/>
        <pt x="489" y="648" on="0"/>
        <pt x="607" y="648" on="1"/>
        <pt x="607" y="543" on="1"/>
        <pt x="489" y="543" on="0"/>
        <pt x="376" y="408" on="0"/>
        <pt x="376" y="285" on="1"/>
        <pt x="376" y="59" on="1"/>
        <pt x="376" y="-113" on="0"/>
        <pt x="222" y="-351" on="0"/>
        <pt x="39" y="-405" on="1"/>
        <pt x="10" y="-325" on="1"/>
        <pt x="137" y="-282" on="0"/>
        <pt x="257" y="-84" on="0"/>
        <pt x="257" y="59" on="1"/>
        <pt x="257" y="285" on="1"/>
        <pt x="257" y="398" on="0"/>
        <pt x="352" y="559" on="0"/>
        <pt x="450" y="595" on="1"/>
        <pt x="352" y="631" on="0"/>
        <pt x="257" y="792" on="0"/>
        <pt x="257" y="905" on="1"/>
        <pt x="257" y="1132" on="1"/>
        <pt x="257" y="1277" on="0"/>
        <pt x="140" y="1478" on="0"/>
        <pt x="13" y="1518" on="1"/>
        <pt x="39" y="1597" on="1"/>
        <pt x="222" y="1543" on="0"/>
        <pt x="376" y="1304" on="0"/>
        <pt x="376" y="1132" on="1"/>
        <pt x="376" y="905" on="1"/>
      </contour>
    </TTGlyph>
    <TTGlyph name="bracketleft" xMin="164" yMin="-312" xMax="494" yMax="1664">
      <contour>
        <pt x="284" y="1562" on="1"/>
        <pt x="284" y="-210" on="1"/>
        <pt x="494" y="-210" on="1"/>
        <pt x="494" y="-312" on="1"/>
        <pt x="164" y="-312" on="1"/>
        <pt x="164" y="1664" on="1"/>
        <pt x="494" y="1664" on="1"/>
        <pt x="494" y="1562" on="1"/>
      </contour>
    </TTGlyph>
    <TTGlyph name="bracketright" xMin="1" yMin="-312" xMax="331" yMax="1664">
      <contour>
        <pt x="331" y="1664" on="1"/>
        <pt x="331" y="-312" on="1"/>
        <pt x="1" y="-312" on="1"/>
        <pt x="1" y="-210" on="1"/>
        <pt x="211" y="-210" on="1"/>
        <pt x="211" y="1562" on="1"/>
        <pt x="1" y="1562" on="1"/>
        <pt x="1" y="1664" on="1"/>
      </contour>
    </TTGlyph>
    <TTGlyph name="brokenbar" xMin="160" yMin="-270" xMax="280" yMax="1456">
      <contour>
        <pt x="160" y="698" on="1"/>
        <pt x="160" y="1456" on="1"/>
        <pt x="280" y="1456" on="1"/>
        <pt x="280" y="698" on="1"/>
      </contour>
      <contour>
        <pt x="160" y="501" on="1"/>
        <pt x="280" y="501" on="1"/>
        <pt x="280" y="-270" on="1"/>
        <pt x="160" y="-270" on="1"/>
      </contour>
    </TTGlyph>
    <TTGlyph name="bullet" xMin="147" yMin="541" xMax="518" yMax="931">
      <contour>
        <pt x="147" y="831" on="0"/>
        <pt x="247" y="931" on="0"/>
        <pt x="331" y="931" on="1"/>
        <pt x="388" y="931" on="0"/>
        <pt x="473" y="885" on="0"/>
        <pt x="518" y="804" on="0"/>
        <pt x="518" y="752" on="1"/>
        <pt x="518" y="717" on="1"/>
        <pt x="518" y="639" on="0"/>
        <pt x="417" y="541" on="0"/>
        <pt x="332" y="541" on="1"/>
        <pt x="248" y="541" on="0"/>
        <pt x="147" y="639" on="0"/>
        <pt x="147" y="717" on="1"/>
        <pt x="147" y="752" on="1"/>
      </contour>
    </TTGlyph>
    <TTGlyph name="c" xMin="95" yMin="-20" xMax="972" yMax="1102">
      <contour>
        <pt x="972" y="335" on="1"/>
        <pt x="967" y="234" on="0"/>
        <pt x="853" y="71" on="0"/>
        <pt x="666" y="-20" on="0"/>
        <pt x="557" y="-20" on="1"/>
        <pt x="409" y="-20" on="0"/>
        <pt x="201" y="121" on="0"/>
        <pt x="95" y="365" on="0"/>
        <pt x="95" y="520" on="1"/>
        <pt x="95" y="562" on="1"/>
        <pt x="95" y="716" on="0"/>
        <pt x="201" y="961" on="0"/>
        <pt x="409" y="1102" on="0"/>
        <pt x="555" y="1102" on="1"/>
        <pt x="671" y="1102" on="0"/>
        <pt x="857" y="1008" on="0"/>
        <pt x="967" y="833" on="0"/>
        <pt x="972" y="718" on="1"/>
        <pt x="858" y="718" on="1"/>
        <pt x="853" y="804" on="0"/>
        <pt x="772" y="931" on="0"/>
        <pt x="637" y="1000" on="0"/>
        <pt x="555" y="1000" on="1"/>
        <pt x="438" y="1000" on="0"/>
        <pt x="285" y="881" on="0"/>
        <pt x="214" y="683" on="0"/>
        <pt x="214" y="562" on="1"/>
        <pt x="214" y="520" on="1"/>
        <pt x="214" y="398" on="0"/>
        <pt x="284" y="201" on="0"/>
        <pt x="438" y="82" on="0"/>
        <pt x="557" y="82" on="1"/>
        <pt x="634" y="82" on="0"/>
        <pt x="767" y="141" on="0"/>
        <pt x="852" y="255" on="0"/>
        <pt x="858" y="335" on="1"/>
      </contour>
    </TTGlyph>
    <TTGlyph name="c.ss06" xMin="96" yMin="-21" xMax="985" yMax="1102">
      <contour>
        <pt x="985" y="335" on="1"/>
        <pt x="980" y="234" on="0"/>
        <pt x="865" y="71" on="0"/>
        <pt x="678" y="-21" on="0"/>
        <pt x="569" y="-21" on="1"/>
        <pt x="422" y="-21" on="0"/>
        <pt x="208" y="121" on="0"/>
        <pt x="96" y="366" on="0"/>
        <pt x="96" y="520" on="1"/>
        <pt x="96" y="562" on="1"/>
        <pt x="96" y="716" on="0"/>
        <pt x="208" y="961" on="0"/>
        <pt x="421" y="1102" on="0"/>
        <pt x="568" y="1102" on="1"/>
        <pt x="683" y="1102" on="0"/>
        <pt x="869" y="1008" on="0"/>
        <pt x="980" y="833" on="0"/>
        <pt x="985" y="718" on="1"/>
        <pt x="870" y="718" on="1"/>
        <pt x="865" y="804" on="0"/>
        <pt x="784" y="931" on="0"/>
        <pt x="650" y="1000" on="0"/>
        <pt x="568" y="1000" on="1"/>
        <pt x="450" y="1000" on="0"/>
        <pt x="292" y="880" on="0"/>
        <pt x="216" y="682" on="0"/>
        <pt x="216" y="562" on="1"/>
        <pt x="216" y="520" on="1"/>
        <pt x="216" y="399" on="0"/>
        <pt x="292" y="200" on="0"/>
        <pt x="450" y="81" on="0"/>
        <pt x="569" y="81" on="1"/>
        <pt x="646" y="81" on="0"/>
        <pt x="780" y="140" on="0"/>
        <pt x="865" y="255" on="0"/>
        <pt x="870" y="335" on="1"/>
      </contour>
    </TTGlyph>
    <TTGlyph name="ccedilla" xMin="95" yMin="-445" xMax="972" yMax="1102">
      <component glyphName=".ttfautohint" x="95" y="0" flags="0x0"/>
      <component glyphName="c" x="0" y="0" flags="0x0"/>
      <component glyphName="cedilla" x="344" y="-10" flags="0x4"/>
    </TTGlyph>
    <TTGlyph name="cedilla" xMin="99" yMin="-435" xMax="400" yMax="0">
      <contour>
        <pt x="235" y="-65" on="1"/>
        <pt x="307" y="-75" on="0"/>
        <pt x="400" y="-154" on="0"/>
        <pt x="400" y="-236" on="1"/>
        <pt x="400" y="-296" on="0"/>
        <pt x="331" y="-386" on="0"/>
        <pt x="198" y="-435" on="0"/>
        <pt x="106" y="-435" on="1"/>
        <pt x="99" y="-358" on="1"/>
        <pt x="181" y="-358" on="0"/>
        <pt x="300" y="-297" on="0"/>
        <pt x="300" y="-237" on="1"/>
        <pt x="300" y="-182" on="0"/>
        <pt x="219" y="-137" on="0"/>
        <pt x="125" y="-128" on="1"/>
        <pt x="153" y="0" on="1"/>
        <pt x="246" y="0" on="1"/>
      </contour>
    </TTGlyph>
    <TTGlyph name="cent" xMin="120" yMin="-245" xMax="997" yMax="1318">
      <contour>
        <pt x="659" y="82" on="0"/>
        <pt x="792" y="141" on="0"/>
        <pt x="877" y="255" on="0"/>
        <pt x="883" y="335" on="1"/>
        <pt x="997" y="335" on="1"/>
        <pt x="993" y="242" on="0"/>
        <pt x="895" y="90" on="0"/>
        <pt x="734" y="-6" on="0"/>
        <pt x="637" y="-17" on="1"/>
        <pt x="637" y="-245" on="1"/>
        <pt x="517" y="-245" on="1"/>
        <pt x="517" y="-16" on="1"/>
        <pt x="390" y="-1" on="0"/>
        <pt x="211" y="145" on="0"/>
        <pt x="120" y="377" on="0"/>
        <pt x="120" y="520" on="1"/>
        <pt x="120" y="562" on="1"/>
        <pt x="120" y="705" on="0"/>
        <pt x="211" y="937" on="0"/>
        <pt x="390" y="1083" on="0"/>
        <pt x="517" y="1098" on="1"/>
        <pt x="517" y="1318" on="1"/>
        <pt x="637" y="1318" on="1"/>
        <pt x="637" y="1099" on="1"/>
        <pt x="739" y="1087" on="0"/>
        <pt x="899" y="988" on="0"/>
        <pt x="993" y="824" on="0"/>
        <pt x="997" y="718" on="1"/>
        <pt x="883" y="718" on="1"/>
        <pt x="878" y="804" on="0"/>
        <pt x="797" y="931" on="0"/>
        <pt x="662" y="1000" on="0"/>
        <pt x="580" y="1000" on="1"/>
        <pt x="463" y="1000" on="0"/>
        <pt x="310" y="881" on="0"/>
        <pt x="239" y="683" on="0"/>
        <pt x="239" y="562" on="1"/>
        <pt x="239" y="520" on="1"/>
        <pt x="239" y="398" on="0"/>
        <pt x="309" y="201" on="0"/>
        <pt x="463" y="82" on="0"/>
        <pt x="582" y="82" on="1"/>
      </contour>
    </TTGlyph>
    <TTGlyph name="circumflex" xMin="161" yMin="1259" xMax="715" yMax="1526">
      <contour>
        <pt x="715" y="1259" on="1"/>
        <pt x="605" y="1259" on="1"/>
        <pt x="436" y="1442" on="1"/>
        <pt x="269" y="1259" on="1"/>
        <pt x="161" y="1259" on="1"/>
        <pt x="161" y="1271" on="1"/>
        <pt x="399" y="1526" on="1"/>
        <pt x="475" y="1526" on="1"/>
        <pt x="715" y="1269" on="1"/>
      </contour>
    </TTGlyph>
    <TTGlyph name="colon" xMin="127" yMin="-9" xMax="299" yMax="1079">
      <component glyphName=".ttfautohint" x="127" y="0" flags="0x0"/>
      <component glyphName="period" x="-19" y="0" flags="0x0"/>
      <component glyphName="period" x="-17" y="923" flags="0x4"/>
    </TTGlyph>
    <TTGlyph name="comma" xMin="61" yMin="-273" xMax="272" yMax="189">
      <contour>
        <pt x="272" y="-43" on="0"/>
        <pt x="197" y="-214" on="0"/>
        <pt x="132" y="-273" on="1"/>
        <pt x="61" y="-221" on="1"/>
        <pt x="109" y="-156" on="0"/>
        <pt x="154" y="-31" on="0"/>
        <pt x="154" y="46" on="1"/>
        <pt x="154" y="189" on="1"/>
        <pt x="272" y="189" on="1"/>
        <pt x="272" y="49" on="1"/>
      </contour>
    </TTGlyph>
    <TTGlyph name="copyright" xMin="107" yMin="-21" xMax="1527" yMax="1476">
      <contour>
        <pt x="1011" y="1476" on="0"/>
        <pt x="1336" y="1279" on="0"/>
        <pt x="1527" y="937" on="0"/>
        <pt x="1527" y="729" on="1"/>
        <pt x="1527" y="521" on="0"/>
        <pt x="1336" y="178" on="0"/>
        <pt x="1010" y="-21" on="0"/>
        <pt x="817" y="-21" on="1"/>
        <pt x="624" y="-21" on="0"/>
        <pt x="298" y="178" on="0"/>
        <pt x="107" y="521" on="0"/>
        <pt x="107" y="729" on="1"/>
        <pt x="107" y="936" on="0"/>
        <pt x="298" y="1279" on="0"/>
        <pt x="624" y="1476" on="0"/>
        <pt x="817" y="1476" on="1"/>
      </contour>
      <contour>
        <pt x="986" y="66" on="0"/>
        <pt x="1273" y="242" on="0"/>
        <pt x="1441" y="546" on="0"/>
        <pt x="1441" y="729" on="1"/>
        <pt x="1441" y="912" on="0"/>
        <pt x="1273" y="1215" on="0"/>
        <pt x="986" y="1390" on="0"/>
        <pt x="817" y="1390" on="1"/>
        <pt x="648" y="1390" on="0"/>
        <pt x="361" y="1215" on="0"/>
        <pt x="193" y="912" on="0"/>
        <pt x="193" y="729" on="1"/>
        <pt x="193" y="546" on="0"/>
        <pt x="361" y="242" on="0"/>
        <pt x="648" y="66" on="0"/>
        <pt x="817" y="66" on="1"/>
      </contour>
      <contour>
        <pt x="1122" y="453" on="0"/>
        <pt x="955" y="293" on="0"/>
        <pt x="807" y="293" on="1"/>
        <pt x="707" y="293" on="0"/>
        <pt x="556" y="390" on="0"/>
        <pt x="474" y="566" on="0"/>
        <pt x="474" y="680" on="1"/>
        <pt x="474" y="777" on="1"/>
        <pt x="474" y="891" on="0"/>
        <pt x="556" y="1066" on="0"/>
        <pt x="707" y="1164" on="0"/>
        <pt x="807" y="1164" on="1"/>
        <pt x="955" y="1164" on="0"/>
        <pt x="1123" y="1004" on="0"/>
        <pt x="1123" y="851" on="1"/>
        <pt x="1024" y="851" on="1"/>
        <pt x="1024" y="1074" on="0"/>
        <pt x="807" y="1074" on="1"/>
        <pt x="734" y="1074" on="0"/>
        <pt x="629" y="997" on="0"/>
        <pt x="574" y="863" on="0"/>
        <pt x="574" y="778" on="1"/>
        <pt x="574" y="680" on="1"/>
        <pt x="574" y="594" on="0"/>
        <pt x="629" y="460" on="0"/>
        <pt x="734" y="384" on="0"/>
        <pt x="807" y="384" on="1"/>
        <pt x="914" y="384" on="0"/>
        <pt x="1023" y="492" on="0"/>
        <pt x="1023" y="607" on="1"/>
        <pt x="1122" y="607" on="1"/>
      </contour>
    </TTGlyph>
    <TTGlyph name="crossbar" xMin="126" yMin="687" xMax="737" yMax="789">
      <contour>
        <pt x="126" y="687" on="1"/>
        <pt x="126" y="789" on="1"/>
        <pt x="737" y="789" on="1"/>
        <pt x="737" y="687" on="1"/>
      </contour>
    </TTGlyph>
    <TTGlyph name="currency" xMin="110" yMin="-27" xMax="1376" yMax="1265">
      <contour>
        <pt x="1335" y="500" on="0"/>
        <pt x="1272" y="305" on="0"/>
        <pt x="1214" y="225" on="1"/>
        <pt x="1376" y="60" on="1"/>
        <pt x="1289" y="-27" on="1"/>
        <pt x="1132" y="133" on="1"/>
        <pt x="1052" y="60" on="0"/>
        <pt x="851" y="-20" on="0"/>
        <pt x="740" y="-20" on="1"/>
        <pt x="630" y="-20" on="0"/>
        <pt x="429" y="60" on="0"/>
        <pt x="350" y="132" on="1"/>
        <pt x="195" y="-26" on="1"/>
        <pt x="110" y="60" on="1"/>
        <pt x="269" y="222" on="1"/>
        <pt x="210" y="302" on="0"/>
        <pt x="145" y="499" on="0"/>
        <pt x="145" y="608" on="1"/>
        <pt x="145" y="721" on="0"/>
        <pt x="214" y="924" on="0"/>
        <pt x="278" y="1006" on="1"/>
        <pt x="110" y="1178" on="1"/>
        <pt x="195" y="1264" on="1"/>
        <pt x="362" y="1094" on="1"/>
        <pt x="441" y="1161" on="0"/>
        <pt x="634" y="1234" on="0"/>
        <pt x="740" y="1234" on="1"/>
        <pt x="847" y="1234" on="0"/>
        <pt x="1042" y="1161" on="0"/>
        <pt x="1120" y="1093" on="1"/>
        <pt x="1289" y="1265" on="1"/>
        <pt x="1376" y="1178" on="1"/>
        <pt x="1205" y="1003" on="1"/>
        <pt x="1267" y="922" on="0"/>
        <pt x="1335" y="720" on="0"/>
        <pt x="1335" y="608" on="1"/>
      </contour>
      <contour>
        <pt x="870" y="91" on="0"/>
        <pt x="1091" y="230" on="0"/>
        <pt x="1221" y="467" on="0"/>
        <pt x="1221" y="608" on="1"/>
        <pt x="1221" y="748" on="0"/>
        <pt x="1091" y="985" on="0"/>
        <pt x="870" y="1123" on="0"/>
        <pt x="740" y="1123" on="1"/>
        <pt x="610" y="1123" on="0"/>
        <pt x="388" y="985" on="0"/>
        <pt x="258" y="748" on="0"/>
        <pt x="258" y="608" on="1"/>
        <pt x="258" y="467" on="0"/>
        <pt x="388" y="230" on="0"/>
        <pt x="610" y="91" on="0"/>
        <pt x="740" y="91" on="1"/>
      </contour>
    </TTGlyph>
    <TTGlyph name="d" xMin="109" yMin="-20" xMax="980" yMax="1536">
      <contour>
        <pt x="980" y="1536" on="1"/>
        <pt x="980" y="0" on="1"/>
        <pt x="868" y="0" on="1"/>
        <pt x="862" y="145" on="1"/>
        <pt x="807" y="66" on="0"/>
        <pt x="638" y="-20" on="0"/>
        <pt x="524" y="-20" on="1"/>
        <pt x="399" y="-20" on="0"/>
        <pt x="211" y="119" on="0"/>
        <pt x="109" y="369" on="0"/>
        <pt x="109" y="530" on="1"/>
        <pt x="109" y="551" on="1"/>
        <pt x="109" y="718" on="0"/>
        <pt x="210" y="967" on="0"/>
        <pt x="399" y="1102" on="0"/>
        <pt x="526" y="1102" on="1"/>
        <pt x="638" y="1102" on="0"/>
        <pt x="805" y="1013" on="0"/>
        <pt x="860" y="931" on="1"/>
        <pt x="860" y="1536" on="1"/>
      </contour>
      <contour>
        <pt x="662" y="84" on="0"/>
        <pt x="817" y="189" on="0"/>
        <pt x="860" y="279" on="1"/>
        <pt x="860" y="790" on="1"/>
        <pt x="820" y="883" on="0"/>
        <pt x="669" y="998" on="0"/>
        <pt x="549" y="998" on="1"/>
        <pt x="443" y="998" on="0"/>
        <pt x="299" y="882" on="0"/>
        <pt x="229" y="681" on="0"/>
        <pt x="229" y="551" on="1"/>
        <pt x="229" y="530" on="1"/>
        <pt x="229" y="401" on="0"/>
        <pt x="299" y="199" on="0"/>
        <pt x="441" y="84" on="0"/>
        <pt x="547" y="84" on="1"/>
      </contour>
    </TTGlyph>
    <TTGlyph name="d.ss06" xMin="96" yMin="-21" xMax="987" yMax="1536">
      <contour>
        <pt x="987" y="1536" on="1"/>
        <pt x="987" y="0" on="1"/>
        <pt x="880" y="0" on="1"/>
        <pt x="871" y="147" on="1"/>
        <pt x="816" y="66" on="0"/>
        <pt x="646" y="-21" on="0"/>
        <pt x="531" y="-21" on="1"/>
        <pt x="405" y="-21" on="0"/>
        <pt x="207" y="120" on="0"/>
        <pt x="96" y="370" on="0"/>
        <pt x="96" y="530" on="1"/>
        <pt x="96" y="551" on="1"/>
        <pt x="96" y="716" on="0"/>
        <pt x="207" y="966" on="0"/>
        <pt x="405" y="1102" on="0"/>
        <pt x="533" y="1102" on="1"/>
        <pt x="645" y="1102" on="0"/>
        <pt x="812" y="1013" on="0"/>
        <pt x="867" y="931" on="1"/>
        <pt x="867" y="1536" on="1"/>
      </contour>
      <contour>
        <pt x="669" y="84" on="0"/>
        <pt x="824" y="189" on="0"/>
        <pt x="867" y="279" on="1"/>
        <pt x="867" y="790" on="1"/>
        <pt x="827" y="883" on="0"/>
        <pt x="676" y="998" on="0"/>
        <pt x="556" y="998" on="1"/>
        <pt x="449" y="998" on="0"/>
        <pt x="295" y="883" on="0"/>
        <pt x="216" y="680" on="0"/>
        <pt x="216" y="551" on="1"/>
        <pt x="216" y="530" on="1"/>
        <pt x="216" y="403" on="0"/>
        <pt x="295" y="200" on="0"/>
        <pt x="448" y="84" on="0"/>
        <pt x="554" y="84" on="1"/>
      </contour>
    </TTGlyph>
    <TTGlyph name="degree" xMin="143" yMin="980" xMax="630" yMax="1476">
      <contour>
        <pt x="454" y="1476" on="0"/>
        <pt x="565" y="1408" on="0"/>
        <pt x="630" y="1294" on="0"/>
        <pt x="630" y="1227" on="1"/>
        <pt x="630" y="1159" on="0"/>
        <pt x="565" y="1046" on="0"/>
        <pt x="454" y="980" on="0"/>
        <pt x="389" y="980" on="1"/>
        <pt x="322" y="980" on="0"/>
        <pt x="209" y="1046" on="0"/>
        <pt x="143" y="1159" on="0"/>
        <pt x="143" y="1227" on="1"/>
        <pt x="143" y="1294" on="0"/>
        <pt x="210" y="1408" on="0"/>
        <pt x="323" y="1476" on="0"/>
        <pt x="389" y="1476" on="1"/>
      </contour>
      <contour>
        <pt x="432" y="1071" on="0"/>
        <pt x="501" y="1111" on="0"/>
        <pt x="541" y="1183" on="0"/>
        <pt x="541" y="1227" on="1"/>
        <pt x="541" y="1272" on="0"/>
        <pt x="501" y="1345" on="0"/>
        <pt x="432" y="1386" on="0"/>
        <pt x="389" y="1386" on="1"/>
        <pt x="346" y="1386" on="0"/>
        <pt x="275" y="1344" on="0"/>
        <pt x="233" y="1272" on="0"/>
        <pt x="233" y="1227" on="1"/>
        <pt x="233" y="1183" on="0"/>
        <pt x="274" y="1112" on="0"/>
        <pt x="346" y="1071" on="0"/>
        <pt x="389" y="1071" on="1"/>
      </contour>
    </TTGlyph>
    <TTGlyph name="dieresis" xMin="138" yMin="1317" xMax="740" yMax="1477">
      <contour>
        <pt x="258" y="1477" on="0"/>
        <pt x="303" y="1432" on="0"/>
        <pt x="303" y="1397" on="1"/>
        <pt x="303" y="1363" on="0"/>
        <pt x="258" y="1317" on="0"/>
        <pt x="220" y="1317" on="1"/>
        <pt x="182" y="1317" on="0"/>
        <pt x="138" y="1362" on="0"/>
        <pt x="138" y="1397" on="1"/>
        <pt x="138" y="1432" on="0"/>
        <pt x="182" y="1477" on="0"/>
        <pt x="220" y="1477" on="1"/>
      </contour>
      <contour>
        <pt x="695" y="1477" on="0"/>
        <pt x="740" y="1431" on="0"/>
        <pt x="740" y="1396" on="1"/>
        <pt x="740" y="1361" on="0"/>
        <pt x="695" y="1317" on="0"/>
        <pt x="657" y="1317" on="1"/>
        <pt x="620" y="1317" on="0"/>
        <pt x="575" y="1362" on="0"/>
        <pt x="575" y="1396" on="1"/>
        <pt x="575" y="1431" on="0"/>
        <pt x="620" y="1477" on="0"/>
        <pt x="657" y="1477" on="1"/>
      </contour>
    </TTGlyph>
    <TTGlyph name="divide" xMin="72" yMin="210" xMax="1070" yMax="1172">
      <contour>
        <pt x="619" y="1172" on="0"/>
        <pt x="666" y="1124" on="0"/>
        <pt x="666" y="1088" on="1"/>
        <pt x="666" y="1053" on="0"/>
        <pt x="619" y="1007" on="0"/>
        <pt x="580" y="1007" on="1"/>
        <pt x="541" y="1007" on="0"/>
        <pt x="495" y="1053" on="0"/>
        <pt x="495" y="1088" on="1"/>
        <pt x="495" y="1124" on="0"/>
        <pt x="541" y="1172" on="0"/>
        <pt x="580" y="1172" on="1"/>
      </contour>
      <contour>
        <pt x="72" y="644" on="1"/>
        <pt x="72" y="761" on="1"/>
        <pt x="1070" y="761" on="1"/>
        <pt x="1070" y="644" on="1"/>
      </contour>
      <contour>
        <pt x="619" y="375" on="0"/>
        <pt x="666" y="327" on="0"/>
        <pt x="666" y="292" on="1"/>
        <pt x="666" y="257" on="0"/>
        <pt x="619" y="210" on="0"/>
        <pt x="580" y="210" on="1"/>
        <pt x="541" y="210" on="0"/>
        <pt x="495" y="257" on="0"/>
        <pt x="495" y="292" on="1"/>
        <pt x="495" y="328" on="0"/>
        <pt x="541" y="375" on="0"/>
        <pt x="580" y="375" on="1"/>
      </contour>
    </TTGlyph>
    <TTGlyph name="dollar" xMin="116" yMin="-208" xMax="1021" yMax="1677">
      <contour>
        <pt x="1021" y="251" on="0"/>
        <pt x="927" y="86" on="0"/>
        <pt x="755" y="-9" on="0"/>
        <pt x="638" y="-19" on="1"/>
        <pt x="638" y="-208" on="1"/>
        <pt x="536" y="-208" on="1"/>
        <pt x="536" y="-20" on="1"/>
        <pt x="421" y="-12" on="0"/>
        <pt x="232" y="81" on="0"/>
        <pt x="116" y="273" on="0"/>
        <pt x="116" y="419" on="1"/>
        <pt x="235" y="419" on="1"/>
        <pt x="235" y="298" on="0"/>
        <pt x="336" y="148" on="0"/>
        <pt x="492" y="85" on="0"/>
        <pt x="581" y="85" on="1"/>
        <pt x="679" y="85" on="0"/>
        <pt x="825" y="158" on="0"/>
        <pt x="902" y="282" on="0"/>
        <pt x="902" y="359" on="1"/>
        <pt x="902" y="434" on="0"/>
        <pt x="840" y="543" on="0"/>
        <pt x="699" y="631" on="0"/>
        <pt x="575" y="674" on="1"/>
        <pt x="438" y="718" on="0"/>
        <pt x="262" y="823" on="0"/>
        <pt x="167" y="980" on="0"/>
        <pt x="167" y="1095" on="1"/>
        <pt x="167" y="1203" on="0"/>
        <pt x="258" y="1368" on="0"/>
        <pt x="426" y="1466" on="0"/>
        <pt x="539" y="1475" on="1"/>
        <pt x="539" y="1677" on="1"/>
        <pt x="641" y="1677" on="1"/>
        <pt x="641" y="1475" on="1"/>
        <pt x="817" y="1459" on="0"/>
        <pt x="1011" y="1229" on="0"/>
        <pt x="1011" y="1028" on="1"/>
        <pt x="892" y="1028" on="1"/>
        <pt x="892" y="1128" on="0"/>
        <pt x="821" y="1283" on="0"/>
        <pt x="684" y="1371" on="0"/>
        <pt x="588" y="1371" on="1"/>
        <pt x="489" y="1371" on="0"/>
        <pt x="353" y="1298" on="0"/>
        <pt x="287" y="1174" on="0"/>
        <pt x="287" y="1098" on="1"/>
        <pt x="287" y="1021" on="0"/>
        <pt x="342" y="914" on="0"/>
        <pt x="484" y="825" on="0"/>
        <pt x="616" y="781" on="1"/>
        <pt x="753" y="735" on="0"/>
        <pt x="926" y="632" on="0"/>
        <pt x="1021" y="476" on="0"/>
        <pt x="1021" y="361" on="1"/>
      </contour>
    </TTGlyph>
    <TTGlyph name="dollar.smcp" xMin="75" yMin="-237" xMax="979" yMax="1395">
      <contour>
        <pt x="979" y="203" on="0"/>
        <pt x="882" y="70" on="0"/>
        <pt x="709" y="-7" on="0"/>
        <pt x="596" y="-14" on="1"/>
        <pt x="596" y="-237" on="1"/>
        <pt x="494" y="-237" on="1"/>
        <pt x="494" y="-14" on="1"/>
        <pt x="382" y="-6" on="0"/>
        <pt x="192" y="75" on="0"/>
        <pt x="75" y="228" on="0"/>
        <pt x="75" y="339" on="1"/>
        <pt x="194" y="339" on="1"/>
        <pt x="194" y="250" on="0"/>
        <pt x="295" y="135" on="0"/>
        <pt x="454" y="84" on="0"/>
        <pt x="546" y="84" on="1"/>
        <pt x="641" y="84" on="0"/>
        <pt x="782" y="136" on="0"/>
        <pt x="859" y="229" on="0"/>
        <pt x="859" y="290" on="1"/>
        <pt x="859" y="351" on="0"/>
        <pt x="798" y="438" on="0"/>
        <pt x="657" y="506" on="0"/>
        <pt x="533" y="536" on="1"/>
        <pt x="396" y="570" on="0"/>
        <pt x="214" y="656" on="0"/>
        <pt x="115" y="784" on="0"/>
        <pt x="115" y="876" on="1"/>
        <pt x="115" y="961" on="0"/>
        <pt x="211" y="1094" on="0"/>
        <pt x="382" y="1173" on="0"/>
        <pt x="494" y="1180" on="1"/>
        <pt x="494" y="1395" on="1"/>
        <pt x="596" y="1395" on="1"/>
        <pt x="596" y="1179" on="1"/>
        <pt x="709" y="1169" on="0"/>
        <pt x="879" y="1073" on="0"/>
        <pt x="971" y="922" on="0"/>
        <pt x="971" y="831" on="1"/>
        <pt x="852" y="831" on="1"/>
        <pt x="852" y="903" on="0"/>
        <pt x="778" y="1015" on="0"/>
        <pt x="636" y="1079" on="0"/>
        <pt x="538" y="1079" on="1"/>
        <pt x="442" y="1079" on="0"/>
        <pt x="304" y="1025" on="0"/>
        <pt x="234" y="934" on="0"/>
        <pt x="234" y="878" on="1"/>
        <pt x="234" y="823" on="0"/>
        <pt x="297" y="741" on="0"/>
        <pt x="442" y="673" on="0"/>
        <pt x="568" y="642" on="1"/>
        <pt x="772" y="591" on="0"/>
        <pt x="979" y="429" on="0"/>
        <pt x="979" y="291" on="1"/>
      </contour>
    </TTGlyph>
    <TTGlyph name="dotlessi" xMin="168" yMin="0" xMax="288" yMax="1082">
      <contour>
        <pt x="168" y="0" on="1"/>
        <pt x="168" y="1082" on="1"/>
        <pt x="288" y="1082" on="1"/>
        <pt x="288" y="0" on="1"/>
      </contour>
    </TTGlyph>
    <TTGlyph name="e" xMin="90" yMin="-20" xMax="982" yMax="1102">
      <contour>
        <pt x="210" y="534" on="1"/>
        <pt x="210" y="511" on="1"/>
        <pt x="210" y="392" on="0"/>
        <pt x="304" y="195" on="0"/>
        <pt x="472" y="81" on="0"/>
        <pt x="580" y="81" on="1"/>
        <pt x="677" y="81" on="0"/>
        <pt x="825" y="152" on="0"/>
        <pt x="883" y="229" on="1"/>
        <pt x="959" y="172" on="1"/>
        <pt x="900" y="85" on="0"/>
        <pt x="711" y="-20" on="0"/>
        <pt x="575" y="-20" on="1"/>
        <pt x="436" y="-20" on="0"/>
        <pt x="215" y="116" on="0"/>
        <pt x="90" y="358" on="0"/>
        <pt x="90" y="511" on="1"/>
        <pt x="90" y="554" on="1"/>
        <pt x="90" y="716" on="0"/>
        <pt x="217" y="966" on="0"/>
        <pt x="430" y="1102" on="0"/>
        <pt x="554" y="1102" on="1"/>
        <pt x="688" y="1102" on="0"/>
        <pt x="882" y="976" on="0"/>
        <pt x="982" y="752" on="0"/>
        <pt x="982" y="607" on="1"/>
        <pt x="982" y="534" on="1"/>
      </contour>
      <contour>
        <pt x="464" y="1000" on="0"/>
        <pt x="319" y="910" on="0"/>
        <pt x="228" y="745" on="0"/>
        <pt x="215" y="636" on="1"/>
        <pt x="862" y="636" on="1"/>
        <pt x="862" y="649" on="1"/>
        <pt x="860" y="743" on="0"/>
        <pt x="789" y="903" on="0"/>
        <pt x="651" y="1000" on="0"/>
        <pt x="554" y="1000" on="1"/>
      </contour>
    </TTGlyph>
    <TTGlyph name="e.ss07" xMin="90" yMin="-21" xMax="982" yMax="1102">
      <contour>
        <pt x="210" y="534" on="1"/>
        <pt x="210" y="510" on="1"/>
        <pt x="210" y="392" on="0"/>
        <pt x="308" y="196" on="0"/>
        <pt x="485" y="81" on="0"/>
        <pt x="598" y="81" on="1"/>
        <pt x="688" y="81" on="0"/>
        <pt x="836" y="137" on="0"/>
        <pt x="899" y="192" on="1"/>
        <pt x="942" y="109" on="1"/>
        <pt x="810" y="-21" on="0"/>
        <pt x="593" y="-21" on="1"/>
        <pt x="448" y="-21" on="0"/>
        <pt x="219" y="116" on="0"/>
        <pt x="90" y="358" on="0"/>
        <pt x="90" y="510" on="1"/>
        <pt x="90" y="564" on="1"/>
        <pt x="90" y="723" on="0"/>
        <pt x="217" y="968" on="0"/>
        <pt x="430" y="1102" on="0"/>
        <pt x="554" y="1102" on="1"/>
        <pt x="689" y="1102" on="0"/>
        <pt x="882" y="986" on="0"/>
        <pt x="982" y="776" on="0"/>
        <pt x="982" y="636" on="1"/>
        <pt x="982" y="534" on="1"/>
      </contour>
      <contour>
        <pt x="463" y="1000" on="0"/>
        <pt x="317" y="910" on="0"/>
        <pt x="225" y="745" on="0"/>
        <pt x="214" y="636" on="1"/>
        <pt x="862" y="636" on="1"/>
        <pt x="862" y="665" on="1"/>
        <pt x="862" y="758" on="0"/>
        <pt x="791" y="910" on="0"/>
        <pt x="652" y="1000" on="0"/>
        <pt x="554" y="1000" on="1"/>
      </contour>
    </TTGlyph>
    <TTGlyph name="eacute" xMin="90" yMin="-20" xMax="982" yMax="1535">
      <component glyphName=".ttfautohint" x="90" y="0" flags="0x0"/>
      <component glyphName="e" x="0" y="0" flags="0x0"/>
      <component glyphName="acutecomb" x="1113" y="-1" flags="0x4"/>
    </TTGlyph>
    <TTGlyph name="ecircumflex" xMin="90" yMin="-20" xMax="982" yMax="1525">
      <component glyphName=".ttfautohint" x="90" y="0" flags="0x0"/>
      <component glyphName="e" x="0" y="0" flags="0x0"/>
      <component glyphName="circumflex" x="129" y="-1" flags="0x4"/>
    </TTGlyph>
    <TTGlyph name="edieresis" xMin="90" yMin="-20" xMax="982" yMax="1476">
      <component glyphName=".ttfautohint" x="90" y="0" flags="0x0"/>
      <component glyphName="e" x="0" y="0" flags="0x0"/>
      <component glyphName="dieresis" x="130" y="-1" flags="0x4"/>
    </TTGlyph>
    <TTGlyph name="egrave" xMin="90" yMin="-20" xMax="982" yMax="1535">
      <component glyphName=".ttfautohint" x="90" y="0" flags="0x0"/>
      <component glyphName="e" x="0" y="0" flags="0x0"/>
      <component glyphName="gravecomb" x="1103" y="-1" flags="0x4"/>
    </TTGlyph>
    <TTGlyph name="eight" xMin="106" yMin="-20" xMax="1033" yMax="1476">
      <contour>
        <pt x="883" y="704" on="0"/>
        <pt x="1033" y="512" on="0"/>
        <pt x="1033" y="386" on="1"/>
        <pt x="1033" y="257" on="0"/>
        <pt x="912" y="74" on="0"/>
        <pt x="702" y="-20" on="0"/>
        <pt x="570" y="-20" on="1"/>
        <pt x="437" y="-20" on="0"/>
        <pt x="227" y="74" on="0"/>
        <pt x="106" y="257" on="0"/>
        <pt x="106" y="386" on="1"/>
        <pt x="106" y="513" on="0"/>
        <pt x="253" y="705" on="0"/>
        <pt x="378" y="748" on="1"/>
        <pt x="270" y="791" on="0"/>
        <pt x="144" y="968" on="0"/>
        <pt x="144" y="1082" on="1"/>
        <pt x="144" y="1205" on="0"/>
        <pt x="253" y="1383" on="0"/>
        <pt x="445" y="1476" on="0"/>
        <pt x="568" y="1476" on="1"/>
        <pt x="690" y="1476" on="0"/>
        <pt x="884" y="1383" on="0"/>
        <pt x="995" y="1205" on="0"/>
        <pt x="995" y="1082" on="1"/>
        <pt x="995" y="968" on="0"/>
        <pt x="866" y="792" on="0"/>
        <pt x="757" y="748" on="1"/>
      </contour>
      <contour>
        <pt x="263" y="997" on="0"/>
        <pt x="341" y="868" on="0"/>
        <pt x="480" y="798" on="0"/>
        <pt x="569" y="798" on="1"/>
        <pt x="657" y="798" on="0"/>
        <pt x="797" y="868" on="0"/>
        <pt x="876" y="997" on="0"/>
        <pt x="876" y="1082" on="1"/>
        <pt x="876" y="1166" on="0"/>
        <pt x="795" y="1299" on="0"/>
        <pt x="655" y="1374" on="0"/>
        <pt x="568" y="1374" on="1"/>
        <pt x="480" y="1374" on="0"/>
        <pt x="341" y="1303" on="0"/>
        <pt x="263" y="1171" on="0"/>
        <pt x="263" y="1082" on="1"/>
      </contour>
      <contour>
        <pt x="671" y="82" on="0"/>
        <pt x="826" y="153" on="0"/>
        <pt x="913" y="291" on="0"/>
        <pt x="913" y="386" on="1"/>
        <pt x="913" y="477" on="0"/>
        <pt x="823" y="618" on="0"/>
        <pt x="666" y="696" on="0"/>
        <pt x="568" y="696" on="1"/>
        <pt x="469" y="696" on="0"/>
        <pt x="313" y="618" on="0"/>
        <pt x="226" y="478" on="0"/>
        <pt x="226" y="386" on="1"/>
        <pt x="226" y="290" on="0"/>
        <pt x="313" y="153" on="0"/>
        <pt x="468" y="82" on="0"/>
        <pt x="570" y="82" on="1"/>
      </contour>
    </TTGlyph>
    <TTGlyph name="eight.frac" xMin="80" yMin="653" xMax="659" yMax="1464">
      <component glyphName=".ttfautohint" x="80" y="653" flags="0x0"/>
      <component glyphName="eight.sup" x="0" y="664" flags="0x4"/>
    </TTGlyph>
    <TTGlyph name="eight.smcp" xMin="93" yMin="-16" xMax="932" yMax="1181">
      <contour>
        <pt x="803" y="562" on="0"/>
        <pt x="932" y="411" on="0"/>
        <pt x="932" y="311" on="1"/>
        <pt x="932" y="207" on="0"/>
        <pt x="822" y="59" on="0"/>
        <pt x="632" y="-16" on="0"/>
        <pt x="513" y="-16" on="1"/>
        <pt x="392" y="-16" on="0"/>
        <pt x="202" y="59" on="0"/>
        <pt x="93" y="206" on="0"/>
        <pt x="93" y="311" on="1"/>
        <pt x="93" y="411" on="0"/>
        <pt x="221" y="562" on="0"/>
        <pt x="330" y="599" on="1"/>
        <pt x="235" y="635" on="0"/>
        <pt x="126" y="774" on="0"/>
        <pt x="126" y="863" on="1"/>
        <pt x="126" y="963" on="0"/>
        <pt x="225" y="1107" on="0"/>
        <pt x="400" y="1181" on="0"/>
        <pt x="511" y="1181" on="1"/>
        <pt x="622" y="1181" on="0"/>
        <pt x="798" y="1106" on="0"/>
        <pt x="899" y="963" on="0"/>
        <pt x="899" y="863" on="1"/>
        <pt x="899" y="773" on="0"/>
        <pt x="789" y="634" on="0"/>
        <pt x="694" y="598" on="1"/>
      </contour>
      <contour>
        <pt x="246" y="797" on="0"/>
        <pt x="314" y="700" on="0"/>
        <pt x="435" y="648" on="0"/>
        <pt x="513" y="648" on="1"/>
        <pt x="589" y="648" on="0"/>
        <pt x="710" y="701" on="0"/>
        <pt x="779" y="797" on="0"/>
        <pt x="779" y="861" on="1"/>
        <pt x="779" y="924" on="0"/>
        <pt x="709" y="1023" on="0"/>
        <pt x="587" y="1079" on="0"/>
        <pt x="511" y="1079" on="1"/>
        <pt x="434" y="1079" on="0"/>
        <pt x="313" y="1026" on="0"/>
        <pt x="246" y="927" on="0"/>
        <pt x="246" y="861" on="1"/>
      </contour>
      <contour>
        <pt x="600" y="85" on="0"/>
        <pt x="735" y="139" on="0"/>
        <pt x="812" y="243" on="0"/>
        <pt x="812" y="314" on="1"/>
        <pt x="812" y="383" on="0"/>
        <pt x="734" y="488" on="0"/>
        <pt x="597" y="546" on="0"/>
        <pt x="511" y="546" on="1"/>
        <pt x="425" y="546" on="0"/>
        <pt x="289" y="488" on="0"/>
        <pt x="212" y="383" on="0"/>
        <pt x="212" y="314" on="1"/>
        <pt x="212" y="242" on="0"/>
        <pt x="288" y="139" on="0"/>
        <pt x="425" y="85" on="0"/>
        <pt x="513" y="85" on="1"/>
      </contour>
    </TTGlyph>
    <TTGlyph name="eight.sup" xMin="80" yMin="-11" xMax="659" yMax="800">
      <contour>
        <pt x="576" y="380" on="0"/>
        <pt x="659" y="279" on="0"/>
        <pt x="659" y="212" on="1"/>
        <pt x="659" y="140" on="0"/>
        <pt x="584" y="40" on="0"/>
        <pt x="453" y="-11" on="0"/>
        <pt x="370" y="-11" on="1"/>
        <pt x="286" y="-11" on="0"/>
        <pt x="155" y="40" on="0"/>
        <pt x="80" y="140" on="0"/>
        <pt x="80" y="212" on="1"/>
        <pt x="80" y="279" on="0"/>
        <pt x="163" y="381" on="0"/>
        <pt x="235" y="406" on="1"/>
        <pt x="173" y="430" on="0"/>
        <pt x="102" y="523" on="0"/>
        <pt x="102" y="583" on="1"/>
        <pt x="102" y="651" on="0"/>
        <pt x="171" y="749" on="0"/>
        <pt x="292" y="800" on="0"/>
        <pt x="369" y="800" on="1"/>
        <pt x="446" y="800" on="0"/>
        <pt x="568" y="749" on="0"/>
        <pt x="637" y="651" on="0"/>
        <pt x="637" y="583" on="1"/>
        <pt x="637" y="523" on="0"/>
        <pt x="566" y="430" on="0"/>
        <pt x="504" y="405" on="1"/>
      </contour>
      <contour>
        <pt x="297" y="712" on="0"/>
        <pt x="207" y="640" on="0"/>
        <pt x="207" y="579" on="1"/>
        <pt x="207" y="520" on="0"/>
        <pt x="297" y="448" on="0"/>
        <pt x="370" y="448" on="1"/>
        <pt x="442" y="448" on="0"/>
        <pt x="532" y="520" on="0"/>
        <pt x="532" y="579" on="1"/>
        <pt x="532" y="638" on="0"/>
        <pt x="441" y="712" on="0"/>
        <pt x="369" y="712" on="1"/>
      </contour>
      <contour>
        <pt x="451" y="76" on="0"/>
        <pt x="554" y="152" on="0"/>
        <pt x="554" y="217" on="1"/>
        <pt x="554" y="282" on="0"/>
        <pt x="449" y="359" on="0"/>
        <pt x="369" y="359" on="1"/>
        <pt x="287" y="359" on="0"/>
        <pt x="185" y="282" on="0"/>
        <pt x="185" y="217" on="1"/>
        <pt x="185" y="151" on="0"/>
        <pt x="287" y="76" on="0"/>
        <pt x="370" y="76" on="1"/>
      </contour>
    </TTGlyph>
    <TTGlyph name="eight.tnum" xMin="104" yMin="-20" xMax="1031" yMax="1476">
      <component glyphName=".ttfautohint" x="104" y="0" flags="0x0"/>
      <component glyphName="eight" x="-2" y="0" flags="0x0"/>
    </TTGlyph>
    <TTGlyph name="ellipsis" xMin="167" yMin="-9" xMax="1139" yMax="156">
      <component glyphName=".ttfautohint" x="167" y="0" flags="0x0"/>
      <component glyphName="period" x="21" y="0" flags="0x0"/>
      <component glyphName="period" x="431" y="0" flags="0x0"/>
      <component glyphName="period" x="823" y="0" flags="0x0"/>
    </TTGlyph>
    <TTGlyph name="emdash" xMin="127" yMin="687" xMax="1463" yMax="789">
      <component glyphName=".ttfautohint" x="127" y="687" flags="0x0"/>
      <component glyphName="minus" x="-139" y="0" scalex="1.6" scaley="1.0" flags="0x0"/>
    </TTGlyph>
    <TTGlyph name="endash" xMin="159" yMin="687" xMax="1161" yMax="789">
      <component glyphName=".ttfautohint" x="159" y="687" flags="0x0"/>
      <component glyphName="minus" x="-40" y="0" scalex="1.2" scaley="1.0" flags="0x0"/>
    </TTGlyph>
    <TTGlyph name="equal" xMin="150" yMin="418" xMax="984" yMax="935">
      <contour>
        <pt x="150" y="829" on="1"/>
        <pt x="150" y="935" on="1"/>
        <pt x="984" y="935" on="1"/>
        <pt x="984" y="829" on="1"/>
      </contour>
      <contour>
        <pt x="150" y="418" on="1"/>
        <pt x="150" y="524" on="1"/>
        <pt x="984" y="524" on="1"/>
        <pt x="984" y="418" on="1"/>
      </contour>
    </TTGlyph>
    <TTGlyph name="eth" xMin="150" yMin="-20" xMax="1055" yMax="1579">
      <contour>
        <pt x="1055" y="1048" on="0"/>
        <pt x="1055" y="624" on="1"/>
        <pt x="1055" y="535" on="1"/>
        <pt x="1055" y="373" on="0"/>
        <pt x="942" y="120" on="0"/>
        <pt x="742" y="-20" on="0"/>
        <pt x="616" y="-20" on="1"/>
        <pt x="481" y="-20" on="0"/>
        <pt x="269" y="109" on="0"/>
        <pt x="150" y="331" on="0"/>
        <pt x="150" y="466" on="1"/>
        <pt x="150" y="619" on="0"/>
        <pt x="258" y="844" on="0"/>
        <pt x="457" y="965" on="0"/>
        <pt x="588" y="965" on="1"/>
        <pt x="686" y="965" on="0"/>
        <pt x="861" y="889" on="0"/>
        <pt x="920" y="822" on="1"/>
        <pt x="876" y="1076" on="0"/>
        <pt x="710" y="1241" on="1"/>
        <pt x="484" y="1101" on="1"/>
        <pt x="434" y="1175" on="1"/>
        <pt x="640" y="1303" on="1"/>
        <pt x="503" y="1410" on="0"/>
        <pt x="297" y="1475" on="1"/>
        <pt x="335" y="1579" on="1"/>
        <pt x="582" y="1505" on="0"/>
        <pt x="744" y="1367" on="1"/>
        <pt x="939" y="1488" on="1"/>
        <pt x="990" y="1415" on="1"/>
        <pt x="811" y="1304" on="1"/>
      </contour>
      <contour>
        <pt x="936" y="626" on="1"/>
        <pt x="936" y="663" on="0"/>
        <pt x="935" y="681" on="1"/>
        <pt x="900" y="757" on="0"/>
        <pt x="733" y="861" on="0"/>
        <pt x="610" y="861" on="1"/>
        <pt x="498" y="861" on="0"/>
        <pt x="346" y="761" on="0"/>
        <pt x="270" y="583" on="0"/>
        <pt x="270" y="466" on="1"/>
        <pt x="270" y="369" on="0"/>
        <pt x="353" y="193" on="0"/>
        <pt x="512" y="84" on="0"/>
        <pt x="620" y="84" on="1"/>
        <pt x="715" y="84" on="0"/>
        <pt x="858" y="200" on="0"/>
        <pt x="936" y="405" on="0"/>
        <pt x="936" y="535" on="1"/>
      </contour>
    </TTGlyph>
    <TTGlyph name="exclam" xMin="154" yMin="-9" xMax="319" yMax="1456">
      <contour>
        <pt x="174" y="406" on="1"/>
        <pt x="167" y="1456" on="1"/>
        <pt x="291" y="1456" on="1"/>
        <pt x="284" y="406" on="1"/>
      </contour>
      <contour>
        <pt x="274" y="151" on="0"/>
        <pt x="319" y="106" on="0"/>
        <pt x="319" y="71" on="1"/>
        <pt x="319" y="37" on="0"/>
        <pt x="274" y="-9" on="0"/>
        <pt x="236" y="-9" on="1"/>
        <pt x="199" y="-9" on="0"/>
        <pt x="154" y="36" on="0"/>
        <pt x="154" y="71" on="1"/>
        <pt x="154" y="106" on="0"/>
        <pt x="199" y="151" on="0"/>
        <pt x="236" y="151" on="1"/>
      </contour>
    </TTGlyph>
    <TTGlyph name="exclamdown" xMin="141" yMin="-360" xMax="306" yMax="1102">
      <contour>
        <pt x="186" y="942" on="0"/>
        <pt x="141" y="988" on="0"/>
        <pt x="141" y="1023" on="1"/>
        <pt x="141" y="1057" on="0"/>
        <pt x="186" y="1102" on="0"/>
        <pt x="224" y="1102" on="1"/>
        <pt x="261" y="1102" on="0"/>
        <pt x="306" y="1057" on="0"/>
        <pt x="306" y="1023" on="1"/>
        <pt x="306" y="988" on="0"/>
        <pt x="261" y="942" on="0"/>
        <pt x="224" y="942" on="1"/>
      </contour>
      <contour>
        <pt x="286" y="690" on="1"/>
        <pt x="292" y="-360" on="1"/>
        <pt x="168" y="-360" on="1"/>
        <pt x="175" y="690" on="1"/>
      </contour>
    </TTGlyph>
    <TTGlyph name="f" xMin="63" yMin="0" xMax="690" yMax="1557">
      <contour>
        <pt x="473" y="1452" on="0"/>
        <pt x="362" y="1329" on="0"/>
        <pt x="362" y="1217" on="1"/>
        <pt x="362" y="1082" on="1"/>
        <pt x="621" y="1082" on="1"/>
        <pt x="621" y="984" on="1"/>
        <pt x="362" y="984" on="1"/>
        <pt x="362" y="0" on="1"/>
        <pt x="243" y="0" on="1"/>
        <pt x="243" y="984" on="1"/>
        <pt x="63" y="984" on="1"/>
        <pt x="63" y="1082" on="1"/>
        <pt x="243" y="1082" on="1"/>
        <pt x="243" y="1217" on="1"/>
        <pt x="243" y="1380" on="0"/>
        <pt x="412" y="1557" on="0"/>
        <pt x="562" y="1557" on="1"/>
        <pt x="630" y="1557" on="0"/>
        <pt x="690" y="1540" on="1"/>
        <pt x="681" y="1440" on="1"/>
        <pt x="631" y="1452" on="0"/>
        <pt x="571" y="1452" on="1"/>
      </contour>
    </TTGlyph>
    <TTGlyph name="f_f" xMin="63" yMin="0" xMax="1368" yMax="1557">
      <component glyphName=".ttfautohint" x="63" y="0" flags="0x0"/>
      <component glyphName="f" x="0" y="0" flags="0x0"/>
      <component glyphName="f" x="678" y="0" flags="0x0"/>
    </TTGlyph>
    <TTGlyph name="f_f_i" xMin="63" yMin="0" xMax="1523" yMax="1557">
      <contour>
        <pt x="943" y="1082" on="1"/>
        <pt x="1197" y="1082" on="1"/>
        <pt x="1197" y="984" on="1"/>
        <pt x="943" y="984" on="1"/>
        <pt x="943" y="0" on="1"/>
        <pt x="823" y="0" on="1"/>
        <pt x="823" y="984" on="1"/>
        <pt x="362" y="984" on="1"/>
        <pt x="362" y="0" on="1"/>
        <pt x="243" y="0" on="1"/>
        <pt x="243" y="984" on="1"/>
        <pt x="63" y="984" on="1"/>
        <pt x="63" y="1082" on="1"/>
        <pt x="243" y="1082" on="1"/>
        <pt x="243" y="1217" on="1"/>
        <pt x="243" y="1380" on="0"/>
        <pt x="412" y="1557" on="0"/>
        <pt x="562" y="1557" on="1"/>
        <pt x="630" y="1557" on="0"/>
        <pt x="690" y="1540" on="1"/>
        <pt x="681" y="1440" on="1"/>
        <pt x="631" y="1452" on="0"/>
        <pt x="571" y="1452" on="1"/>
        <pt x="473" y="1452" on="0"/>
        <pt x="362" y="1329" on="0"/>
        <pt x="362" y="1217" on="1"/>
        <pt x="362" y="1082" on="1"/>
        <pt x="823" y="1082" on="1"/>
        <pt x="823" y="1197" on="1"/>
        <pt x="823" y="1312" on="0"/>
        <pt x="910" y="1473" on="0"/>
        <pt x="1071" y="1557" on="0"/>
        <pt x="1183" y="1557" on="1"/>
        <pt x="1316" y="1557" on="0"/>
        <pt x="1458" y="1498" on="1"/>
        <pt x="1439" y="1395" on="1"/>
        <pt x="1381" y="1421" on="0"/>
        <pt x="1264" y="1448" on="0"/>
        <pt x="1190" y="1448" on="1"/>
        <pt x="1069" y="1448" on="0"/>
        <pt x="943" y="1320" on="0"/>
        <pt x="943" y="1197" on="1"/>
      </contour>
      <contour>
        <pt x="1523" y="1082" on="1"/>
        <pt x="1523" y="0" on="1"/>
        <pt x="1404" y="0" on="1"/>
        <pt x="1404" y="1082" on="1"/>
      </contour>
    </TTGlyph>
    <TTGlyph name="f_f_l" xMin="63" yMin="0" xMax="1523" yMax="1557">
      <contour>
        <pt x="1267" y="1557" on="0"/>
        <pt x="1523" y="1496" on="1"/>
        <pt x="1523" y="0" on="1"/>
        <pt x="1404" y="0" on="1"/>
        <pt x="1404" y="1422" on="1"/>
        <pt x="1251" y="1452" on="0"/>
        <pt x="1158" y="1452" on="1"/>
        <pt x="1056" y="1452" on="0"/>
        <pt x="943" y="1329" on="0"/>
        <pt x="943" y="1217" on="1"/>
        <pt x="943" y="1082" on="1"/>
        <pt x="1201" y="1082" on="1"/>
        <pt x="1201" y="984" on="1"/>
        <pt x="943" y="984" on="1"/>
        <pt x="943" y="0" on="1"/>
        <pt x="823" y="0" on="1"/>
        <pt x="823" y="984" on="1"/>
        <pt x="362" y="984" on="1"/>
        <pt x="362" y="0" on="1"/>
        <pt x="243" y="0" on="1"/>
        <pt x="243" y="984" on="1"/>
        <pt x="63" y="984" on="1"/>
        <pt x="63" y="1082" on="1"/>
        <pt x="243" y="1082" on="1"/>
        <pt x="243" y="1217" on="1"/>
        <pt x="243" y="1380" on="0"/>
        <pt x="412" y="1557" on="0"/>
        <pt x="562" y="1557" on="1"/>
        <pt x="630" y="1557" on="0"/>
        <pt x="690" y="1540" on="1"/>
        <pt x="681" y="1440" on="1"/>
        <pt x="631" y="1452" on="0"/>
        <pt x="571" y="1452" on="1"/>
        <pt x="473" y="1452" on="0"/>
        <pt x="362" y="1329" on="0"/>
        <pt x="362" y="1217" on="1"/>
        <pt x="362" y="1082" on="1"/>
        <pt x="823" y="1082" on="1"/>
        <pt x="823" y="1217" on="1"/>
        <pt x="823" y="1380" on="0"/>
        <pt x="995" y="1557" on="0"/>
        <pt x="1150" y="1557" on="1"/>
      </contour>
    </TTGlyph>
    <TTGlyph name="f_l" xMin="63" yMin="0" xMax="943" yMax="1557">
      <contour>
        <pt x="685" y="1557" on="0"/>
        <pt x="943" y="1496" on="1"/>
        <pt x="943" y="0" on="1"/>
        <pt x="823" y="0" on="1"/>
        <pt x="823" y="1422" on="1"/>
        <pt x="670" y="1452" on="0"/>
        <pt x="577" y="1452" on="1"/>
        <pt x="475" y="1452" on="0"/>
        <pt x="362" y="1329" on="0"/>
        <pt x="362" y="1217" on="1"/>
        <pt x="362" y="1082" on="1"/>
        <pt x="621" y="1082" on="1"/>
        <pt x="621" y="984" on="1"/>
        <pt x="362" y="984" on="1"/>
        <pt x="362" y="0" on="1"/>
        <pt x="243" y="0" on="1"/>
        <pt x="243" y="984" on="1"/>
        <pt x="63" y="984" on="1"/>
        <pt x="63" y="1082" on="1"/>
        <pt x="243" y="1082" on="1"/>
        <pt x="243" y="1217" on="1"/>
        <pt x="243" y="1380" on="0"/>
        <pt x="414" y="1557" on="0"/>
        <pt x="569" y="1557" on="1"/>
      </contour>
    </TTGlyph>
    <TTGlyph name="fi" xMin="49" yMin="0" xMax="929" yMax="1557">
      <contour>
        <pt x="348" y="1082" on="1"/>
        <pt x="602" y="1082" on="1"/>
        <pt x="602" y="984" on="1"/>
        <pt x="348" y="984" on="1"/>
        <pt x="348" y="0" on="1"/>
        <pt x="228" y="0" on="1"/>
        <pt x="228" y="984" on="1"/>
        <pt x="49" y="984" on="1"/>
        <pt x="49" y="1082" on="1"/>
        <pt x="228" y="1082" on="1"/>
        <pt x="228" y="1197" on="1"/>
        <pt x="228" y="1312" on="0"/>
        <pt x="315" y="1473" on="0"/>
        <pt x="476" y="1557" on="0"/>
        <pt x="588" y="1557" on="1"/>
        <pt x="721" y="1557" on="0"/>
        <pt x="863" y="1498" on="1"/>
        <pt x="844" y="1395" on="1"/>
        <pt x="786" y="1421" on="0"/>
        <pt x="669" y="1448" on="0"/>
        <pt x="595" y="1448" on="1"/>
        <pt x="474" y="1448" on="0"/>
        <pt x="348" y="1320" on="0"/>
        <pt x="348" y="1197" on="1"/>
      </contour>
      <contour>
        <pt x="929" y="1082" on="1"/>
        <pt x="929" y="0" on="1"/>
        <pt x="809" y="0" on="1"/>
        <pt x="809" y="1082" on="1"/>
      </contour>
    </TTGlyph>
    <TTGlyph name="five" xMin="168" yMin="-20" xMax="1047" yMax="1456">
      <contour>
        <pt x="290" y="1456" on="1"/>
        <pt x="1018" y="1456" on="1"/>
        <pt x="1018" y="1345" on="1"/>
        <pt x="393" y="1345" on="1"/>
        <pt x="341" y="853" on="1"/>
        <pt x="385" y="885" on="0"/>
        <pt x="532" y="934" on="0"/>
        <pt x="615" y="934" on="1"/>
        <pt x="744" y="934" on="0"/>
        <pt x="940" y="820" on="0"/>
        <pt x="1047" y="607" on="0"/>
        <pt x="1047" y="464" on="1"/>
        <pt x="1047" y="320" on="0"/>
        <pt x="953" y="103" on="0"/>
        <pt x="758" y="-20" on="0"/>
        <pt x="611" y="-20" on="1"/>
        <pt x="493" y="-20" on="0"/>
        <pt x="301" y="69" on="0"/>
        <pt x="180" y="251" on="0"/>
        <pt x="168" y="383" on="1"/>
        <pt x="283" y="383" on="1"/>
        <pt x="299" y="236" on="0"/>
        <pt x="468" y="82" on="0"/>
        <pt x="611" y="82" on="1"/>
        <pt x="765" y="82" on="0"/>
        <pt x="927" y="279" on="0"/>
        <pt x="927" y="462" on="1"/>
        <pt x="927" y="566" on="0"/>
        <pt x="849" y="731" on="0"/>
        <pt x="698" y="825" on="0"/>
        <pt x="594" y="825" on="1"/>
        <pt x="497" y="825" on="0"/>
        <pt x="372" y="773" on="0"/>
        <pt x="313" y="720" on="1"/>
        <pt x="219" y="747" on="1"/>
      </contour>
    </TTGlyph>
    <TTGlyph name="five.frac" xMin="108" yMin="653" xMax="665" yMax="1453">
      <component glyphName=".ttfautohint" x="108" y="653" flags="0x0"/>
      <component glyphName="five.sup" x="0" y="664" flags="0x4"/>
    </TTGlyph>
    <TTGlyph name="five.smcp" xMin="145" yMin="-16" xMax="944" yMax="1165">
      <contour>
        <pt x="247" y="1165" on="1"/>
        <pt x="913" y="1165" on="1"/>
        <pt x="913" y="1057" on="1"/>
        <pt x="347" y="1057" on="1"/>
        <pt x="300" y="688" on="1"/>
        <pt x="341" y="712" on="0"/>
        <pt x="470" y="749" on="0"/>
        <pt x="546" y="749" on="1"/>
        <pt x="663" y="749" on="0"/>
        <pt x="844" y="658" on="0"/>
        <pt x="944" y="487" on="0"/>
        <pt x="944" y="372" on="1"/>
        <pt x="944" y="259" on="0"/>
        <pt x="857" y="84" on="0"/>
        <pt x="677" y="-16" on="0"/>
        <pt x="541" y="-16" on="1"/>
        <pt x="442" y="-16" on="0"/>
        <pt x="268" y="58" on="0"/>
        <pt x="154" y="205" on="0"/>
        <pt x="145" y="309" on="1"/>
        <pt x="262" y="309" on="1"/>
        <pt x="275" y="202" on="0"/>
        <pt x="428" y="85" on="0"/>
        <pt x="541" y="85" on="1"/>
        <pt x="684" y="85" on="0"/>
        <pt x="824" y="235" on="0"/>
        <pt x="824" y="374" on="1"/>
        <pt x="824" y="455" on="0"/>
        <pt x="754" y="579" on="0"/>
        <pt x="619" y="647" on="0"/>
        <pt x="525" y="647" on="1"/>
        <pt x="434" y="647" on="0"/>
        <pt x="327" y="608" on="0"/>
        <pt x="271" y="567" on="1"/>
        <pt x="177" y="593" on="1"/>
      </contour>
    </TTGlyph>
    <TTGlyph name="five.sup" xMin="108" yMin="-11" xMax="665" yMax="789">
      <contour>
        <pt x="177" y="789" on="1"/>
        <pt x="640" y="789" on="1"/>
        <pt x="640" y="699" on="1"/>
        <pt x="264" y="699" on="1"/>
        <pt x="235" y="471" on="1"/>
        <pt x="262" y="486" on="0"/>
        <pt x="347" y="509" on="0"/>
        <pt x="395" y="509" on="1"/>
        <pt x="476" y="509" on="0"/>
        <pt x="598" y="448" on="0"/>
        <pt x="665" y="333" on="0"/>
        <pt x="665" y="255" on="1"/>
        <pt x="665" y="179" on="0"/>
        <pt x="604" y="59" on="0"/>
        <pt x="479" y="-11" on="0"/>
        <pt x="385" y="-11" on="1"/>
        <pt x="315" y="-11" on="0"/>
        <pt x="192" y="40" on="0"/>
        <pt x="113" y="141" on="0"/>
        <pt x="108" y="212" on="1"/>
        <pt x="213" y="212" on="1"/>
        <pt x="220" y="146" on="0"/>
        <pt x="314" y="76" on="0"/>
        <pt x="385" y="76" on="1"/>
        <pt x="474" y="76" on="0"/>
        <pt x="560" y="171" on="0"/>
        <pt x="560" y="256" on="1"/>
        <pt x="560" y="334" on="0"/>
        <pt x="461" y="427" on="0"/>
        <pt x="373" y="427" on="1"/>
        <pt x="315" y="427" on="0"/>
        <pt x="247" y="401" on="0"/>
        <pt x="212" y="376" on="1"/>
        <pt x="129" y="398" on="1"/>
      </contour>
    </TTGlyph>
    <TTGlyph name="four" xMin="68" yMin="0" xMax="1099" yMax="1456">
      <contour>
        <pt x="1099" y="368" on="1"/>
        <pt x="872" y="368" on="1"/>
        <pt x="872" y="0" on="1"/>
        <pt x="752" y="0" on="1"/>
        <pt x="752" y="368" on="1"/>
        <pt x="68" y="368" on="1"/>
        <pt x="68" y="437" on="1"/>
        <pt x="741" y="1456" on="1"/>
        <pt x="872" y="1456" on="1"/>
        <pt x="872" y="470" on="1"/>
        <pt x="1099" y="470" on="1"/>
      </contour>
      <contour>
        <pt x="752" y="470" on="1"/>
        <pt x="752" y="1301" on="1"/>
        <pt x="699" y="1209" on="1"/>
        <pt x="215" y="470" on="1"/>
      </contour>
    </TTGlyph>
    <TTGlyph name="four.frac" xMin="60" yMin="664" xMax="694" yMax="1453">
      <component glyphName=".ttfautohint" x="60" y="664" flags="0x0"/>
      <component glyphName="four.sup" x="0" y="664" flags="0x4"/>
    </TTGlyph>
    <TTGlyph name="four.smcp" xMin="60" yMin="0" xMax="991" yMax="1165">
      <contour>
        <pt x="991" y="287" on="1"/>
        <pt x="791" y="287" on="1"/>
        <pt x="791" y="0" on="1"/>
        <pt x="671" y="0" on="1"/>
        <pt x="671" y="287" on="1"/>
        <pt x="62" y="287" on="1"/>
        <pt x="60" y="360" on="1"/>
        <pt x="661" y="1165" on="1"/>
        <pt x="791" y="1165" on="1"/>
        <pt x="791" y="389" on="1"/>
        <pt x="991" y="389" on="1"/>
      </contour>
      <contour>
        <pt x="671" y="389" on="1"/>
        <pt x="671" y="1018" on="1"/>
        <pt x="621" y="934" on="1"/>
        <pt x="200" y="389" on="1"/>
      </contour>
    </TTGlyph>
    <TTGlyph name="four.sup" xMin="60" yMin="0" xMax="694" yMax="789">
      <contour>
        <pt x="694" y="187" on="1"/>
        <pt x="567" y="187" on="1"/>
        <pt x="567" y="0" on="1"/>
        <pt x="462" y="0" on="1"/>
        <pt x="462" y="187" on="1"/>
        <pt x="63" y="187" on="1"/>
        <pt x="60" y="254" on="1"/>
        <pt x="457" y="789" on="1"/>
        <pt x="567" y="789" on="1"/>
        <pt x="567" y="276" on="1"/>
        <pt x="694" y="276" on="1"/>
      </contour>
      <contour>
        <pt x="462" y="276" on="1"/>
        <pt x="462" y="659" on="1"/>
        <pt x="432" y="609" on="1"/>
        <pt x="174" y="276" on="1"/>
      </contour>
    </TTGlyph>
    <TTGlyph name="fraction" xMin="62" yMin="121" xMax="848" yMax="1307">
      <contour>
        <pt x="62" y="169" on="1"/>
        <pt x="773" y="1307" on="1"/>
        <pt x="848" y="1259" on="1"/>
        <pt x="137" y="121" on="1"/>
      </contour>
    </TTGlyph>
    <TTGlyph name="g" xMin="109" yMin="-432" xMax="980" yMax="1102">
      <contour>
        <pt x="980" y="1082" on="1"/>
        <pt x="980" y="19" on="1"/>
        <pt x="980" y="-120" on="0"/>
        <pt x="873" y="-324" on="0"/>
        <pt x="677" y="-432" on="0"/>
        <pt x="546" y="-432" on="1"/>
        <pt x="439" y="-432" on="0"/>
        <pt x="232" y="-336" on="0"/>
        <pt x="169" y="-247" on="1"/>
        <pt x="236" y="-174" on="1"/>
        <pt x="300" y="-254" on="0"/>
        <pt x="450" y="-330" on="0"/>
        <pt x="539" y="-330" on="1"/>
        <pt x="692" y="-330" on="0"/>
        <pt x="860" y="-148" on="0"/>
        <pt x="860" y="15" on="1"/>
        <pt x="860" y="141" on="1"/>
        <pt x="805" y="64" on="0"/>
        <pt x="637" y="-20" on="0"/>
        <pt x="524" y="-20" on="1"/>
        <pt x="398" y="-20" on="0"/>
        <pt x="210" y="119" on="0"/>
        <pt x="109" y="369" on="0"/>
        <pt x="109" y="530" on="1"/>
        <pt x="109" y="551" on="1"/>
        <pt x="109" y="718" on="0"/>
        <pt x="209" y="967" on="0"/>
        <pt x="397" y="1102" on="0"/>
        <pt x="526" y="1102" on="1"/>
        <pt x="748" y="1102" on="0"/>
        <pt x="863" y="927" on="1"/>
        <pt x="868" y="1082" on="1"/>
      </contour>
      <contour>
        <pt x="664" y="84" on="0"/>
        <pt x="819" y="191" on="0"/>
        <pt x="860" y="284" on="1"/>
        <pt x="860" y="784" on="1"/>
        <pt x="821" y="879" on="0"/>
        <pt x="671" y="998" on="0"/>
        <pt x="549" y="998" on="1"/>
        <pt x="443" y="998" on="0"/>
        <pt x="299" y="882" on="0"/>
        <pt x="229" y="681" on="0"/>
        <pt x="229" y="551" on="1"/>
        <pt x="229" y="530" on="1"/>
        <pt x="229" y="401" on="0"/>
        <pt x="299" y="199" on="0"/>
        <pt x="441" y="84" on="0"/>
        <pt x="547" y="84" on="1"/>
      </contour>
    </TTGlyph>
    <TTGlyph name="g.alt" xMin="60" yMin="-438" xMax="1011" yMax="1102">
      <contour>
        <pt x="801" y="187" on="0"/>
        <pt x="1010" y="40" on="0"/>
        <pt x="1010" y="-103" on="1"/>
        <pt x="1010" y="-182" on="0"/>
        <pt x="886" y="-338" on="0"/>
        <pt x="651" y="-438" on="0"/>
        <pt x="494" y="-438" on="1"/>
        <pt x="357" y="-438" on="0"/>
        <pt x="161" y="-363" on="0"/>
        <pt x="60" y="-235" on="0"/>
        <pt x="60" y="-157" on="1"/>
        <pt x="60" y="-61" on="0"/>
        <pt x="176" y="84" on="0"/>
        <pt x="266" y="125" on="1"/>
        <pt x="200" y="171" on="0"/>
        <pt x="200" y="257" on="1"/>
        <pt x="200" y="319" on="0"/>
        <pt x="257" y="410" on="0"/>
        <pt x="303" y="446" on="1"/>
        <pt x="218" y="491" on="0"/>
        <pt x="120" y="642" on="0"/>
        <pt x="120" y="731" on="1"/>
        <pt x="120" y="753" on="1"/>
        <pt x="120" y="853" on="0"/>
        <pt x="224" y="1012" on="0"/>
        <pt x="409" y="1102" on="0"/>
        <pt x="526" y="1102" on="1"/>
        <pt x="603" y="1102" on="0"/>
        <pt x="671" y="1082" on="1"/>
        <pt x="1009" y="1082" on="1"/>
        <pt x="1011" y="983" on="1"/>
        <pt x="840" y="983" on="1"/>
        <pt x="885" y="938" on="0"/>
        <pt x="932" y="820" on="0"/>
        <pt x="932" y="753" on="1"/>
        <pt x="932" y="731" on="1"/>
        <pt x="932" y="639" on="0"/>
        <pt x="828" y="483" on="0"/>
        <pt x="644" y="392" on="0"/>
        <pt x="528" y="392" on="1"/>
        <pt x="452" y="392" on="0"/>
        <pt x="384" y="412" on="1"/>
        <pt x="311" y="358" on="0"/>
        <pt x="311" y="284" on="1"/>
        <pt x="311" y="187" on="0"/>
        <pt x="438" y="187" on="1"/>
        <pt x="619" y="187" on="1"/>
      </contour>
      <contour>
        <pt x="240" y="731" on="1"/>
        <pt x="240" y="672" on="0"/>
        <pt x="312" y="562" on="0"/>
        <pt x="444" y="494" on="0"/>
        <pt x="528" y="494" on="1"/>
        <pt x="611" y="494" on="0"/>
        <pt x="741" y="562" on="0"/>
        <pt x="812" y="672" on="0"/>
        <pt x="812" y="731" on="1"/>
        <pt x="812" y="753" on="1"/>
        <pt x="812" y="819" on="0"/>
        <pt x="740" y="932" on="0"/>
        <pt x="610" y="1000" on="0"/>
        <pt x="526" y="1000" on="1"/>
        <pt x="443" y="1000" on="0"/>
        <pt x="312" y="932" on="0"/>
        <pt x="240" y="819" on="0"/>
        <pt x="240" y="753" on="1"/>
      </contour>
      <contour>
        <pt x="615" y="-337" on="0"/>
        <pt x="795" y="-266" on="0"/>
        <pt x="890" y="-157" on="0"/>
        <pt x="890" y="-103" on="1"/>
        <pt x="890" y="-15" on="0"/>
        <pt x="760" y="85" on="0"/>
        <pt x="619" y="85" on="1"/>
        <pt x="420" y="85" on="1"/>
        <pt x="394" y="85" on="0"/>
        <pt x="369" y="88" on="1"/>
        <pt x="318" y="74" on="0"/>
        <pt x="231" y="6" on="0"/>
        <pt x="180" y="-88" on="0"/>
        <pt x="180" y="-139" on="1"/>
        <pt x="180" y="-195" on="0"/>
        <pt x="249" y="-284" on="0"/>
        <pt x="390" y="-337" on="0"/>
        <pt x="494" y="-337" on="1"/>
      </contour>
    </TTGlyph>
    <TTGlyph name="g.ss06" xMin="96" yMin="-432" xMax="987" yMax="1102">
      <contour>
        <pt x="987" y="1082" on="1"/>
        <pt x="987" y="46" on="1"/>
        <pt x="987" y="-103" on="0"/>
        <pt x="883" y="-318" on="0"/>
        <pt x="685" y="-432" on="0"/>
        <pt x="547" y="-432" on="1"/>
        <pt x="466" y="-432" on="0"/>
        <pt x="280" y="-386" on="0"/>
        <pt x="211" y="-345" on="1"/>
        <pt x="247" y="-253" on="1"/>
        <pt x="385" y="-330" on="0"/>
        <pt x="545" y="-330" on="1"/>
        <pt x="705" y="-330" on="0"/>
        <pt x="867" y="-137" on="0"/>
        <pt x="867" y="42" on="1"/>
        <pt x="867" y="141" on="1"/>
        <pt x="811" y="64" on="0"/>
        <pt x="643" y="-21" on="0"/>
        <pt x="531" y="-21" on="1"/>
        <pt x="404" y="-21" on="0"/>
        <pt x="206" y="119" on="0"/>
        <pt x="96" y="370" on="0"/>
        <pt x="96" y="530" on="1"/>
        <pt x="96" y="551" on="1"/>
        <pt x="96" y="717" on="0"/>
        <pt x="206" y="966" on="0"/>
        <pt x="404" y="1102" on="0"/>
        <pt x="533" y="1102" on="1"/>
        <pt x="759" y="1102" on="0"/>
        <pt x="873" y="921" on="1"/>
        <pt x="885" y="1082" on="1"/>
      </contour>
      <contour>
        <pt x="671" y="84" on="0"/>
        <pt x="826" y="192" on="0"/>
        <pt x="867" y="284" on="1"/>
        <pt x="867" y="784" on="1"/>
        <pt x="828" y="879" on="0"/>
        <pt x="678" y="998" on="0"/>
        <pt x="555" y="998" on="1"/>
        <pt x="448" y="998" on="0"/>
        <pt x="295" y="883" on="0"/>
        <pt x="216" y="680" on="0"/>
        <pt x="216" y="551" on="1"/>
        <pt x="216" y="530" on="1"/>
        <pt x="216" y="402" on="0"/>
        <pt x="295" y="200" on="0"/>
        <pt x="447" y="84" on="0"/>
        <pt x="553" y="84" on="1"/>
      </contour>
    </TTGlyph>
    <TTGlyph name="g.ss07" xMin="109" yMin="-432" xMax="980" yMax="1102">
      <contour>
        <pt x="980" y="1082" on="1"/>
        <pt x="980" y="37" on="1"/>
        <pt x="980" y="-109" on="0"/>
        <pt x="876" y="-320" on="0"/>
        <pt x="679" y="-432" on="0"/>
        <pt x="541" y="-432" on="1"/>
        <pt x="463" y="-432" on="0"/>
        <pt x="288" y="-393" on="0"/>
        <pt x="223" y="-358" on="1"/>
        <pt x="258" y="-262" on="1"/>
        <pt x="388" y="-330" on="0"/>
        <pt x="539" y="-330" on="1"/>
        <pt x="699" y="-330" on="0"/>
        <pt x="860" y="-142" on="0"/>
        <pt x="860" y="33" on="1"/>
        <pt x="860" y="141" on="1"/>
        <pt x="805" y="64" on="0"/>
        <pt x="636" y="-21" on="0"/>
        <pt x="524" y="-21" on="1"/>
        <pt x="397" y="-21" on="0"/>
        <pt x="210" y="116" on="0"/>
        <pt x="109" y="363" on="0"/>
        <pt x="109" y="525" on="1"/>
        <pt x="109" y="546" on="1"/>
        <pt x="109" y="713" on="0"/>
        <pt x="209" y="964" on="0"/>
        <pt x="398" y="1102" on="0"/>
        <pt x="526" y="1102" on="1"/>
        <pt x="753" y="1102" on="0"/>
        <pt x="866" y="921" on="1"/>
        <pt x="879" y="1082" on="1"/>
      </contour>
      <contour>
        <pt x="664" y="84" on="0"/>
        <pt x="819" y="191" on="0"/>
        <pt x="860" y="284" on="1"/>
        <pt x="860" y="784" on="1"/>
        <pt x="821" y="879" on="0"/>
        <pt x="671" y="998" on="0"/>
        <pt x="549" y="998" on="1"/>
        <pt x="443" y="998" on="0"/>
        <pt x="299" y="881" on="0"/>
        <pt x="229" y="677" on="0"/>
        <pt x="229" y="546" on="1"/>
        <pt x="229" y="525" on="1"/>
        <pt x="229" y="395" on="0"/>
        <pt x="299" y="197" on="0"/>
        <pt x="441" y="84" on="0"/>
        <pt x="547" y="84" on="1"/>
      </contour>
    </TTGlyph>
    <TTGlyph name="germandbls" xMin="152" yMin="-21" xMax="1096" yMax="1544">
      <contour>
        <pt x="152" y="0" on="1"/>
        <pt x="152" y="1128" on="1"/>
        <pt x="152" y="1262" on="0"/>
        <pt x="239" y="1449" on="0"/>
        <pt x="401" y="1544" on="0"/>
        <pt x="513" y="1544" on="1"/>
        <pt x="609" y="1544" on="0"/>
        <pt x="765" y="1472" on="0"/>
        <pt x="857" y="1333" on="0"/>
        <pt x="857" y="1237" on="1"/>
        <pt x="857" y="1168" on="0"/>
        <pt x="824" y="1072" on="0"/>
        <pt x="792" y="1014" on="1"/>
        <pt x="762" y="960" on="0"/>
        <pt x="733" y="880" on="0"/>
        <pt x="733" y="825" on="1"/>
        <pt x="733" y="782" on="0"/>
        <pt x="776" y="709" on="0"/>
        <pt x="839" y="651" on="0"/>
        <pt x="894" y="608" on="1"/>
        <pt x="959" y="557" on="0"/>
        <pt x="1040" y="479" on="0"/>
        <pt x="1096" y="373" on="0"/>
        <pt x="1096" y="307" on="1"/>
        <pt x="1096" y="204" on="0"/>
        <pt x="992" y="55" on="0"/>
        <pt x="820" y="-21" on="0"/>
        <pt x="720" y="-21" on="1"/>
        <pt x="636" y="-21" on="0"/>
        <pt x="455" y="28" on="0"/>
        <pt x="415" y="60" on="1"/>
        <pt x="448" y="161" on="1"/>
        <pt x="489" y="131" on="0"/>
        <pt x="637" y="81" on="0"/>
        <pt x="706" y="81" on="1"/>
        <pt x="790" y="81" on="0"/>
        <pt x="913" y="142" on="0"/>
        <pt x="977" y="245" on="0"/>
        <pt x="977" y="307" on="1"/>
        <pt x="977" y="353" on="0"/>
        <pt x="932" y="431" on="0"/>
        <pt x="866" y="493" on="0"/>
        <pt x="809" y="537" on="1"/>
        <pt x="745" y="588" on="0"/>
        <pt x="667" y="662" on="0"/>
        <pt x="613" y="764" on="0"/>
        <pt x="613" y="827" on="1"/>
        <pt x="613" y="889" on="0"/>
        <pt x="645" y="979" on="0"/>
        <pt x="678" y="1039" on="1"/>
        <pt x="709" y="1095" on="0"/>
        <pt x="739" y="1176" on="0"/>
        <pt x="739" y="1231" on="1"/>
        <pt x="739" y="1294" on="0"/>
        <pt x="680" y="1390" on="0"/>
        <pt x="581" y="1443" on="0"/>
        <pt x="523" y="1443" on="1"/>
        <pt x="402" y="1443" on="0"/>
        <pt x="271" y="1290" on="0"/>
        <pt x="271" y="1128" on="1"/>
        <pt x="271" y="0" on="1"/>
      </contour>
    </TTGlyph>
    <TTGlyph name="grave" xMin="103" yMin="1257" xMax="439" yMax="1536">
      <contour>
        <pt x="330" y="1257" on="1"/>
        <pt x="103" y="1536" on="1"/>
        <pt x="248" y="1536" on="1"/>
        <pt x="439" y="1257" on="1"/>
      </contour>
    </TTGlyph>
    <TTGlyph name="gravecomb" xMin="-801" yMin="1257" xMax="-465" yMax="1536">
      <contour>
        <pt x="-574" y="1257" on="1"/>
        <pt x="-801" y="1536" on="1"/>
        <pt x="-656" y="1536" on="1"/>
        <pt x="-465" y="1257" on="1"/>
      </contour>
    </TTGlyph>
    <TTGlyph name="greater" xMin="124" yMin="232" xMax="969" yMax="1086">
      <contour>
        <pt x="969" y="708" on="1"/>
        <pt x="969" y="611" on="1"/>
        <pt x="124" y="232" on="1"/>
        <pt x="124" y="356" on="1"/>
        <pt x="835" y="660" on="1"/>
        <pt x="124" y="962" on="1"/>
        <pt x="124" y="1086" on="1"/>
      </contour>
    </TTGlyph>
    <TTGlyph name="guillemotleft" xMin="123" yMin="148" xMax="833" yMax="925">
      <component glyphName=".ttfautohint" x="123" y="148" flags="0x0"/>
      <component glyphName="guilsinglleft" x="15" y="-20" flags="0x4"/>
      <component glyphName="guilsinglleft" x="324" y="-20" flags="0x4"/>
    </TTGlyph>
    <TTGlyph name="guillemotright" xMin="116" yMin="162" xMax="835" yMax="945">
      <component glyphName=".ttfautohint" x="116" y="162" flags="0x0"/>
      <component glyphName="guilsinglright" x="18" y="0" flags="0x0"/>
      <component glyphName="guilsinglright" x="337" y="0" flags="0x0"/>
    </TTGlyph>
    <TTGlyph name="guilsinglleft" xMin="108" yMin="168" xMax="509" yMax="945">
      <contour>
        <pt x="233" y="557" on="1"/>
        <pt x="509" y="168" on="1"/>
        <pt x="403" y="168" on="1"/>
        <pt x="108" y="547" on="1"/>
        <pt x="108" y="566" on="1"/>
        <pt x="403" y="945" on="1"/>
        <pt x="509" y="945" on="1"/>
      </contour>
    </TTGlyph>
    <TTGlyph name="guilsinglright" xMin="98" yMin="162" xMax="498" yMax="945">
      <contour>
        <pt x="498" y="560" on="1"/>
        <pt x="498" y="541" on="1"/>
        <pt x="204" y="162" on="1"/>
        <pt x="98" y="162" on="1"/>
        <pt x="374" y="551" on="1"/>
        <pt x="98" y="945" on="1"/>
        <pt x="204" y="945" on="1"/>
      </contour>
    </TTGlyph>
    <TTGlyph name="h" xMin="156" yMin="0" xMax="973" yMax="1536">
      <contour>
        <pt x="796" y="1102" on="0"/>
        <pt x="973" y="912" on="0"/>
        <pt x="973" y="705" on="1"/>
        <pt x="973" y="0" on="1"/>
        <pt x="853" y="0" on="1"/>
        <pt x="853" y="705" on="1"/>
        <pt x="853" y="865" on="0"/>
        <pt x="723" y="999" on="0"/>
        <pt x="598" y="999" on="1"/>
        <pt x="481" y="999" on="0"/>
        <pt x="315" y="852" on="0"/>
        <pt x="276" y="744" on="1"/>
        <pt x="276" y="0" on="1"/>
        <pt x="156" y="0" on="1"/>
        <pt x="156" y="1536" on="1"/>
        <pt x="276" y="1536" on="1"/>
        <pt x="276" y="901" on="1"/>
        <pt x="334" y="995" on="0"/>
        <pt x="516" y="1102" on="0"/>
        <pt x="628" y="1102" on="1"/>
      </contour>
    </TTGlyph>
    <TTGlyph name="hyphen" xMin="49" yMin="592" xMax="528" yMax="694">
      <contour>
        <pt x="49" y="592" on="1"/>
        <pt x="49" y="694" on="1"/>
        <pt x="528" y="694" on="1"/>
        <pt x="528" y="592" on="1"/>
      </contour>
    </TTGlyph>
    <TTGlyph name="i" xMin="149" yMin="0" xMax="314" yMax="1476">
      <contour>
        <pt x="269" y="1476" on="0"/>
        <pt x="314" y="1430" on="0"/>
        <pt x="314" y="1395" on="1"/>
        <pt x="314" y="1361" on="0"/>
        <pt x="269" y="1316" on="0"/>
        <pt x="231" y="1316" on="1"/>
        <pt x="194" y="1316" on="0"/>
        <pt x="149" y="1361" on="0"/>
        <pt x="149" y="1395" on="1"/>
        <pt x="149" y="1430" on="0"/>
        <pt x="194" y="1476" on="0"/>
        <pt x="231" y="1476" on="1"/>
      </contour>
      <contour>
        <pt x="171" y="0" on="1"/>
        <pt x="171" y="1082" on="1"/>
        <pt x="290" y="1082" on="1"/>
        <pt x="290" y="0" on="1"/>
      </contour>
    </TTGlyph>
    <TTGlyph name="iacute" xMin="162" yMin="0" xMax="498" yMax="1522">
      <component glyphName=".ttfautohint" x="162" y="0" flags="0x0"/>
      <component glyphName="dotlessi" x="0" y="0" flags="0x0"/>
      <component glyphName="acutecomb" x="778" y="-14" flags="0x4"/>
    </TTGlyph>
    <TTGlyph name="icircumflex" xMin="-45" yMin="0" xMax="509" yMax="1512">
      <component glyphName=".ttfautohint" x="0" y="0" flags="0x0"/>
      <component glyphName="dotlessi" x="0" y="0" flags="0x0"/>
      <component glyphName="circumflex" x="-206" y="-14" flags="0x4"/>
    </TTGlyph>
    <TTGlyph name="idieresis" xMin="-68" yMin="0" xMax="534" yMax="1463">
      <component glyphName=".ttfautohint" x="0" y="0" flags="0x0"/>
      <component glyphName="dotlessi" x="0" y="0" flags="0x0"/>
      <component glyphName="dieresis" x="-206" y="-14" flags="0x4"/>
    </TTGlyph>
    <TTGlyph name="igrave" xMin="-33" yMin="0" xMax="303" yMax="1522">
      <component glyphName=".ttfautohint" x="0" y="0" flags="0x0"/>
      <component glyphName="dotlessi" x="0" y="0" flags="0x0"/>
      <component glyphName="gravecomb" x="768" y="-14" flags="0x4"/>
    </TTGlyph>
    <TTGlyph name="j" xMin="-104" yMin="-437" xMax="310" yMax="1476">
      <contour>
        <pt x="264" y="1476" on="0"/>
        <pt x="310" y="1430" on="0"/>
        <pt x="310" y="1395" on="1"/>
        <pt x="310" y="1361" on="0"/>
        <pt x="264" y="1316" on="0"/>
        <pt x="227" y="1316" on="1"/>
        <pt x="190" y="1316" on="0"/>
        <pt x="145" y="1361" on="0"/>
        <pt x="145" y="1395" on="1"/>
        <pt x="145" y="1430" on="0"/>
        <pt x="190" y="1476" on="0"/>
        <pt x="227" y="1476" on="1"/>
      </contour>
      <contour>
        <pt x="286" y="-129" on="1"/>
        <pt x="286" y="-278" on="0"/>
        <pt x="140" y="-437" on="0"/>
        <pt x="2" y="-437" on="1"/>
        <pt x="-24" y="-437" on="0"/>
        <pt x="-81" y="-427" on="0"/>
        <pt x="-104" y="-418" on="1"/>
        <pt x="-103" y="-319" on="1"/>
        <pt x="-55" y="-333" on="0"/>
        <pt x="-13" y="-333" on="1"/>
        <pt x="74" y="-333" on="0"/>
        <pt x="166" y="-230" on="0"/>
        <pt x="166" y="-129" on="1"/>
        <pt x="166" y="1082" on="1"/>
        <pt x="286" y="1082" on="1"/>
      </contour>
    </TTGlyph>
    <TTGlyph name="k" xMin="157" yMin="0" xMax="995" yMax="1536">
      <contour>
        <pt x="413" y="545" on="1"/>
        <pt x="276" y="413" on="1"/>
        <pt x="276" y="0" on="1"/>
        <pt x="157" y="0" on="1"/>
        <pt x="157" y="1536" on="1"/>
        <pt x="276" y="1536" on="1"/>
        <pt x="276" y="554" on="1"/>
        <pt x="389" y="676" on="1"/>
        <pt x="804" y="1082" on="1"/>
        <pt x="955" y="1082" on="1"/>
        <pt x="496" y="626" on="1"/>
        <pt x="995" y="0" on="1"/>
        <pt x="851" y="0" on="1"/>
      </contour>
    </TTGlyph>
    <TTGlyph name="k.alt" xMin="159" yMin="0" xMax="999" yMax="1536">
      <contour>
        <pt x="418" y="528" on="1"/>
        <pt x="279" y="528" on="1"/>
        <pt x="279" y="0" on="1"/>
        <pt x="159" y="0" on="1"/>
        <pt x="159" y="1536" on="1"/>
        <pt x="279" y="1536" on="1"/>
        <pt x="279" y="630" on="1"/>
        <pt x="406" y="630" on="1"/>
        <pt x="809" y="1082" on="1"/>
        <pt x="954" y="1082" on="1"/>
        <pt x="517" y="589" on="1"/>
        <pt x="999" y="0" on="1"/>
        <pt x="854" y="0" on="1"/>
      </contour>
    </TTGlyph>
    <TTGlyph name="k.alt2" xMin="159" yMin="0" xMax="941" yMax="1560">
      <contour>
        <pt x="297" y="517" on="1"/>
        <pt x="279" y="517" on="1"/>
        <pt x="279" y="0" on="1"/>
        <pt x="159" y="0" on="1"/>
        <pt x="159" y="1560" on="1"/>
        <pt x="279" y="1560" on="1"/>
        <pt x="279" y="619" on="1"/>
        <pt x="290" y="619" on="1"/>
        <pt x="750" y="1082" on="1"/>
        <pt x="907" y="1082" on="1"/>
        <pt x="400" y="574" on="1"/>
        <pt x="941" y="0" on="1"/>
        <pt x="791" y="0" on="1"/>
      </contour>
    </TTGlyph>
    <TTGlyph name="l" xMin="171" yMin="0" xMax="290" yMax="1536">
      <contour>
        <pt x="171" y="0" on="1"/>
        <pt x="171" y="1536" on="1"/>
        <pt x="290" y="1536" on="1"/>
        <pt x="290" y="0" on="1"/>
      </contour>
    </TTGlyph>
    <TTGlyph name="less" xMin="77" yMin="230" xMax="905" yMax="1083">
      <contour>
        <pt x="905" y="958" on="1"/>
        <pt x="209" y="656" on="1"/>
        <pt x="905" y="356" on="1"/>
        <pt x="905" y="230" on="1"/>
        <pt x="77" y="609" on="1"/>
        <pt x="77" y="705" on="1"/>
        <pt x="905" y="1083" on="1"/>
      </contour>
    </TTGlyph>
    <TTGlyph name="logicalnot" xMin="125" yMin="386" xMax="937" yMax="776">
      <contour>
        <pt x="937" y="776" on="1"/>
        <pt x="937" y="386" on="1"/>
        <pt x="817" y="386" on="1"/>
        <pt x="817" y="670" on="1"/>
        <pt x="125" y="670" on="1"/>
        <pt x="125" y="776" on="1"/>
      </contour>
    </TTGlyph>
    <TTGlyph name="longs" xMin="167" yMin="0" xMax="613" yMax="1557">
      <contour>
        <pt x="167" y="1217" on="1"/>
        <pt x="167" y="1380" on="0"/>
        <pt x="332" y="1557" on="0"/>
        <pt x="478" y="1557" on="1"/>
        <pt x="549" y="1557" on="0"/>
        <pt x="613" y="1538" on="1"/>
        <pt x="598" y="1442" on="1"/>
        <pt x="548" y="1455" on="0"/>
        <pt x="493" y="1455" on="1"/>
        <pt x="395" y="1455" on="0"/>
        <pt x="287" y="1330" on="0"/>
        <pt x="287" y="1217" on="1"/>
        <pt x="287" y="0" on="1"/>
        <pt x="167" y="0" on="1"/>
      </contour>
    </TTGlyph>
    <TTGlyph name="longst" xMin="63" yMin="-20" xMax="1136" yMax="1557">
      <contour>
        <pt x="1136" y="-4" on="1"/>
        <pt x="1115" y="-11" on="0"/>
        <pt x="1044" y="-20" on="0"/>
        <pt x="1008" y="-20" on="1"/>
        <pt x="896" y="-20" on="0"/>
        <pt x="772" y="110" on="0"/>
        <pt x="772" y="264" on="1"/>
        <pt x="772" y="984" on="1"/>
        <pt x="574" y="984" on="1"/>
        <pt x="574" y="1082" on="1"/>
        <pt x="772" y="1082" on="1"/>
        <pt x="772" y="1412" on="1"/>
        <pt x="739" y="1430" on="0"/>
        <pt x="618" y="1455" on="0"/>
        <pt x="568" y="1455" on="1"/>
        <pt x="471" y="1455" on="0"/>
        <pt x="362" y="1330" on="0"/>
        <pt x="362" y="1217" on="1"/>
        <pt x="362" y="0" on="1"/>
        <pt x="243" y="0" on="1"/>
        <pt x="243" y="984" on="1"/>
        <pt x="63" y="984" on="1"/>
        <pt x="63" y="1082" on="1"/>
        <pt x="243" y="1082" on="1"/>
        <pt x="243" y="1217" on="1"/>
        <pt x="243" y="1380" on="0"/>
        <pt x="407" y="1557" on="0"/>
        <pt x="553" y="1557" on="1"/>
        <pt x="632" y="1557" on="0"/>
        <pt x="815" y="1510" on="0"/>
        <pt x="892" y="1473" on="1"/>
        <pt x="892" y="1360" on="1"/>
        <pt x="893" y="1360" on="1"/>
        <pt x="893" y="1082" on="1"/>
        <pt x="1116" y="1082" on="1"/>
        <pt x="1116" y="984" on="1"/>
        <pt x="893" y="984" on="1"/>
        <pt x="893" y="264" on="1"/>
        <pt x="893" y="160" on="0"/>
        <pt x="968" y="85" on="0"/>
        <pt x="1033" y="85" on="1"/>
        <pt x="1069" y="85" on="0"/>
        <pt x="1131" y="96" on="1"/>
      </contour>
    </TTGlyph>
    <TTGlyph name="m" xMin="150" yMin="0" xMax="1668" yMax="1102">
      <contour>
        <pt x="1488" y="1102" on="0"/>
        <pt x="1668" y="910" on="0"/>
        <pt x="1668" y="705" on="1"/>
        <pt x="1668" y="0" on="1"/>
        <pt x="1549" y="0" on="1"/>
        <pt x="1549" y="706" on="1"/>
        <pt x="1549" y="867" on="0"/>
        <pt x="1414" y="999" on="0"/>
        <pt x="1289" y="999" on="1"/>
        <pt x="1193" y="999" on="0"/>
        <pt x="1052" y="914" on="0"/>
        <pt x="974" y="784" on="0"/>
        <pt x="968" y="716" on="1"/>
        <pt x="968" y="0" on="1"/>
        <pt x="848" y="0" on="1"/>
        <pt x="848" y="716" on="1"/>
        <pt x="848" y="869" on="0"/>
        <pt x="711" y="999" on="0"/>
        <pt x="585" y="999" on="1"/>
        <pt x="459" y="999" on="0"/>
        <pt x="303" y="854" on="0"/>
        <pt x="270" y="744" on="1"/>
        <pt x="270" y="0" on="1"/>
        <pt x="150" y="0" on="1"/>
        <pt x="150" y="1082" on="1"/>
        <pt x="266" y="1082" on="1"/>
        <pt x="269" y="906" on="1"/>
        <pt x="325" y="998" on="0"/>
        <pt x="504" y="1102" on="0"/>
        <pt x="620" y="1102" on="1"/>
        <pt x="743" y="1102" on="0"/>
        <pt x="909" y="1000" on="0"/>
        <pt x="944" y="892" on="1"/>
        <pt x="998" y="988" on="0"/>
        <pt x="1189" y="1102" on="0"/>
        <pt x="1314" y="1102" on="1"/>
      </contour>
    </TTGlyph>
    <TTGlyph name="macron" xMin="137" yMin="1344" xMax="757" yMax="1441">
      <contour>
        <pt x="137" y="1344" on="1"/>
        <pt x="137" y="1441" on="1"/>
        <pt x="757" y="1441" on="1"/>
        <pt x="757" y="1344" on="1"/>
      </contour>
    </TTGlyph>
    <TTGlyph name="minus" xMin="166" yMin="687" xMax="1001" yMax="789">
      <contour>
        <pt x="166" y="687" on="1"/>
        <pt x="166" y="789" on="1"/>
        <pt x="1001" y="789" on="1"/>
        <pt x="1001" y="687" on="1"/>
      </contour>
    </TTGlyph>
    <TTGlyph name="multiply" xMin="94" yMin="100" xMax="967" yMax="975">
      <contour>
        <pt x="888" y="100" on="1"/>
        <pt x="530" y="464" on="1"/>
        <pt x="173" y="100" on="1"/>
        <pt x="94" y="180" on="1"/>
        <pt x="451" y="545" on="1"/>
        <pt x="108" y="894" on="1"/>
        <pt x="187" y="975" on="1"/>
        <pt x="530" y="625" on="1"/>
        <pt x="873" y="975" on="1"/>
        <pt x="952" y="894" on="1"/>
        <pt x="609" y="545" on="1"/>
        <pt x="967" y="180" on="1"/>
      </contour>
    </TTGlyph>
    <TTGlyph name="n" xMin="156" yMin="0" xMax="973" yMax="1102">
      <contour>
        <pt x="796" y="1102" on="0"/>
        <pt x="973" y="912" on="0"/>
        <pt x="973" y="705" on="1"/>
        <pt x="973" y="0" on="1"/>
        <pt x="853" y="0" on="1"/>
        <pt x="853" y="705" on="1"/>
        <pt x="853" y="865" on="0"/>
        <pt x="723" y="999" on="0"/>
        <pt x="598" y="999" on="1"/>
        <pt x="481" y="999" on="0"/>
        <pt x="315" y="852" on="0"/>
        <pt x="276" y="744" on="1"/>
        <pt x="276" y="0" on="1"/>
        <pt x="156" y="0" on="1"/>
        <pt x="156" y="1082" on="1"/>
        <pt x="271" y="1082" on="1"/>
        <pt x="275" y="899" on="1"/>
        <pt x="333" y="994" on="0"/>
        <pt x="515" y="1102" on="0"/>
        <pt x="628" y="1102" on="1"/>
      </contour>
    </TTGlyph>
    <TTGlyph name="nine" xMin="102" yMin="-11" xMax="1005" yMax="1476">
      <contour>
        <pt x="694" y="1476" on="0"/>
        <pt x="902" y="1330" on="0"/>
        <pt x="1005" y="1068" on="0"/>
        <pt x="1005" y="895" on="1"/>
        <pt x="1005" y="779" on="1"/>
        <pt x="1005" y="-11" on="0"/>
        <pt x="328" y="-11" on="1"/>
        <pt x="302" y="-11" on="1"/>
        <pt x="303" y="93" on="1"/>
        <pt x="328" y="93" on="1"/>
        <pt x="871" y="93" on="0"/>
        <pt x="885" y="675" on="1"/>
        <pt x="823" y="584" on="0"/>
        <pt x="632" y="477" on="0"/>
        <pt x="519" y="477" on="1"/>
        <pt x="388" y="477" on="0"/>
        <pt x="200" y="613" on="0"/>
        <pt x="102" y="837" on="0"/>
        <pt x="102" y="965" on="1"/>
        <pt x="102" y="1106" on="0"/>
        <pt x="208" y="1339" on="0"/>
        <pt x="407" y="1476" on="0"/>
        <pt x="541" y="1476" on="1"/>
      </contour>
      <contour>
        <pt x="621" y="580" on="0"/>
        <pt x="764" y="651" on="0"/>
        <pt x="861" y="768" on="0"/>
        <pt x="885" y="836" on="1"/>
        <pt x="885" y="907" on="1"/>
        <pt x="885" y="1057" on="0"/>
        <pt x="799" y="1266" on="0"/>
        <pt x="645" y="1373" on="0"/>
        <pt x="544" y="1373" on="1"/>
        <pt x="446" y="1373" on="0"/>
        <pt x="299" y="1263" on="0"/>
        <pt x="220" y="1079" on="0"/>
        <pt x="220" y="970" on="1"/>
        <pt x="220" y="868" on="0"/>
        <pt x="294" y="689" on="0"/>
        <pt x="436" y="580" on="0"/>
        <pt x="534" y="580" on="1"/>
      </contour>
    </TTGlyph>
    <TTGlyph name="nine.frac" xMin="76" yMin="656" xMax="641" yMax="1464">
      <component glyphName=".ttfautohint" x="76" y="656" flags="0x0"/>
      <component glyphName="nine.sup" x="0" y="664" flags="0x4"/>
    </TTGlyph>
    <TTGlyph name="nine.smcp" xMin="85" yMin="-10" xMax="900" yMax="1181">
      <contour>
        <pt x="622" y="1181" on="0"/>
        <pt x="807" y="1066" on="0"/>
        <pt x="900" y="856" on="0"/>
        <pt x="900" y="714" on="1"/>
        <pt x="900" y="619" on="1"/>
        <pt x="900" y="328" on="0"/>
        <pt x="612" y="-10" on="0"/>
        <pt x="295" y="-10" on="1"/>
        <pt x="271" y="-10" on="1"/>
        <pt x="272" y="92" on="1"/>
        <pt x="295" y="92" on="1"/>
        <pt x="538" y="92" on="0"/>
        <pt x="773" y="323" on="0"/>
        <pt x="780" y="527" on="1"/>
        <pt x="731" y="460" on="0"/>
        <pt x="568" y="379" on="0"/>
        <pt x="467" y="379" on="1"/>
        <pt x="349" y="379" on="0"/>
        <pt x="176" y="486" on="0"/>
        <pt x="85" y="665" on="0"/>
        <pt x="85" y="771" on="1"/>
        <pt x="85" y="884" on="0"/>
        <pt x="184" y="1071" on="0"/>
        <pt x="368" y="1181" on="0"/>
        <pt x="489" y="1181" on="1"/>
      </contour>
      <contour>
        <pt x="559" y="479" on="0"/>
        <pt x="679" y="533" on="0"/>
        <pt x="761" y="620" on="0"/>
        <pt x="780" y="671" on="1"/>
        <pt x="780" y="730" on="1"/>
        <pt x="780" y="843" on="0"/>
        <pt x="708" y="999" on="0"/>
        <pt x="578" y="1078" on="0"/>
        <pt x="491" y="1078" on="1"/>
        <pt x="406" y="1078" on="0"/>
        <pt x="277" y="994" on="0"/>
        <pt x="208" y="854" on="0"/>
        <pt x="208" y="773" on="1"/>
        <pt x="208" y="695" on="0"/>
        <pt x="273" y="561" on="0"/>
        <pt x="399" y="479" on="0"/>
        <pt x="485" y="479" on="1"/>
      </contour>
    </TTGlyph>
</ttFont>
